<?xml version="1.0" encoding="utf-8" standalone="no"?>
<!DOCTYPE svg PUBLIC "-//W3C//DTD SVG 1.1//EN"
  "http://www.w3.org/Graphics/SVG/1.1/DTD/svg11.dtd">
<svg xmlns:xlink="http://www.w3.org/1999/xlink" width="619.2pt" height="619.2pt" viewBox="0 0 619.2 619.2" xmlns="http://www.w3.org/2000/svg" version="1.1">
 <metadata>
  <rdf:RDF xmlns:dc="http://purl.org/dc/elements/1.1/" xmlns:cc="http://creativecommons.org/ns#" xmlns:rdf="http://www.w3.org/1999/02/22-rdf-syntax-ns#">
   <cc:Work>
    <dc:type rdf:resource="http://purl.org/dc/dcmitype/StillImage"/>
    <dc:date>2023-03-31T19:06:57.919074</dc:date>
    <dc:format>image/svg+xml</dc:format>
    <dc:creator>
     <cc:Agent>
      <dc:title>Matplotlib v3.7.1, https://matplotlib.org/</dc:title>
     </cc:Agent>
    </dc:creator>
   </cc:Work>
  </rdf:RDF>
 </metadata>
 <defs>
  <style type="text/css">*{stroke-linejoin: round; stroke-linecap: butt}</style>
 </defs>
 <g id="figure_1">
  <g id="patch_1">
   <path d="M 0 619.2 
L 619.2 619.2 
L 619.2 0 
L 0 0 
z
" style="fill: #ffffff"/>
  </g>
  <g id="patch_2">
   <path d="M 7.2 612 
L 612 612 
L 612 7.2 
L 7.2 7.2 
z
" style="fill: #ffffff"/>
  </g>
  <g id="axes_1">
   <g id="line2d_1">
    <path d="M 359.569107 354.551389 
L 359.964029 301.550669 
" clip-path="url(#pc3f0cd4435)" style="fill: none; stroke-dasharray: 1,1.65; stroke-dashoffset: 0; stroke: #000000"/>
   </g>
   <g id="line2d_2">
    <path d="M 359.569107 354.551389 
L 325.419787 316.182287 
" clip-path="url(#pc3f0cd4435)" style="fill: none; stroke: #000000; stroke-linecap: square"/>
   </g>
   <g id="line2d_3">
    <path d="M 548.504117 391.495717 
L 548.504117 391.495717 
" clip-path="url(#pc3f0cd4435)" style="fill: none; stroke-dasharray: 1,1.65; stroke-dashoffset: 0; stroke: #008000"/>
   </g>
   <g id="line2d_4">
    <path d="M 548.504117 391.495717 
L 546.340472 392.497789 
" clip-path="url(#pc3f0cd4435)" style="fill: none; stroke: #008000; stroke-linecap: square"/>
   </g>
   <g id="line2d_5">
    <path d="M 412.105944 253.410793 
L 411.672806 253.166536 
" clip-path="url(#pc3f0cd4435)" style="fill: none; stroke-dasharray: 1,1.65; stroke-dashoffset: 0; stroke: #0000ff"/>
   </g>
   <g id="line2d_6">
    <path d="M 328.399108 211.130855 
L 344.192599 220.066564 
" clip-path="url(#pc3f0cd4435)" style="fill: none; stroke: #0000ff; stroke-linecap: square"/>
   </g>
   <g id="line2d_7">
    <path d="M 590.486274 372.043973 
L 590.49531 371.858704 
" clip-path="url(#pc3f0cd4435)" style="fill: none; stroke-dasharray: 1,1.65; stroke-dashoffset: 0; stroke: #ff0000"/>
   </g>
   <g id="line2d_8">
    <path d="M 588.287719 372.885442 
L 573.453205 372.062713 
" clip-path="url(#pc3f0cd4435)" style="fill: none; stroke: #ff0000; stroke-linecap: square"/>
   </g>
   <g id="line2d_9">
    <path d="M 405.487957 272.574304 
L 401.394418 274.299123 
" clip-path="url(#pc3f0cd4435)" style="fill: none; stroke-dasharray: 1,1.65; stroke-dashoffset: 0; stroke: #000000"/>
   </g>
   <g id="line2d_10">
    <path d="M 360.927438 231.141771 
L 356.668188 238.418236 
" clip-path="url(#pc3f0cd4435)" style="fill: none; stroke: #000000; stroke-linecap: square"/>
   </g>
   <g id="line2d_11">
    <path d="M 590.486274 372.043973 
L 590.49531 371.858704 
" clip-path="url(#pc3f0cd4435)" style="fill: none; stroke: #ff0000; stroke-linecap: square"/>
   </g>
   <g id="line2d_12">
    <path d="M 588.287719 372.885442 
L 573.453205 372.062713 
" clip-path="url(#pc3f0cd4435)" style="fill: none; stroke: #ff0000; stroke-linecap: square"/>
   </g>
   <g id="line2d_13">
    <path d="M 191.5084 183.751674 
L 191.5084 183.751674 
" clip-path="url(#pc3f0cd4435)" style="fill: none; stroke-dasharray: 1,1.65; stroke-dashoffset: 0; stroke: #008000"/>
   </g>
   <g id="line2d_14">
    <path d="M 191.5084 183.751674 
L 189.41196 184.554256 
" clip-path="url(#pc3f0cd4435)" style="fill: none; stroke: #008000; stroke-linecap: square"/>
   </g>
   <g id="line2d_15">
    <path d="M 307.421288 297.130648 
L 306.992087 296.874643 
" clip-path="url(#pc3f0cd4435)" style="fill: none; stroke-dasharray: 1,1.65; stroke-dashoffset: 0; stroke: #0000ff"/>
   </g>
   <g id="line2d_16">
    <path d="M 236.856335 404.188082 
L 220.763291 393.817184 
" clip-path="url(#pc3f0cd4435)" style="fill: none; stroke: #0000ff; stroke-linecap: square"/>
   </g>
   <g id="line2d_17">
    <path d="M 569.598944 381.721775 
L 569.607329 381.535913 
" clip-path="url(#pc3f0cd4435)" style="fill: none; stroke-dasharray: 1,1.65; stroke-dashoffset: 0; stroke: #ff0000"/>
   </g>
   <g id="line2d_18">
    <path d="M 567.417882 382.64309 
L 556.114594 383.916518 
" clip-path="url(#pc3f0cd4435)" style="fill: none; stroke: #ff0000; stroke-linecap: square"/>
   </g>
   <g id="line2d_19">
    <path d="M 401.394418 274.299123 
L 380.812227 282.971463 
" clip-path="url(#pc3f0cd4435)" style="fill: none; stroke-dasharray: 1,1.65; stroke-dashoffset: 0; stroke: #000000"/>
   </g>
   <g id="line2d_20">
    <path d="M 356.668188 238.418236 
L 335.380682 274.777788 
" clip-path="url(#pc3f0cd4435)" style="fill: none; stroke: #000000; stroke-linecap: square"/>
   </g>
   <g id="line2d_21">
    <path d="M 505.679485 411.337809 
L 505.685835 411.15015 
" clip-path="url(#pc3f0cd4435)" style="fill: none; stroke: #ff0000; stroke-linecap: square"/>
   </g>
   <g id="line2d_22">
    <path d="M 503.55042 412.504187 
L 502.826046 420.348043 
" clip-path="url(#pc3f0cd4435)" style="fill: none; stroke: #ff0000; stroke-linecap: square"/>
   </g>
   <g id="line2d_23">
    <path d="M 548.504117 391.495717 
L 548.511838 391.309259 
" clip-path="url(#pc3f0cd4435)" style="fill: none; stroke-dasharray: 1,1.65; stroke-dashoffset: 0; stroke: #ff0000"/>
   </g>
   <g id="line2d_24">
    <path d="M 546.340472 392.497789 
L 538.566428 395.913588 
" clip-path="url(#pc3f0cd4435)" style="fill: none; stroke: #ff0000; stroke-linecap: square"/>
   </g>
   <g id="line2d_25">
    <path d="M 380.812227 282.971463 
L 360.037242 291.725038 
" clip-path="url(#pc3f0cd4435)" style="fill: none; stroke-dasharray: 1,1.65; stroke-dashoffset: 0; stroke: #000000"/>
   </g>
   <g id="line2d_26">
    <path d="M 335.380682 274.777788 
L 314.104432 311.079332 
" clip-path="url(#pc3f0cd4435)" style="fill: none; stroke: #000000; stroke-linecap: square"/>
   </g>
   <g id="line2d_27">
    <path d="M 406.679426 267.427071 
L 406.682215 267.24842 
" clip-path="url(#pc3f0cd4435)" style="fill: none; stroke: #ff0000; stroke-linecap: square"/>
   </g>
   <g id="line2d_28">
    <path d="M 350.561407 235.91644 
L 333.910388 236.198435 
" clip-path="url(#pc3f0cd4435)" style="fill: none; stroke: #ff0000; stroke-linecap: square"/>
   </g>
   <g id="line2d_29">
    <path d="M 527.198688 401.367239 
L 527.20573 401.180182 
" clip-path="url(#pc3f0cd4435)" style="fill: none; stroke-dasharray: 1,1.65; stroke-dashoffset: 0; stroke: #ff0000"/>
   </g>
   <g id="line2d_30">
    <path d="M 525.052376 402.450993 
L 520.804884 408.056537 
" clip-path="url(#pc3f0cd4435)" style="fill: none; stroke: #ff0000; stroke-linecap: square"/>
   </g>
   <g id="line2d_31">
    <path d="M 360.037242 291.725038 
L 339.06674 300.560994 
" clip-path="url(#pc3f0cd4435)" style="fill: none; stroke-dasharray: 1,1.65; stroke-dashoffset: 0; stroke: #000000"/>
   </g>
   <g id="line2d_32">
    <path d="M 314.104432 311.079332 
L 292.807463 347.384002 
" clip-path="url(#pc3f0cd4435)" style="fill: none; stroke: #000000; stroke-linecap: square"/>
   </g>
   <g id="line2d_33">
    <path d="M 323.001957 302.596569 
L 323.002124 302.415653 
" clip-path="url(#pc3f0cd4435)" style="fill: none; stroke: #ff0000; stroke-linecap: square"/>
   </g>
   <g id="line2d_34">
    <path d="M 264.912966 382.085368 
L 260.863811 390.382455 
" clip-path="url(#pc3f0cd4435)" style="fill: none; stroke: #ff0000; stroke-linecap: square"/>
   </g>
   <g id="line2d_35">
    <path d="M 505.679485 411.337809 
L 505.685835 411.15015 
" clip-path="url(#pc3f0cd4435)" style="fill: none; stroke-dasharray: 1,1.65; stroke-dashoffset: 0; stroke: #ff0000"/>
   </g>
   <g id="line2d_36">
    <path d="M 503.55042 412.504187 
L 502.826046 420.348043 
" clip-path="url(#pc3f0cd4435)" style="fill: none; stroke: #ff0000; stroke-linecap: square"/>
   </g>
   <g id="line2d_37">
    <path d="M 339.06674 300.560994 
L 317.897949 309.480499 
" clip-path="url(#pc3f0cd4435)" style="fill: none; stroke-dasharray: 1,1.65; stroke-dashoffset: 0; stroke: #000000"/>
   </g>
   <g id="line2d_38">
    <path d="M 292.807463 347.384002 
L 271.521694 383.725094 
" clip-path="url(#pc3f0cd4435)" style="fill: none; stroke: #000000; stroke-linecap: square"/>
   </g>
   <g id="line2d_39">
    <path d="M 396.413632 261.584114 
L 396.41609 261.405843 
" clip-path="url(#pc3f0cd4435)" style="fill: none; stroke: #ff0000; stroke-linecap: square"/>
   </g>
   <g id="line2d_40">
    <path d="M 340.244089 230.043357 
L 336.537629 237.70739 
" clip-path="url(#pc3f0cd4435)" style="fill: none; stroke: #ff0000; stroke-linecap: square"/>
   </g>
   <g id="line2d_41">
    <path d="M 406.679426 267.427071 
L 406.682215 267.24842 
" clip-path="url(#pc3f0cd4435)" style="fill: none; stroke-dasharray: 1,1.65; stroke-dashoffset: 0; stroke: #ff0000"/>
   </g>
   <g id="line2d_42">
    <path d="M 350.561407 235.91644 
L 333.910388 236.198435 
" clip-path="url(#pc3f0cd4435)" style="fill: none; stroke: #ff0000; stroke-linecap: square"/>
   </g>
   <g id="line2d_43">
    <path d="M 317.897949 309.480499 
L 313.640148 311.274531 
" clip-path="url(#pc3f0cd4435)" style="fill: none; stroke-dasharray: 1,1.65; stroke-dashoffset: 0; stroke: #000000"/>
   </g>
   <g id="line2d_44">
    <path d="M 271.521694 383.725094 
L 267.266302 390.994869 
" clip-path="url(#pc3f0cd4435)" style="fill: none; stroke: #000000; stroke-linecap: square"/>
   </g>
   <g id="line2d_45">
    <path d="M 312.810773 296.530131 
L 312.810615 296.349602 
" clip-path="url(#pc3f0cd4435)" style="fill: none; stroke: #ff0000; stroke-linecap: square"/>
   </g>
   <g id="line2d_46">
    <path d="M 254.876034 375.743853 
L 238.257629 376.024849 
" clip-path="url(#pc3f0cd4435)" style="fill: none; stroke: #ff0000; stroke-linecap: square"/>
   </g>
   <g id="line2d_47">
    <path d="M 386.05359 276.096075 
L 386.055741 275.916862 
" clip-path="url(#pc3f0cd4435)" style="fill: none; stroke-dasharray: 1,1.65; stroke-dashoffset: 0; stroke: #ff0000"/>
   </g>
   <g id="line2d_48">
    <path d="M 329.160474 272.486804 
L 315.698615 274.639175 
" clip-path="url(#pc3f0cd4435)" style="fill: none; stroke: #ff0000; stroke-linecap: square"/>
   </g>
   <g id="line2d_49">
    <path d="M 232.265006 168.156035 
L 232.262467 167.984006 
" clip-path="url(#pc3f0cd4435)" style="fill: none; stroke: #ff0000; stroke-linecap: square"/>
   </g>
   <g id="line2d_50">
    <path d="M 230.269729 168.89436 
L 228.676494 174.84444 
" clip-path="url(#pc3f0cd4435)" style="fill: none; stroke: #ff0000; stroke-linecap: square"/>
   </g>
   <g id="line2d_51">
    <path d="M 365.233905 284.846553 
L 365.235408 284.666775 
" clip-path="url(#pc3f0cd4435)" style="fill: none; stroke-dasharray: 1,1.65; stroke-dashoffset: 0; stroke: #ff0000"/>
   </g>
   <g id="line2d_52">
    <path d="M 307.788675 308.99113 
L 297.453655 313.149964 
" clip-path="url(#pc3f0cd4435)" style="fill: none; stroke: #ff0000; stroke-linecap: square"/>
   </g>
   <g id="line2d_53">
    <path d="M 150.020602 199.627107 
L 150.015533 199.452942 
" clip-path="url(#pc3f0cd4435)" style="fill: none; stroke: #ff0000; stroke-linecap: square"/>
   </g>
   <g id="line2d_54">
    <path d="M 147.823908 200.494055 
L 134.412345 199.863551 
" clip-path="url(#pc3f0cd4435)" style="fill: none; stroke: #ff0000; stroke-linecap: square"/>
   </g>
   <g id="line2d_55">
    <path d="M 344.217627 293.679659 
L 344.218468 293.499313 
" clip-path="url(#pc3f0cd4435)" style="fill: none; stroke-dasharray: 1,1.65; stroke-dashoffset: 0; stroke: #ff0000"/>
   </g>
   <g id="line2d_56">
    <path d="M 286.336343 345.523556 
L 279.175417 351.730993 
" clip-path="url(#pc3f0cd4435)" style="fill: none; stroke: #ff0000; stroke-linecap: square"/>
   </g>
   <g id="line2d_57">
    <path d="M 323.001957 302.596569 
L 323.002124 302.415653 
" clip-path="url(#pc3f0cd4435)" style="fill: none; stroke-dasharray: 1,1.65; stroke-dashoffset: 0; stroke: #ff0000"/>
   </g>
   <g id="line2d_58">
    <path d="M 264.912966 382.085368 
L 260.863811 390.382455 
" clip-path="url(#pc3f0cd4435)" style="fill: none; stroke: #ff0000; stroke-linecap: square"/>
   </g>
   <g id="line2d_59">
    <path d="M 554.554801 387.585908 
L 513.862709 363.995062 
" clip-path="url(#pc3f0cd4435)" style="fill: none; stroke-dasharray: 1,1.65; stroke-dashoffset: 0; stroke: #000000"/>
   </g>
   <g id="line2d_60">
    <path d="M 546.535358 391.296563 
L 491.83827 373.972221 
" clip-path="url(#pc3f0cd4435)" style="fill: none; stroke: #000000; stroke-linecap: square"/>
   </g>
   <g id="line2d_61">
    <path d="M 396.413632 261.584114 
L 396.41609 261.405843 
" clip-path="url(#pc3f0cd4435)" style="fill: none; stroke-dasharray: 1,1.65; stroke-dashoffset: 0; stroke: #ff0000"/>
   </g>
   <g id="line2d_62">
    <path d="M 340.244089 230.043357 
L 336.537629 237.70739 
" clip-path="url(#pc3f0cd4435)" style="fill: none; stroke: #ff0000; stroke-linecap: square"/>
   </g>
   <g id="line2d_63">
    <path d="M 513.862709 363.995062 
L 474.131916 340.96152 
" clip-path="url(#pc3f0cd4435)" style="fill: none; stroke-dasharray: 1,1.65; stroke-dashoffset: 0; stroke: #000000"/>
   </g>
   <g id="line2d_64">
    <path d="M 491.83827 373.972221 
L 438.106423 356.942175 
" clip-path="url(#pc3f0cd4435)" style="fill: none; stroke: #000000; stroke-linecap: square"/>
   </g>
   <g id="line2d_65">
    <path d="M 375.805258 270.19842 
L 375.80708 270.019589 
" clip-path="url(#pc3f0cd4435)" style="fill: none; stroke-dasharray: 1,1.65; stroke-dashoffset: 0; stroke: #ff0000"/>
   </g>
   <g id="line2d_66">
    <path d="M 318.91332 266.496515 
L 311.885088 272.402921 
" clip-path="url(#pc3f0cd4435)" style="fill: none; stroke: #ff0000; stroke-linecap: square"/>
   </g>
   <g id="line2d_67">
    <path d="M 474.131916 340.96152 
L 435.328755 318.465764 
" clip-path="url(#pc3f0cd4435)" style="fill: none; stroke-dasharray: 1,1.65; stroke-dashoffset: 0; stroke: #000000"/>
   </g>
   <g id="line2d_68">
    <path d="M 438.106423 356.942175 
L 385.353452 340.183624 
" clip-path="url(#pc3f0cd4435)" style="fill: none; stroke: #000000; stroke-linecap: square"/>
   </g>
   <g id="line2d_69">
    <path d="M 355.003816 278.893428 
L 355.00499 278.714034 
" clip-path="url(#pc3f0cd4435)" style="fill: none; stroke-dasharray: 1,1.65; stroke-dashoffset: 0; stroke: #ff0000"/>
   </g>
   <g id="line2d_70">
    <path d="M 297.61155 302.883833 
L 287.287698 307.020835 
" clip-path="url(#pc3f0cd4435)" style="fill: none; stroke: #ff0000; stroke-linecap: square"/>
   </g>
   <g id="line2d_71">
    <path d="M 435.328755 318.465764 
L 397.421113 296.489176 
" clip-path="url(#pc3f0cd4435)" style="fill: none; stroke-dasharray: 1,1.65; stroke-dashoffset: 0; stroke: #000000"/>
   </g>
   <g id="line2d_72">
    <path d="M 385.353452 340.183624 
L 333.573395 323.683121 
" clip-path="url(#pc3f0cd4435)" style="fill: none; stroke: #000000; stroke-linecap: square"/>
   </g>
   <g id="line2d_73">
    <path d="M 334.00658 287.670278 
L 334.007094 287.490318 
" clip-path="url(#pc3f0cd4435)" style="fill: none; stroke-dasharray: 1,1.65; stroke-dashoffset: 0; stroke: #ff0000"/>
   </g>
   <g id="line2d_74">
    <path d="M 276.229297 339.299158 
L 262.745273 341.561391 
" clip-path="url(#pc3f0cd4435)" style="fill: none; stroke: #ff0000; stroke-linecap: square"/>
   </g>
   <g id="line2d_75">
    <path d="M 397.421113 296.489176 
L 360.378344 275.01399 
" clip-path="url(#pc3f0cd4435)" style="fill: none; stroke-dasharray: 1,1.65; stroke-dashoffset: 0; stroke: #000000"/>
   </g>
   <g id="line2d_76">
    <path d="M 333.573395 323.683121 
L 282.732171 307.439191 
" clip-path="url(#pc3f0cd4435)" style="fill: none; stroke: #000000; stroke-linecap: square"/>
   </g>
   <g id="line2d_77">
    <path d="M 312.810773 296.530131 
L 312.810615 296.349602 
" clip-path="url(#pc3f0cd4435)" style="fill: none; stroke-dasharray: 1,1.65; stroke-dashoffset: 0; stroke: #ff0000"/>
   </g>
   <g id="line2d_78">
    <path d="M 254.876034 375.743853 
L 238.257629 376.024849 
" clip-path="url(#pc3f0cd4435)" style="fill: none; stroke: #ff0000; stroke-linecap: square"/>
   </g>
   <g id="line2d_79">
    <path d="M 232.265006 168.156035 
L 232.262467 167.984006 
" clip-path="url(#pc3f0cd4435)" style="fill: none; stroke-dasharray: 1,1.65; stroke-dashoffset: 0; stroke: #ff0000"/>
   </g>
   <g id="line2d_80">
    <path d="M 230.269729 168.89436 
L 228.676494 174.84444 
" clip-path="url(#pc3f0cd4435)" style="fill: none; stroke: #ff0000; stroke-linecap: square"/>
   </g>
   <g id="line2d_81">
    <path d="M 211.976888 175.919345 
L 211.973734 175.746786 
" clip-path="url(#pc3f0cd4435)" style="fill: none; stroke-dasharray: 1,1.65; stroke-dashoffset: 0; stroke: #ff0000"/>
   </g>
   <g id="line2d_82">
    <path d="M 209.930923 176.689783 
L 205.355656 181.034138 
" clip-path="url(#pc3f0cd4435)" style="fill: none; stroke: #ff0000; stroke-linecap: square"/>
   </g>
   <g id="line2d_83">
    <path d="M 191.5084 183.751674 
L 191.504619 183.578583 
" clip-path="url(#pc3f0cd4435)" style="fill: none; stroke-dasharray: 1,1.65; stroke-dashoffset: 0; stroke: #ff0000"/>
   </g>
   <g id="line2d_84">
    <path d="M 189.41196 184.554256 
L 181.87249 187.266921 
" clip-path="url(#pc3f0cd4435)" style="fill: none; stroke: #ff0000; stroke-linecap: square"/>
   </g>
   <g id="line2d_85">
    <path d="M 170.857124 191.653948 
L 170.852705 191.480322 
" clip-path="url(#pc3f0cd4435)" style="fill: none; stroke-dasharray: 1,1.65; stroke-dashoffset: 0; stroke: #ff0000"/>
   </g>
   <g id="line2d_86">
    <path d="M 168.710438 192.488701 
L 158.225294 193.543239 
" clip-path="url(#pc3f0cd4435)" style="fill: none; stroke: #ff0000; stroke-linecap: square"/>
   </g>
   <g id="line2d_87">
    <path d="M 150.020602 199.627107 
L 150.015533 199.452942 
" clip-path="url(#pc3f0cd4435)" style="fill: none; stroke-dasharray: 1,1.65; stroke-dashoffset: 0; stroke: #ff0000"/>
   </g>
   <g id="line2d_88">
    <path d="M 147.823908 200.494055 
L 134.412345 199.863551 
" clip-path="url(#pc3f0cd4435)" style="fill: none; stroke: #ff0000; stroke-linecap: square"/>
   </g>
   <g id="line2d_89">
    <path d="M 359.947068 274.763962 
L 323.74958 253.778819 
" clip-path="url(#pc3f0cd4435)" style="fill: none; stroke-dasharray: 1,1.65; stroke-dashoffset: 0; stroke: #000000"/>
   </g>
   <g id="line2d_90">
    <path d="M 282.304515 307.186011 
L 260.33363 279.752614 
" clip-path="url(#pc3f0cd4435)" style="fill: none; stroke: #000000; stroke-linecap: square"/>
   </g>
   <g id="line2d_91">
    <path d="M 323.74958 253.778819 
L 288.359418 233.261716 
" clip-path="url(#pc3f0cd4435)" style="fill: none; stroke-dasharray: 1,1.65; stroke-dashoffset: 0; stroke: #000000"/>
   </g>
   <g id="line2d_92">
    <path d="M 260.33363 279.752614 
L 239.048424 253.079203 
" clip-path="url(#pc3f0cd4435)" style="fill: none; stroke: #000000; stroke-linecap: square"/>
   </g>
   <g id="line2d_93">
    <path d="M 288.359418 233.261716 
L 253.749871 213.197167 
" clip-path="url(#pc3f0cd4435)" style="fill: none; stroke-dasharray: 1,1.65; stroke-dashoffset: 0; stroke: #000000"/>
   </g>
   <g id="line2d_94">
    <path d="M 239.048424 253.079203 
L 218.432121 227.129369 
" clip-path="url(#pc3f0cd4435)" style="fill: none; stroke: #000000; stroke-linecap: square"/>
   </g>
   <g id="line2d_95">
    <path d="M 253.749871 213.197167 
L 219.895394 193.570362 
" clip-path="url(#pc3f0cd4435)" style="fill: none; stroke-dasharray: 1,1.65; stroke-dashoffset: 0; stroke: #000000"/>
   </g>
   <g id="line2d_96">
    <path d="M 218.432121 227.129369 
L 198.441033 201.88072 
" clip-path="url(#pc3f0cd4435)" style="fill: none; stroke: #000000; stroke-linecap: square"/>
   </g>
   <g id="line2d_97">
    <path d="M 219.895394 193.570362 
L 186.771544 174.367131 
" clip-path="url(#pc3f0cd4435)" style="fill: none; stroke-dasharray: 1,1.65; stroke-dashoffset: 0; stroke: #000000"/>
   </g>
   <g id="line2d_98">
    <path d="M 198.441033 201.88072 
L 179.013657 177.319757 
" clip-path="url(#pc3f0cd4435)" style="fill: none; stroke: #000000; stroke-linecap: square"/>
   </g>
   <g id="line2d_99">
    <path d="M 360.378344 275.01399 
L 412.105944 253.410793 
" clip-path="url(#pc3f0cd4435)" style="fill: none; stroke-dasharray: 1,1.65; stroke-dashoffset: 0; stroke: #808080"/>
   </g>
   <g id="line2d_100">
    <path d="M 282.732171 307.439191 
L 328.399108 211.130855 
" clip-path="url(#pc3f0cd4435)" style="fill: none; stroke: #808080; stroke-linecap: square"/>
   </g>
   <g id="line2d_101">
    <path d="M 360.378344 275.01399 
L 307.421288 297.130648 
" clip-path="url(#pc3f0cd4435)" style="fill: none; stroke-dasharray: 1,1.65; stroke-dashoffset: 0; stroke: #808080"/>
   </g>
   <g id="line2d_102">
    <path d="M 282.732171 307.439191 
L 236.856335 404.188082 
" clip-path="url(#pc3f0cd4435)" style="fill: none; stroke: #808080; stroke-linecap: square"/>
   </g>
   <g id="line2d_103">
    <path d="M 359.947068 274.763962 
L 411.672806 253.166536 
" clip-path="url(#pc3f0cd4435)" style="fill: none; stroke-dasharray: 1,1.65; stroke-dashoffset: 0; stroke: #808080"/>
   </g>
   <g id="line2d_104">
    <path d="M 282.304515 307.186011 
L 344.192599 220.066564 
" clip-path="url(#pc3f0cd4435)" style="fill: none; stroke: #808080; stroke-linecap: square"/>
   </g>
   <g id="line2d_105">
    <path d="M 359.947068 274.763962 
L 306.992087 296.874643 
" clip-path="url(#pc3f0cd4435)" style="fill: none; stroke-dasharray: 1,1.65; stroke-dashoffset: 0; stroke: #808080"/>
   </g>
   <g id="line2d_106">
    <path d="M 282.304515 307.186011 
L 220.763291 393.817184 
" clip-path="url(#pc3f0cd4435)" style="fill: none; stroke: #808080; stroke-linecap: square"/>
   </g>
   <g id="line2d_107">
    <path d="M 554.554801 387.585908 
L 590.49531 371.858704 
" clip-path="url(#pc3f0cd4435)" style="fill: none; stroke-dasharray: 1,1.65; stroke-dashoffset: 0; stroke: #808080"/>
   </g>
   <g id="line2d_108">
    <path d="M 546.535358 391.296563 
L 573.453205 372.062713 
" clip-path="url(#pc3f0cd4435)" style="fill: none; stroke: #808080; stroke-linecap: square"/>
   </g>
   <g id="line2d_109">
    <path d="M 554.554801 387.585908 
L 569.607329 381.535913 
" clip-path="url(#pc3f0cd4435)" style="fill: none; stroke-dasharray: 1,1.65; stroke-dashoffset: 0; stroke: #808080"/>
   </g>
   <g id="line2d_110">
    <path d="M 546.535358 391.296563 
L 556.114594 383.916518 
" clip-path="url(#pc3f0cd4435)" style="fill: none; stroke: #808080; stroke-linecap: square"/>
   </g>
   <g id="line2d_111">
    <path d="M 554.554801 387.585908 
L 548.511838 391.309259 
" clip-path="url(#pc3f0cd4435)" style="fill: none; stroke-dasharray: 1,1.65; stroke-dashoffset: 0; stroke: #808080"/>
   </g>
   <g id="line2d_112">
    <path d="M 546.535358 391.296563 
L 538.566428 395.913588 
" clip-path="url(#pc3f0cd4435)" style="fill: none; stroke: #808080; stroke-linecap: square"/>
   </g>
   <g id="line2d_113">
    <path d="M 554.554801 387.585908 
L 527.20573 401.180182 
" clip-path="url(#pc3f0cd4435)" style="fill: none; stroke-dasharray: 1,1.65; stroke-dashoffset: 0; stroke: #808080"/>
   </g>
   <g id="line2d_114">
    <path d="M 546.535358 391.296563 
L 520.804884 408.056537 
" clip-path="url(#pc3f0cd4435)" style="fill: none; stroke: #808080; stroke-linecap: square"/>
   </g>
   <g id="line2d_115">
    <path d="M 554.554801 387.585908 
L 505.685835 411.15015 
" clip-path="url(#pc3f0cd4435)" style="fill: none; stroke-dasharray: 1,1.65; stroke-dashoffset: 0; stroke: #808080"/>
   </g>
   <g id="line2d_116">
    <path d="M 546.535358 391.296563 
L 502.826046 420.348043 
" clip-path="url(#pc3f0cd4435)" style="fill: none; stroke: #808080; stroke-linecap: square"/>
   </g>
   <g id="line2d_117">
    <path d="M 360.378344 275.01399 
L 406.682215 267.24842 
" clip-path="url(#pc3f0cd4435)" style="fill: none; stroke-dasharray: 1,1.65; stroke-dashoffset: 0; stroke: #808080"/>
   </g>
   <g id="line2d_118">
    <path d="M 282.732171 307.439191 
L 333.910388 236.198435 
" clip-path="url(#pc3f0cd4435)" style="fill: none; stroke: #808080; stroke-linecap: square"/>
   </g>
   <g id="line2d_119">
    <path d="M 360.378344 275.01399 
L 386.055741 275.916862 
" clip-path="url(#pc3f0cd4435)" style="fill: none; stroke-dasharray: 1,1.65; stroke-dashoffset: 0; stroke: #808080"/>
   </g>
   <g id="line2d_120">
    <path d="M 282.732171 307.439191 
L 315.698615 274.639175 
" clip-path="url(#pc3f0cd4435)" style="fill: none; stroke: #808080; stroke-linecap: square"/>
   </g>
   <g id="line2d_121">
    <path d="M 360.378344 275.01399 
L 365.235408 284.666775 
" clip-path="url(#pc3f0cd4435)" style="fill: none; stroke-dasharray: 1,1.65; stroke-dashoffset: 0; stroke: #808080"/>
   </g>
   <g id="line2d_122">
    <path d="M 282.732171 307.439191 
L 297.453655 313.149964 
" clip-path="url(#pc3f0cd4435)" style="fill: none; stroke: #808080; stroke-linecap: square"/>
   </g>
   <g id="line2d_123">
    <path d="M 360.378344 275.01399 
L 344.218468 293.499313 
" clip-path="url(#pc3f0cd4435)" style="fill: none; stroke-dasharray: 1,1.65; stroke-dashoffset: 0; stroke: #808080"/>
   </g>
   <g id="line2d_124">
    <path d="M 282.732171 307.439191 
L 279.175417 351.730993 
" clip-path="url(#pc3f0cd4435)" style="fill: none; stroke: #808080; stroke-linecap: square"/>
   </g>
   <g id="line2d_125">
    <path d="M 360.378344 275.01399 
L 323.002124 302.415653 
" clip-path="url(#pc3f0cd4435)" style="fill: none; stroke-dasharray: 1,1.65; stroke-dashoffset: 0; stroke: #808080"/>
   </g>
   <g id="line2d_126">
    <path d="M 282.732171 307.439191 
L 260.863811 390.382455 
" clip-path="url(#pc3f0cd4435)" style="fill: none; stroke: #808080; stroke-linecap: square"/>
   </g>
   <g id="line2d_127">
    <path d="M 359.947068 274.763962 
L 396.41609 261.405843 
" clip-path="url(#pc3f0cd4435)" style="fill: none; stroke-dasharray: 1,1.65; stroke-dashoffset: 0; stroke: #808080"/>
   </g>
   <g id="line2d_128">
    <path d="M 282.304515 307.186011 
L 336.537629 237.70739 
" clip-path="url(#pc3f0cd4435)" style="fill: none; stroke: #808080; stroke-linecap: square"/>
   </g>
   <g id="line2d_129">
    <path d="M 359.947068 274.763962 
L 375.80708 270.019589 
" clip-path="url(#pc3f0cd4435)" style="fill: none; stroke-dasharray: 1,1.65; stroke-dashoffset: 0; stroke: #808080"/>
   </g>
   <g id="line2d_130">
    <path d="M 282.304515 307.186011 
L 311.885088 272.402921 
" clip-path="url(#pc3f0cd4435)" style="fill: none; stroke: #808080; stroke-linecap: square"/>
   </g>
   <g id="line2d_131">
    <path d="M 359.947068 274.763962 
L 355.00499 278.714034 
" clip-path="url(#pc3f0cd4435)" style="fill: none; stroke-dasharray: 1,1.65; stroke-dashoffset: 0; stroke: #808080"/>
   </g>
   <g id="line2d_132">
    <path d="M 282.304515 307.186011 
L 287.287698 307.020835 
" clip-path="url(#pc3f0cd4435)" style="fill: none; stroke: #808080; stroke-linecap: square"/>
   </g>
   <g id="line2d_133">
    <path d="M 359.947068 274.763962 
L 334.007094 287.490318 
" clip-path="url(#pc3f0cd4435)" style="fill: none; stroke-dasharray: 1,1.65; stroke-dashoffset: 0; stroke: #808080"/>
   </g>
   <g id="line2d_134">
    <path d="M 282.304515 307.186011 
L 262.745273 341.561391 
" clip-path="url(#pc3f0cd4435)" style="fill: none; stroke: #808080; stroke-linecap: square"/>
   </g>
   <g id="line2d_135">
    <path d="M 359.947068 274.763962 
L 312.810615 296.349602 
" clip-path="url(#pc3f0cd4435)" style="fill: none; stroke-dasharray: 1,1.65; stroke-dashoffset: 0; stroke: #808080"/>
   </g>
   <g id="line2d_136">
    <path d="M 282.304515 307.186011 
L 238.257629 376.024849 
" clip-path="url(#pc3f0cd4435)" style="fill: none; stroke: #808080; stroke-linecap: square"/>
   </g>
   <g id="line2d_137">
    <path d="M 186.771544 174.367131 
L 232.262467 167.984006 
" clip-path="url(#pc3f0cd4435)" style="fill: none; stroke-dasharray: 1,1.65; stroke-dashoffset: 0; stroke: #808080"/>
   </g>
   <g id="line2d_138">
    <path d="M 179.013657 177.319757 
L 228.676494 174.84444 
" clip-path="url(#pc3f0cd4435)" style="fill: none; stroke: #808080; stroke-linecap: square"/>
   </g>
   <g id="line2d_139">
    <path d="M 186.771544 174.367131 
L 211.973734 175.746786 
" clip-path="url(#pc3f0cd4435)" style="fill: none; stroke-dasharray: 1,1.65; stroke-dashoffset: 0; stroke: #808080"/>
   </g>
   <g id="line2d_140">
    <path d="M 179.013657 177.319757 
L 205.355656 181.034138 
" clip-path="url(#pc3f0cd4435)" style="fill: none; stroke: #808080; stroke-linecap: square"/>
   </g>
   <g id="line2d_141">
    <path d="M 186.771544 174.367131 
L 191.504619 183.578583 
" clip-path="url(#pc3f0cd4435)" style="fill: none; stroke-dasharray: 1,1.65; stroke-dashoffset: 0; stroke: #808080"/>
   </g>
   <g id="line2d_142">
    <path d="M 179.013657 177.319757 
L 181.87249 187.266921 
" clip-path="url(#pc3f0cd4435)" style="fill: none; stroke: #808080; stroke-linecap: square"/>
   </g>
   <g id="line2d_143">
    <path d="M 186.771544 174.367131 
L 170.852705 191.480322 
" clip-path="url(#pc3f0cd4435)" style="fill: none; stroke-dasharray: 1,1.65; stroke-dashoffset: 0; stroke: #808080"/>
   </g>
   <g id="line2d_144">
    <path d="M 179.013657 177.319757 
L 158.225294 193.543239 
" clip-path="url(#pc3f0cd4435)" style="fill: none; stroke: #808080; stroke-linecap: square"/>
   </g>
   <g id="line2d_145">
    <path d="M 186.771544 174.367131 
L 150.015533 199.452942 
" clip-path="url(#pc3f0cd4435)" style="fill: none; stroke-dasharray: 1,1.65; stroke-dashoffset: 0; stroke: #808080"/>
   </g>
   <g id="line2d_146">
    <path d="M 179.013657 177.319757 
L 134.412345 199.863551 
" clip-path="url(#pc3f0cd4435)" style="fill: none; stroke: #808080; stroke-linecap: square"/>
   </g>
   <g id="line2d_147">
    <path d="M 401.394418 274.299123 
L 406.679426 267.427071 
" clip-path="url(#pc3f0cd4435)" style="fill: none; stroke-dasharray: 1,1.65; stroke-dashoffset: 0; stroke: #808080"/>
   </g>
   <g id="line2d_148">
    <path d="M 356.668188 238.418236 
L 350.561407 235.91644 
" clip-path="url(#pc3f0cd4435)" style="fill: none; stroke: #808080; stroke-linecap: square"/>
   </g>
   <g id="line2d_149">
    <path d="M 401.394418 274.299123 
L 396.413632 261.584114 
" clip-path="url(#pc3f0cd4435)" style="fill: none; stroke-dasharray: 1,1.65; stroke-dashoffset: 0; stroke: #808080"/>
   </g>
   <g id="line2d_150">
    <path d="M 356.668188 238.418236 
L 340.244089 230.043357 
" clip-path="url(#pc3f0cd4435)" style="fill: none; stroke: #808080; stroke-linecap: square"/>
   </g>
   <g id="line2d_151">
    <path d="M 380.812227 282.971463 
L 386.05359 276.096075 
" clip-path="url(#pc3f0cd4435)" style="fill: none; stroke-dasharray: 1,1.65; stroke-dashoffset: 0; stroke: #808080"/>
   </g>
   <g id="line2d_152">
    <path d="M 335.380682 274.777788 
L 329.160474 272.486804 
" clip-path="url(#pc3f0cd4435)" style="fill: none; stroke: #808080; stroke-linecap: square"/>
   </g>
   <g id="line2d_153">
    <path d="M 380.812227 282.971463 
L 375.805258 270.19842 
" clip-path="url(#pc3f0cd4435)" style="fill: none; stroke-dasharray: 1,1.65; stroke-dashoffset: 0; stroke: #808080"/>
   </g>
   <g id="line2d_154">
    <path d="M 335.380682 274.777788 
L 318.91332 266.496515 
" clip-path="url(#pc3f0cd4435)" style="fill: none; stroke: #808080; stroke-linecap: square"/>
   </g>
   <g id="line2d_155">
    <path d="M 360.037242 291.725038 
L 365.233905 284.846553 
" clip-path="url(#pc3f0cd4435)" style="fill: none; stroke-dasharray: 1,1.65; stroke-dashoffset: 0; stroke: #808080"/>
   </g>
   <g id="line2d_156">
    <path d="M 314.104432 311.079332 
L 307.788675 308.99113 
" clip-path="url(#pc3f0cd4435)" style="fill: none; stroke: #808080; stroke-linecap: square"/>
   </g>
   <g id="line2d_157">
    <path d="M 360.037242 291.725038 
L 355.003816 278.893428 
" clip-path="url(#pc3f0cd4435)" style="fill: none; stroke-dasharray: 1,1.65; stroke-dashoffset: 0; stroke: #808080"/>
   </g>
   <g id="line2d_158">
    <path d="M 314.104432 311.079332 
L 297.61155 302.883833 
" clip-path="url(#pc3f0cd4435)" style="fill: none; stroke: #808080; stroke-linecap: square"/>
   </g>
   <g id="line2d_159">
    <path d="M 339.06674 300.560994 
L 344.217627 293.679659 
" clip-path="url(#pc3f0cd4435)" style="fill: none; stroke-dasharray: 1,1.65; stroke-dashoffset: 0; stroke: #808080"/>
   </g>
   <g id="line2d_160">
    <path d="M 292.807463 347.384002 
L 286.336343 345.523556 
" clip-path="url(#pc3f0cd4435)" style="fill: none; stroke: #808080; stroke-linecap: square"/>
   </g>
   <g id="line2d_161">
    <path d="M 339.06674 300.560994 
L 334.00658 287.670278 
" clip-path="url(#pc3f0cd4435)" style="fill: none; stroke-dasharray: 1,1.65; stroke-dashoffset: 0; stroke: #808080"/>
   </g>
   <g id="line2d_162">
    <path d="M 292.807463 347.384002 
L 276.229297 339.299158 
" clip-path="url(#pc3f0cd4435)" style="fill: none; stroke: #808080; stroke-linecap: square"/>
   </g>
   <g id="line2d_163">
    <path d="M 317.897949 309.480499 
L 323.001957 302.596569 
" clip-path="url(#pc3f0cd4435)" style="fill: none; stroke-dasharray: 1,1.65; stroke-dashoffset: 0; stroke: #808080"/>
   </g>
   <g id="line2d_164">
    <path d="M 271.521694 383.725094 
L 264.912966 382.085368 
" clip-path="url(#pc3f0cd4435)" style="fill: none; stroke: #808080; stroke-linecap: square"/>
   </g>
   <g id="line2d_165">
    <path d="M 317.897949 309.480499 
L 312.810773 296.530131 
" clip-path="url(#pc3f0cd4435)" style="fill: none; stroke-dasharray: 1,1.65; stroke-dashoffset: 0; stroke: #808080"/>
   </g>
   <g id="line2d_166">
    <path d="M 271.521694 383.725094 
L 254.876034 375.743853 
" clip-path="url(#pc3f0cd4435)" style="fill: none; stroke: #808080; stroke-linecap: square"/>
   </g>
   <g id="line2d_167">
    <path d="M 360.037242 291.725038 
L 359.964029 301.550669 
" clip-path="url(#pc3f0cd4435)" style="fill: none; stroke-dasharray: 1,1.65; stroke-dashoffset: 0; stroke: #808080"/>
   </g>
   <g id="line2d_168">
    <path d="M 314.104432 311.079332 
L 325.419787 316.182287 
" clip-path="url(#pc3f0cd4435)" style="fill: none; stroke: #808080; stroke-linecap: square"/>
   </g>
   <g id="line2d_169">
    <path d="M 548.504117 391.495717 
L 590.486274 372.043973 
" clip-path="url(#pc3f0cd4435)" style="fill: none; stroke-dasharray: 1,1.65; stroke-dashoffset: 0; stroke: #808080"/>
   </g>
   <g id="line2d_170">
    <path d="M 546.340472 392.497789 
L 588.287719 372.885442 
" clip-path="url(#pc3f0cd4435)" style="fill: none; stroke: #808080; stroke-linecap: square"/>
   </g>
   <g id="line2d_171">
    <path d="M 548.504117 391.495717 
L 569.598944 381.721775 
" clip-path="url(#pc3f0cd4435)" style="fill: none; stroke-dasharray: 1,1.65; stroke-dashoffset: 0; stroke: #808080"/>
   </g>
   <g id="line2d_172">
    <path d="M 546.340472 392.497789 
L 567.417882 382.64309 
" clip-path="url(#pc3f0cd4435)" style="fill: none; stroke: #808080; stroke-linecap: square"/>
   </g>
   <g id="line2d_173">
    <path d="M 548.504117 391.495717 
L 548.504117 391.495717 
" clip-path="url(#pc3f0cd4435)" style="fill: none; stroke-dasharray: 1,1.65; stroke-dashoffset: 0; stroke: #808080"/>
   </g>
   <g id="line2d_174">
    <path d="M 546.340472 392.497789 
L 546.340472 392.497789 
" clip-path="url(#pc3f0cd4435)" style="fill: none; stroke: #808080; stroke-linecap: square"/>
   </g>
   <g id="line2d_175">
    <path d="M 548.504117 391.495717 
L 527.198688 401.367239 
" clip-path="url(#pc3f0cd4435)" style="fill: none; stroke-dasharray: 1,1.65; stroke-dashoffset: 0; stroke: #808080"/>
   </g>
   <g id="line2d_176">
    <path d="M 546.340472 392.497789 
L 525.052376 402.450993 
" clip-path="url(#pc3f0cd4435)" style="fill: none; stroke: #808080; stroke-linecap: square"/>
   </g>
   <g id="line2d_177">
    <path d="M 548.504117 391.495717 
L 505.679485 411.337809 
" clip-path="url(#pc3f0cd4435)" style="fill: none; stroke-dasharray: 1,1.65; stroke-dashoffset: 0; stroke: #808080"/>
   </g>
   <g id="line2d_178">
    <path d="M 546.340472 392.497789 
L 503.55042 412.504187 
" clip-path="url(#pc3f0cd4435)" style="fill: none; stroke: #808080; stroke-linecap: square"/>
   </g>
   <g id="line2d_179">
    <path d="M 191.5084 183.751674 
L 232.265006 168.156035 
" clip-path="url(#pc3f0cd4435)" style="fill: none; stroke-dasharray: 1,1.65; stroke-dashoffset: 0; stroke: #808080"/>
   </g>
   <g id="line2d_180">
    <path d="M 189.41196 184.554256 
L 230.269729 168.89436 
" clip-path="url(#pc3f0cd4435)" style="fill: none; stroke: #808080; stroke-linecap: square"/>
   </g>
   <g id="line2d_181">
    <path d="M 191.5084 183.751674 
L 211.976888 175.919345 
" clip-path="url(#pc3f0cd4435)" style="fill: none; stroke-dasharray: 1,1.65; stroke-dashoffset: 0; stroke: #808080"/>
   </g>
   <g id="line2d_182">
    <path d="M 189.41196 184.554256 
L 209.930923 176.689783 
" clip-path="url(#pc3f0cd4435)" style="fill: none; stroke: #808080; stroke-linecap: square"/>
   </g>
   <g id="line2d_183">
    <path d="M 191.5084 183.751674 
L 191.5084 183.751674 
" clip-path="url(#pc3f0cd4435)" style="fill: none; stroke-dasharray: 1,1.65; stroke-dashoffset: 0; stroke: #808080"/>
   </g>
   <g id="line2d_184">
    <path d="M 189.41196 184.554256 
L 189.41196 184.554256 
" clip-path="url(#pc3f0cd4435)" style="fill: none; stroke: #808080; stroke-linecap: square"/>
   </g>
   <g id="line2d_185">
    <path d="M 191.5084 183.751674 
L 170.857124 191.653948 
" clip-path="url(#pc3f0cd4435)" style="fill: none; stroke-dasharray: 1,1.65; stroke-dashoffset: 0; stroke: #808080"/>
   </g>
   <g id="line2d_186">
    <path d="M 189.41196 184.554256 
L 168.710438 192.488701 
" clip-path="url(#pc3f0cd4435)" style="fill: none; stroke: #808080; stroke-linecap: square"/>
   </g>
   <g id="line2d_187">
    <path d="M 191.5084 183.751674 
L 150.020602 199.627107 
" clip-path="url(#pc3f0cd4435)" style="fill: none; stroke-dasharray: 1,1.65; stroke-dashoffset: 0; stroke: #808080"/>
   </g>
   <g id="line2d_188">
    <path d="M 189.41196 184.554256 
L 147.823908 200.494055 
" clip-path="url(#pc3f0cd4435)" style="fill: none; stroke: #808080; stroke-linecap: square"/>
   </g>
   <g id="text_1">
    <!-- Mode 1 -->
    <g transform="translate(67.68 37.44) scale(0.2 -0.2)">
     <defs>
      <path id="TimesNewRomanPS-BoldMT-4d" d="M 3050 1444 
L 4200 4238 
L 5925 4238 
L 5925 4122 
L 5788 4122 
Q 5600 4122 5488 4056 
Q 5409 4013 5363 3909 
Q 5328 3834 5328 3519 
L 5328 725 
Q 5328 400 5362 319 
Q 5397 238 5503 177 
Q 5609 116 5788 116 
L 5925 116 
L 5925 0 
L 3713 0 
L 3713 116 
L 3850 116 
Q 4038 116 4150 181 
Q 4228 225 4275 331 
Q 4309 406 4309 725 
L 4309 3866 
L 2684 0 
L 2609 0 
L 959 3838 
L 959 853 
Q 959 541 975 469 
Q 1016 313 1152 214 
Q 1288 116 1578 116 
L 1578 0 
L 128 0 
L 128 116 
L 172 116 
Q 313 113 434 161 
Q 556 209 618 290 
Q 681 372 716 519 
Q 722 553 722 838 
L 722 3519 
Q 722 3841 687 3920 
Q 653 4000 547 4061 
Q 441 4122 263 4122 
L 128 4122 
L 128 4238 
L 1859 4238 
L 3050 1444 
z
" transform="scale(0.015625)"/>
      <path id="TimesNewRomanPS-BoldMT-6f" d="M 1594 3009 
Q 1975 3009 2303 2812 
Q 2631 2616 2801 2253 
Q 2972 1891 2972 1459 
Q 2972 838 2656 419 
Q 2275 -88 1603 -88 
Q 944 -88 587 375 
Q 231 838 231 1447 
Q 231 2075 595 2542 
Q 959 3009 1594 3009 
z
M 1606 2788 
Q 1447 2788 1333 2667 
Q 1219 2547 1183 2192 
Q 1147 1838 1147 1206 
Q 1147 872 1191 581 
Q 1225 359 1337 243 
Q 1450 128 1594 128 
Q 1734 128 1828 206 
Q 1950 313 1991 503 
Q 2053 800 2053 1703 
Q 2053 2234 1993 2432 
Q 1934 2631 1819 2722 
Q 1738 2788 1606 2788 
z
" transform="scale(0.015625)"/>
      <path id="TimesNewRomanPS-BoldMT-64" d="M 3056 4238 
L 3056 875 
Q 3056 534 3075 472 
Q 3100 369 3170 319 
Q 3241 269 3416 256 
L 3416 153 
L 2181 -88 
L 2181 375 
Q 1959 106 1786 9 
Q 1613 -88 1394 -88 
Q 834 -88 509 413 
Q 247 819 247 1409 
Q 247 1881 409 2254 
Q 572 2628 855 2818 
Q 1138 3009 1463 3009 
Q 1672 3009 1834 2928 
Q 1997 2847 2181 2644 
L 2181 3525 
Q 2181 3859 2153 3928 
Q 2116 4019 2041 4062 
Q 1966 4106 1759 4106 
L 1759 4238 
L 3056 4238 
z
M 2181 2256 
Q 1950 2700 1616 2700 
Q 1500 2700 1425 2638 
Q 1309 2541 1236 2297 
Q 1163 2053 1163 1550 
Q 1163 997 1244 731 
Q 1325 466 1466 347 
Q 1538 288 1663 288 
Q 1938 288 2181 719 
L 2181 2256 
z
" transform="scale(0.015625)"/>
      <path id="TimesNewRomanPS-BoldMT-65" d="M 2691 1566 
L 1088 1566 
Q 1116 984 1397 647 
Q 1613 388 1916 388 
Q 2103 388 2256 492 
Q 2409 597 2584 869 
L 2691 800 
Q 2453 316 2165 114 
Q 1878 -88 1500 -88 
Q 850 -88 516 413 
Q 247 816 247 1413 
Q 247 2144 642 2576 
Q 1038 3009 1569 3009 
Q 2013 3009 2339 2645 
Q 2666 2281 2691 1566 
z
M 1922 1775 
Q 1922 2278 1867 2465 
Q 1813 2653 1697 2750 
Q 1631 2806 1522 2806 
Q 1359 2806 1256 2647 
Q 1072 2369 1072 1884 
L 1072 1775 
L 1922 1775 
z
" transform="scale(0.015625)"/>
      <path id="TimesNewRomanPS-BoldMT-20" transform="scale(0.015625)"/>
      <path id="TimesNewRomanPS-BoldMT-31" d="M 2084 4325 
L 2084 859 
Q 2084 469 2118 361 
Q 2153 253 2262 184 
Q 2372 116 2613 116 
L 2709 116 
L 2709 0 
L 478 0 
L 478 116 
L 591 116 
Q 863 116 978 178 
Q 1094 241 1134 350 
Q 1175 459 1175 859 
L 1175 3056 
Q 1175 3350 1147 3423 
Q 1119 3497 1042 3548 
Q 966 3600 866 3600 
Q 706 3600 478 3500 
L 422 3613 
L 1981 4325 
L 2084 4325 
z
" transform="scale(0.015625)"/>
     </defs>
     <use xlink:href="#TimesNewRomanPS-BoldMT-4d"/>
     <use xlink:href="#TimesNewRomanPS-BoldMT-6f" x="94.384766"/>
     <use xlink:href="#TimesNewRomanPS-BoldMT-64" x="144.384766"/>
     <use xlink:href="#TimesNewRomanPS-BoldMT-65" x="200"/>
     <use xlink:href="#TimesNewRomanPS-BoldMT-20" x="244.384766"/>
     <use xlink:href="#TimesNewRomanPS-BoldMT-31" x="269.384766"/>
    </g>
   </g>
   <g id="text_2">
    <!-- T = 0.745 s -->
    <g transform="translate(67.68 67.68) scale(0.2 -0.2)">
     <defs>
      <path id="TimesNewRomanPS-BoldMT-54" d="M 4038 4238 
L 4038 3091 
L 3925 3091 
Q 3825 3488 3703 3661 
Q 3581 3834 3369 3938 
Q 3250 3994 2953 3994 
L 2638 3994 
L 2638 725 
Q 2638 400 2673 319 
Q 2709 238 2814 177 
Q 2919 116 3100 116 
L 3241 116 
L 3241 0 
L 1022 0 
L 1022 116 
L 1163 116 
Q 1347 116 1459 181 
Q 1541 225 1588 331 
Q 1622 406 1622 725 
L 1622 3994 
L 1316 3994 
Q 888 3994 694 3813 
Q 422 3559 350 3091 
L 231 3091 
L 231 4238 
L 4038 4238 
z
" transform="scale(0.015625)"/>
      <path id="TimesNewRomanPS-BoldMT-3d" d="M 125 2825 
L 3544 2825 
L 3544 2419 
L 125 2419 
L 125 2825 
z
M 125 1803 
L 3544 1803 
L 3544 1397 
L 125 1397 
L 125 1803 
z
" transform="scale(0.015625)"/>
      <path id="TimesNewRomanPS-BoldMT-30" d="M 2966 2119 
Q 2966 1484 2788 934 
Q 2681 597 2501 381 
Q 2322 166 2094 39 
Q 1866 -88 1597 -88 
Q 1291 -88 1044 68 
Q 797 225 606 516 
Q 469 728 366 1081 
Q 231 1559 231 2069 
Q 231 2759 425 3338 
Q 584 3816 909 4070 
Q 1234 4325 1597 4325 
Q 1966 4325 2286 4073 
Q 2606 3822 2756 3397 
Q 2966 2813 2966 2119 
z
M 2003 2125 
Q 2003 3238 1991 3422 
Q 1959 3856 1841 4009 
Q 1763 4109 1588 4109 
Q 1453 4109 1375 4034 
Q 1259 3925 1218 3648 
Q 1178 3372 1178 1719 
Q 1178 819 1241 513 
Q 1288 291 1375 216 
Q 1463 141 1606 141 
Q 1763 141 1841 241 
Q 1972 416 1991 781 
L 2003 2125 
z
" transform="scale(0.015625)"/>
      <path id="TimesNewRomanPS-BoldMT-2e" d="M 800 963 
Q 1019 963 1170 809 
Q 1322 656 1322 441 
Q 1322 225 1169 73 
Q 1016 -78 800 -78 
Q 584 -78 432 73 
Q 281 225 281 441 
Q 281 656 432 809 
Q 584 963 800 963 
z
" transform="scale(0.015625)"/>
      <path id="TimesNewRomanPS-BoldMT-37" d="M 1134 -88 
L 2288 3409 
L 1409 3409 
Q 894 3409 634 3275 
Q 453 3181 334 2922 
L 216 2922 
L 522 4238 
L 3047 4238 
L 1625 -88 
L 1134 -88 
z
" transform="scale(0.015625)"/>
      <path id="TimesNewRomanPS-BoldMT-34" d="M 159 1597 
L 2172 4325 
L 2553 4325 
L 2553 1597 
L 2941 1597 
L 2941 950 
L 2553 950 
L 2553 0 
L 1694 0 
L 1694 950 
L 159 950 
L 159 1597 
z
M 463 1597 
L 1694 1597 
L 1694 3269 
L 463 1597 
z
" transform="scale(0.015625)"/>
      <path id="TimesNewRomanPS-BoldMT-35" d="M 975 4238 
L 2959 4238 
L 2644 3431 
L 975 3431 
L 816 3009 
Q 1894 2969 2475 2472 
Q 2953 2063 2953 1453 
Q 2953 1063 2731 689 
Q 2509 316 2106 114 
Q 1703 -88 1222 -88 
Q 703 -88 425 106 
Q 231 244 231 419 
Q 231 553 332 656 
Q 434 759 569 759 
Q 691 759 816 709 
Q 941 659 1244 447 
Q 1434 316 1572 266 
Q 1669 228 1791 228 
Q 2047 228 2226 415 
Q 2406 603 2406 866 
Q 2406 1416 1856 1759 
Q 1306 2103 469 2103 
Q 384 2103 216 2100 
L 975 4238 
z
" transform="scale(0.015625)"/>
      <path id="TimesNewRomanPS-BoldMT-73" d="M 2063 3003 
L 2109 2006 
L 2003 2006 
Q 1813 2450 1608 2612 
Q 1403 2775 1200 2775 
Q 1072 2775 981 2689 
Q 891 2603 891 2491 
Q 891 2406 953 2328 
Q 1053 2200 1512 1889 
Q 1972 1578 2117 1361 
Q 2263 1144 2263 875 
Q 2263 631 2141 397 
Q 2019 163 1797 37 
Q 1575 -88 1306 -88 
Q 1097 -88 747 44 
Q 653 78 619 78 
Q 516 78 447 -78 
L 344 -78 
L 294 972 
L 400 972 
Q 541 559 786 353 
Q 1031 147 1250 147 
Q 1400 147 1495 239 
Q 1591 331 1591 463 
Q 1591 613 1497 722 
Q 1403 831 1078 1053 
Q 600 1384 459 1559 
Q 253 1816 253 2125 
Q 253 2463 486 2736 
Q 719 3009 1159 3009 
Q 1397 3009 1619 2894 
Q 1703 2847 1756 2847 
Q 1813 2847 1847 2870 
Q 1881 2894 1956 3003 
L 2063 3003 
z
" transform="scale(0.015625)"/>
     </defs>
     <use xlink:href="#TimesNewRomanPS-BoldMT-54"/>
     <use xlink:href="#TimesNewRomanPS-BoldMT-20" x="64.949219"/>
     <use xlink:href="#TimesNewRomanPS-BoldMT-3d" x="89.949219"/>
     <use xlink:href="#TimesNewRomanPS-BoldMT-20" x="146.931641"/>
     <use xlink:href="#TimesNewRomanPS-BoldMT-30" x="171.931641"/>
     <use xlink:href="#TimesNewRomanPS-BoldMT-2e" x="221.931641"/>
     <use xlink:href="#TimesNewRomanPS-BoldMT-37" x="246.931641"/>
     <use xlink:href="#TimesNewRomanPS-BoldMT-34" x="296.931641"/>
     <use xlink:href="#TimesNewRomanPS-BoldMT-35" x="346.931641"/>
     <use xlink:href="#TimesNewRomanPS-BoldMT-20" x="396.931641"/>
     <use xlink:href="#TimesNewRomanPS-BoldMT-73" x="421.931641"/>
    </g>
   </g>
  </g>
 </g>
 <defs>
  <clipPath id="pc3f0cd4435">
   <rect x="7.2" y="7.2" width="604.8" height="604.8"/>
  </clipPath>
 </defs>
</svg>
