<?xml version="1.0" encoding="utf-8" standalone="no"?>
<!DOCTYPE svg PUBLIC "-//W3C//DTD SVG 1.1//EN"
  "http://www.w3.org/Graphics/SVG/1.1/DTD/svg11.dtd">
<svg xmlns:xlink="http://www.w3.org/1999/xlink" width="619.2pt" height="619.2pt" viewBox="0 0 619.2 619.2" xmlns="http://www.w3.org/2000/svg" version="1.1">
 <metadata>
  <rdf:RDF xmlns:dc="http://purl.org/dc/elements/1.1/" xmlns:cc="http://creativecommons.org/ns#" xmlns:rdf="http://www.w3.org/1999/02/22-rdf-syntax-ns#">
   <cc:Work>
    <dc:type rdf:resource="http://purl.org/dc/dcmitype/StillImage"/>
    <dc:date>2023-03-31T19:06:57.650955</dc:date>
    <dc:format>image/svg+xml</dc:format>
    <dc:creator>
     <cc:Agent>
      <dc:title>Matplotlib v3.7.1, https://matplotlib.org/</dc:title>
     </cc:Agent>
    </dc:creator>
   </cc:Work>
  </rdf:RDF>
 </metadata>
 <defs>
  <style type="text/css">*{stroke-linejoin: round; stroke-linecap: butt}</style>
 </defs>
 <g id="figure_1">
  <g id="patch_1">
   <path d="M 0 619.2 
L 619.2 619.2 
L 619.2 0 
L 0 0 
z
" style="fill: #ffffff"/>
  </g>
  <g id="patch_2">
   <path d="M 7.2 612 
L 612 612 
L 612 7.2 
L 7.2 7.2 
z
" style="fill: #ffffff"/>
  </g>
  <g id="axes_1">
   <g id="line2d_1">
    <path d="M 319.813255 346.581775 
L 319.832919 292.442619 
" clip-path="url(#p4346036e04)" style="fill: none; stroke-dasharray: 1,1.65; stroke-dashoffset: 0; stroke: #000000"/>
   </g>
   <g id="line2d_2">
    <path d="M 319.813255 346.581775 
L 303.386413 282.694042 
" clip-path="url(#p4346036e04)" style="fill: none; stroke: #000000; stroke-linecap: square"/>
   </g>
   <g id="line2d_3">
    <path d="M 509.833706 383.723873 
L 509.833706 383.723873 
" clip-path="url(#p4346036e04)" style="fill: none; stroke-dasharray: 1,1.65; stroke-dashoffset: 0; stroke: #008000"/>
   </g>
   <g id="line2d_4">
    <path d="M 509.833706 383.723873 
L 505.183988 380.994679 
" clip-path="url(#p4346036e04)" style="fill: none; stroke: #008000; stroke-linecap: square"/>
   </g>
   <g id="line2d_5">
    <path d="M 373.293814 243.409235 
L 372.857318 243.161475 
" clip-path="url(#p4346036e04)" style="fill: none; stroke-dasharray: 1,1.65; stroke-dashoffset: 0; stroke: #0000ff"/>
   </g>
   <g id="line2d_6">
    <path d="M 340.772798 217.875802 
L 340.2854 231.737569 
" clip-path="url(#p4346036e04)" style="fill: none; stroke: #0000ff; stroke-linecap: square"/>
   </g>
   <g id="line2d_7">
    <path d="M 553.089763 363.939905 
L 553.097724 363.750454 
" clip-path="url(#p4346036e04)" style="fill: none; stroke-dasharray: 1,1.65; stroke-dashoffset: 0; stroke: #ff0000"/>
   </g>
   <g id="line2d_8">
    <path d="M 548.427463 361.26517 
L 516.748622 342.902188 
" clip-path="url(#p4346036e04)" style="fill: none; stroke: #ff0000; stroke-linecap: square"/>
   </g>
   <g id="line2d_9">
    <path d="M 366.607936 262.969647 
L 362.396236 264.719658 
" clip-path="url(#p4346036e04)" style="fill: none; stroke-dasharray: 1,1.65; stroke-dashoffset: 0; stroke: #000000"/>
   </g>
   <g id="line2d_10">
    <path d="M 344.998724 250.546428 
L 340.814325 252.284022 
" clip-path="url(#p4346036e04)" style="fill: none; stroke: #000000; stroke-linecap: square"/>
   </g>
   <g id="line2d_11">
    <path d="M 553.089763 363.939905 
L 553.097724 363.750454 
" clip-path="url(#p4346036e04)" style="fill: none; stroke: #ff0000; stroke-linecap: square"/>
   </g>
   <g id="line2d_12">
    <path d="M 548.427463 361.26517 
L 516.748622 342.902188 
" clip-path="url(#p4346036e04)" style="fill: none; stroke: #ff0000; stroke-linecap: square"/>
   </g>
   <g id="line2d_13">
    <path d="M 150.185665 172.859381 
L 150.185665 172.859381 
" clip-path="url(#p4346036e04)" style="fill: none; stroke-dasharray: 1,1.65; stroke-dashoffset: 0; stroke: #008000"/>
   </g>
   <g id="line2d_14">
    <path d="M 150.185665 172.859381 
L 146.480514 170.688712 
" clip-path="url(#p4346036e04)" style="fill: none; stroke: #008000; stroke-linecap: square"/>
   </g>
   <g id="line2d_15">
    <path d="M 265.535242 287.777194 
L 265.103109 287.517271 
" clip-path="url(#p4346036e04)" style="fill: none; stroke-dasharray: 1,1.65; stroke-dashoffset: 0; stroke: #0000ff"/>
   </g>
   <g id="line2d_16">
    <path d="M 233.211658 261.22337 
L 232.994241 275.301371 
" clip-path="url(#p4346036e04)" style="fill: none; stroke: #0000ff; stroke-linecap: square"/>
   </g>
   <g id="line2d_17">
    <path d="M 531.570897 373.781961 
L 531.578166 373.591889 
" clip-path="url(#p4346036e04)" style="fill: none; stroke-dasharray: 1,1.65; stroke-dashoffset: 0; stroke: #ff0000"/>
   </g>
   <g id="line2d_18">
    <path d="M 526.914706 371.080203 
L 495.278173 352.533758 
" clip-path="url(#p4346036e04)" style="fill: none; stroke: #ff0000; stroke-linecap: square"/>
   </g>
   <g id="line2d_19">
    <path d="M 362.396236 264.719658 
L 341.217582 273.51964 
" clip-path="url(#p4346036e04)" style="fill: none; stroke-dasharray: 1,1.65; stroke-dashoffset: 0; stroke: #000000"/>
   </g>
   <g id="line2d_20">
    <path d="M 340.814325 252.284022 
L 319.766712 261.01788 
" clip-path="url(#p4346036e04)" style="fill: none; stroke: #000000; stroke-linecap: square"/>
   </g>
   <g id="line2d_21">
    <path d="M 465.690924 403.913401 
L 465.696031 403.721446 
" clip-path="url(#p4346036e04)" style="fill: none; stroke: #ff0000; stroke-linecap: square"/>
   </g>
   <g id="line2d_22">
    <path d="M 461.055285 401.128066 
L 429.56079 382.01435 
" clip-path="url(#p4346036e04)" style="fill: none; stroke: #ff0000; stroke-linecap: square"/>
   </g>
   <g id="line2d_23">
    <path d="M 509.833706 383.723873 
L 509.840269 383.533176 
" clip-path="url(#p4346036e04)" style="fill: none; stroke-dasharray: 1,1.65; stroke-dashoffset: 0; stroke: #ff0000"/>
   </g>
   <g id="line2d_24">
    <path d="M 505.183988 380.994679 
L 473.592236 362.261995 
" clip-path="url(#p4346036e04)" style="fill: none; stroke: #ff0000; stroke-linecap: square"/>
   </g>
   <g id="line2d_25">
    <path d="M 341.217582 273.51964 
L 319.836565 282.403707 
" clip-path="url(#p4346036e04)" style="fill: none; stroke-dasharray: 1,1.65; stroke-dashoffset: 0; stroke: #000000"/>
   </g>
   <g id="line2d_26">
    <path d="M 319.766712 261.01788 
L 298.474182 269.809188 
" clip-path="url(#p4346036e04)" style="fill: none; stroke: #000000; stroke-linecap: square"/>
   </g>
   <g id="line2d_27">
    <path d="M 367.655141 257.678255 
L 367.656737 257.49573 
" clip-path="url(#p4346036e04)" style="fill: none; stroke: #ff0000; stroke-linecap: square"/>
   </g>
   <g id="line2d_28">
    <path d="M 341.188299 235.343805 
L 335.124962 231.728911 
" clip-path="url(#p4346036e04)" style="fill: none; stroke: #ff0000; stroke-linecap: square"/>
   </g>
   <g id="line2d_29">
    <path d="M 487.874851 393.767166 
L 487.880694 393.575842 
" clip-path="url(#p4346036e04)" style="fill: none; stroke-dasharray: 1,1.65; stroke-dashoffset: 0; stroke: #ff0000"/>
   </g>
   <g id="line2d_30">
    <path d="M 483.23198 391.010117 
L 451.68755 372.088362 
" clip-path="url(#p4346036e04)" style="fill: none; stroke: #ff0000; stroke-linecap: square"/>
   </g>
   <g id="line2d_31">
    <path d="M 319.836565 282.403707 
L 298.250272 291.373068 
" clip-path="url(#p4346036e04)" style="fill: none; stroke-dasharray: 1,1.65; stroke-dashoffset: 0; stroke: #000000"/>
   </g>
   <g id="line2d_32">
    <path d="M 298.474182 269.809188 
L 276.888728 278.631313 
" clip-path="url(#p4346036e04)" style="fill: none; stroke: #000000; stroke-linecap: square"/>
   </g>
   <g id="line2d_33">
    <path d="M 281.52105 293.373972 
L 281.519868 293.189076 
" clip-path="url(#p4346036e04)" style="fill: none; stroke: #ff0000; stroke-linecap: square"/>
   </g>
   <g id="line2d_34">
    <path d="M 255.049302 270.403097 
L 249.143304 266.601978 
" clip-path="url(#p4346036e04)" style="fill: none; stroke: #ff0000; stroke-linecap: square"/>
   </g>
   <g id="line2d_35">
    <path d="M 465.690924 403.913401 
L 465.696031 403.721446 
" clip-path="url(#p4346036e04)" style="fill: none; stroke-dasharray: 1,1.65; stroke-dashoffset: 0; stroke: #ff0000"/>
   </g>
   <g id="line2d_36">
    <path d="M 461.055285 401.128066 
L 429.56079 382.01435 
" clip-path="url(#p4346036e04)" style="fill: none; stroke: #ff0000; stroke-linecap: square"/>
   </g>
   <g id="line2d_37">
    <path d="M 298.250272 291.373068 
L 276.455731 300.428958 
" clip-path="url(#p4346036e04)" style="fill: none; stroke-dasharray: 1,1.65; stroke-dashoffset: 0; stroke: #000000"/>
   </g>
   <g id="line2d_38">
    <path d="M 276.888728 278.631313 
L 255.053287 287.511307 
" clip-path="url(#p4346036e04)" style="fill: none; stroke: #000000; stroke-linecap: square"/>
   </g>
   <g id="line2d_39">
    <path d="M 357.310742 251.75049 
L 357.312003 251.568363 
" clip-path="url(#p4346036e04)" style="fill: none; stroke: #ff0000; stroke-linecap: square"/>
   </g>
   <g id="line2d_40">
    <path d="M 330.853386 243.715071 
L 324.954143 240.121951 
" clip-path="url(#p4346036e04)" style="fill: none; stroke: #ff0000; stroke-linecap: square"/>
   </g>
   <g id="line2d_41">
    <path d="M 367.655141 257.678255 
L 367.656737 257.49573 
" clip-path="url(#p4346036e04)" style="fill: none; stroke-dasharray: 1,1.65; stroke-dashoffset: 0; stroke: #ff0000"/>
   </g>
   <g id="line2d_42">
    <path d="M 341.188299 235.343805 
L 335.124962 231.728911 
" clip-path="url(#p4346036e04)" style="fill: none; stroke: #ff0000; stroke-linecap: square"/>
   </g>
   <g id="line2d_43">
    <path d="M 276.455731 300.428958 
L 272.071568 302.25063 
" clip-path="url(#p4346036e04)" style="fill: none; stroke-dasharray: 1,1.65; stroke-dashoffset: 0; stroke: #000000"/>
   </g>
   <g id="line2d_44">
    <path d="M 255.053287 287.511307 
L 250.659967 289.296711 
" clip-path="url(#p4346036e04)" style="fill: none; stroke: #000000; stroke-linecap: square"/>
   </g>
   <g id="line2d_45">
    <path d="M 271.259307 287.214837 
L 271.257796 287.030347 
" clip-path="url(#p4346036e04)" style="fill: none; stroke: #ff0000; stroke-linecap: square"/>
   </g>
   <g id="line2d_46">
    <path d="M 245.246397 278.637448 
L 239.270939 274.95339 
" clip-path="url(#p4346036e04)" style="fill: none; stroke: #ff0000; stroke-linecap: square"/>
   </g>
   <g id="line2d_47">
    <path d="M 346.429821 266.474459 
L 346.430742 266.291345 
" clip-path="url(#p4346036e04)" style="fill: none; stroke-dasharray: 1,1.65; stroke-dashoffset: 0; stroke: #ff0000"/>
   </g>
   <g id="line2d_48">
    <path d="M 320.050985 243.996208 
L 313.934467 240.323506 
" clip-path="url(#p4346036e04)" style="fill: none; stroke: #ff0000; stroke-linecap: square"/>
   </g>
   <g id="line2d_49">
    <path d="M 192.08173 157.067485 
L 192.077929 156.891877 
" clip-path="url(#p4346036e04)" style="fill: none; stroke: #ff0000; stroke-linecap: square"/>
   </g>
   <g id="line2d_50">
    <path d="M 188.358478 154.935665 
L 163.015851 140.253959 
" clip-path="url(#p4346036e04)" style="fill: none; stroke: #ff0000; stroke-linecap: square"/>
   </g>
   <g id="line2d_51">
    <path d="M 325.001003 275.354996 
L 325.001236 275.171292 
" clip-path="url(#p4346036e04)" style="fill: none; stroke-dasharray: 1,1.65; stroke-dashoffset: 0; stroke: #ff0000"/>
   </g>
   <g id="line2d_52">
    <path d="M 298.611862 252.679258 
L 292.542624 248.999766 
" clip-path="url(#p4346036e04)" style="fill: none; stroke: #ff0000; stroke-linecap: square"/>
   </g>
   <g id="line2d_53">
    <path d="M 107.523535 188.94003 
L 107.51706 188.762193 
" clip-path="url(#p4346036e04)" style="fill: none; stroke: #ff0000; stroke-linecap: square"/>
   </g>
   <g id="line2d_54">
    <path d="M 103.837772 186.729442 
L 78.749178 171.511022 
" clip-path="url(#p4346036e04)" style="fill: none; stroke: #ff0000; stroke-linecap: square"/>
   </g>
   <g id="line2d_55">
    <path d="M 303.365745 284.321087 
L 303.365277 284.136788 
" clip-path="url(#p4346036e04)" style="fill: none; stroke-dasharray: 1,1.65; stroke-dashoffset: 0; stroke: #ff0000"/>
   </g>
   <g id="line2d_56">
    <path d="M 276.948644 261.539674 
L 270.946549 257.758859 
" clip-path="url(#p4346036e04)" style="fill: none; stroke: #ff0000; stroke-linecap: square"/>
   </g>
   <g id="line2d_57">
    <path d="M 281.52105 293.373972 
L 281.519868 293.189076 
" clip-path="url(#p4346036e04)" style="fill: none; stroke-dasharray: 1,1.65; stroke-dashoffset: 0; stroke: #ff0000"/>
   </g>
   <g id="line2d_58">
    <path d="M 255.049302 270.403097 
L 249.143304 266.601978 
" clip-path="url(#p4346036e04)" style="fill: none; stroke: #ff0000; stroke-linecap: square"/>
   </g>
   <g id="line2d_59">
    <path d="M 515.895438 379.706737 
L 474.816162 355.714042 
" clip-path="url(#p4346036e04)" style="fill: none; stroke-dasharray: 1,1.65; stroke-dashoffset: 0; stroke: #000000"/>
   </g>
   <g id="line2d_60">
    <path d="M 479.562915 358.658395 
L 439.326385 333.310096 
" clip-path="url(#p4346036e04)" style="fill: none; stroke: #000000; stroke-linecap: square"/>
   </g>
   <g id="line2d_61">
    <path d="M 357.310742 251.75049 
L 357.312003 251.568363 
" clip-path="url(#p4346036e04)" style="fill: none; stroke-dasharray: 1,1.65; stroke-dashoffset: 0; stroke: #ff0000"/>
   </g>
   <g id="line2d_62">
    <path d="M 330.853386 243.715071 
L 324.954143 240.121951 
" clip-path="url(#p4346036e04)" style="fill: none; stroke: #ff0000; stroke-linecap: square"/>
   </g>
   <g id="line2d_63">
    <path d="M 474.816162 355.714042 
L 434.727571 332.299964 
" clip-path="url(#p4346036e04)" style="fill: none; stroke-dasharray: 1,1.65; stroke-dashoffset: 0; stroke: #000000"/>
   </g>
   <g id="line2d_64">
    <path d="M 439.326385 333.310096 
L 400.053535 308.119049 
" clip-path="url(#p4346036e04)" style="fill: none; stroke: #000000; stroke-linecap: square"/>
   </g>
   <g id="line2d_65">
    <path d="M 336.104796 260.490089 
L 336.105383 260.307375 
" clip-path="url(#p4346036e04)" style="fill: none; stroke-dasharray: 1,1.65; stroke-dashoffset: 0; stroke: #ff0000"/>
   </g>
   <g id="line2d_66">
    <path d="M 309.809091 252.394818 
L 303.835469 248.706992 
" clip-path="url(#p4346036e04)" style="fill: none; stroke: #ff0000; stroke-linecap: square"/>
   </g>
   <g id="line2d_67">
    <path d="M 434.727571 332.299964 
L 395.594255 309.443822 
" clip-path="url(#p4346036e04)" style="fill: none; stroke-dasharray: 1,1.65; stroke-dashoffset: 0; stroke: #000000"/>
   </g>
   <g id="line2d_68">
    <path d="M 400.053535 308.119049 
L 361.696145 283.759995 
" clip-path="url(#p4346036e04)" style="fill: none; stroke: #000000; stroke-linecap: square"/>
   </g>
   <g id="line2d_69">
    <path d="M 314.696197 269.313207 
L 314.696098 269.129904 
" clip-path="url(#p4346036e04)" style="fill: none; stroke-dasharray: 1,1.65; stroke-dashoffset: 0; stroke: #ff0000"/>
   </g>
   <g id="line2d_70">
    <path d="M 288.536897 261.134386 
L 282.51728 257.373138 
" clip-path="url(#p4346036e04)" style="fill: none; stroke: #ff0000; stroke-linecap: square"/>
   </g>
   <g id="line2d_71">
    <path d="M 395.594255 309.443822 
L 357.382469 287.125909 
" clip-path="url(#p4346036e04)" style="fill: none; stroke-dasharray: 1,1.65; stroke-dashoffset: 0; stroke: #000000"/>
   </g>
   <g id="line2d_72">
    <path d="M 361.696145 283.759995 
L 324.226656 260.732875 
" clip-path="url(#p4346036e04)" style="fill: none; stroke: #000000; stroke-linecap: square"/>
   </g>
   <g id="line2d_73">
    <path d="M 293.082026 278.221048 
L 293.081227 278.037153 
" clip-path="url(#p4346036e04)" style="fill: none; stroke-dasharray: 1,1.65; stroke-dashoffset: 0; stroke: #ff0000"/>
   </g>
   <g id="line2d_74">
    <path d="M 267.043533 269.841425 
L 260.996735 266.121545 
" clip-path="url(#p4346036e04)" style="fill: none; stroke: #ff0000; stroke-linecap: square"/>
   </g>
   <g id="line2d_75">
    <path d="M 357.382469 287.125909 
L 320.060043 265.327433 
" clip-path="url(#p4346036e04)" style="fill: none; stroke-dasharray: 1,1.65; stroke-dashoffset: 0; stroke: #000000"/>
   </g>
   <g id="line2d_76">
    <path d="M 324.226656 260.732875 
L 287.630769 239.292251 
" clip-path="url(#p4346036e04)" style="fill: none; stroke: #000000; stroke-linecap: square"/>
   </g>
   <g id="line2d_77">
    <path d="M 271.259307 287.214837 
L 271.257796 287.030347 
" clip-path="url(#p4346036e04)" style="fill: none; stroke-dasharray: 1,1.65; stroke-dashoffset: 0; stroke: #ff0000"/>
   </g>
   <g id="line2d_78">
    <path d="M 245.246397 278.637448 
L 239.270939 274.95339 
" clip-path="url(#p4346036e04)" style="fill: none; stroke: #ff0000; stroke-linecap: square"/>
   </g>
   <g id="line2d_79">
    <path d="M 192.08173 157.067485 
L 192.077929 156.891877 
" clip-path="url(#p4346036e04)" style="fill: none; stroke-dasharray: 1,1.65; stroke-dashoffset: 0; stroke: #ff0000"/>
   </g>
   <g id="line2d_80">
    <path d="M 188.358478 154.935665 
L 163.015851 140.253959 
" clip-path="url(#p4346036e04)" style="fill: none; stroke: #ff0000; stroke-linecap: square"/>
   </g>
   <g id="line2d_81">
    <path d="M 171.22816 164.927827 
L 171.223709 164.751666 
" clip-path="url(#p4346036e04)" style="fill: none; stroke-dasharray: 1,1.65; stroke-dashoffset: 0; stroke: #ff0000"/>
   </g>
   <g id="line2d_82">
    <path d="M 167.513801 162.776714 
L 142.231433 147.96353 
" clip-path="url(#p4346036e04)" style="fill: none; stroke: #ff0000; stroke-linecap: square"/>
   </g>
   <g id="line2d_83">
    <path d="M 150.185665 172.859381 
L 150.180551 172.682664 
" clip-path="url(#p4346036e04)" style="fill: none; stroke-dasharray: 1,1.65; stroke-dashoffset: 0; stroke: #ff0000"/>
   </g>
   <g id="line2d_84">
    <path d="M 146.480514 170.688712 
L 121.260536 155.742271 
" clip-path="url(#p4346036e04)" style="fill: none; stroke: #ff0000; stroke-linecap: square"/>
   </g>
   <g id="line2d_85">
    <path d="M 128.951665 180.863118 
L 128.945877 180.685843 
" clip-path="url(#p4346036e04)" style="fill: none; stroke-dasharray: 1,1.65; stroke-dashoffset: 0; stroke: #ff0000"/>
   </g>
   <g id="line2d_86">
    <path d="M 125.256043 178.672626 
L 100.10064 163.591117 
" clip-path="url(#p4346036e04)" style="fill: none; stroke: #ff0000; stroke-linecap: square"/>
   </g>
   <g id="line2d_87">
    <path d="M 107.523535 188.94003 
L 107.51706 188.762193 
" clip-path="url(#p4346036e04)" style="fill: none; stroke-dasharray: 1,1.65; stroke-dashoffset: 0; stroke: #ff0000"/>
   </g>
   <g id="line2d_88">
    <path d="M 103.837772 186.729442 
L 78.749178 171.511022 
" clip-path="url(#p4346036e04)" style="fill: none; stroke: #ff0000; stroke-linecap: square"/>
   </g>
   <g id="line2d_89">
    <path d="M 319.625614 265.073701 
L 283.171792 243.782541 
" clip-path="url(#p4346036e04)" style="fill: none; stroke-dasharray: 1,1.65; stroke-dashoffset: 0; stroke: #000000"/>
   </g>
   <g id="line2d_90">
    <path d="M 287.275071 253.261537 
L 251.596166 232.193584 
" clip-path="url(#p4346036e04)" style="fill: none; stroke: #000000; stroke-linecap: square"/>
   </g>
   <g id="line2d_91">
    <path d="M 283.171792 243.782541 
L 247.547004 222.975585 
" clip-path="url(#p4346036e04)" style="fill: none; stroke-dasharray: 1,1.65; stroke-dashoffset: 0; stroke: #000000"/>
   </g>
   <g id="line2d_92">
    <path d="M 251.596166 232.193584 
L 216.718106 210.577818 
" clip-path="url(#p4346036e04)" style="fill: none; stroke: #000000; stroke-linecap: square"/>
   </g>
   <g id="line2d_93">
    <path d="M 247.547004 222.975585 
L 212.723287 202.636501 
" clip-path="url(#p4346036e04)" style="fill: none; stroke-dasharray: 1,1.65; stroke-dashoffset: 0; stroke: #000000"/>
   </g>
   <g id="line2d_94">
    <path d="M 216.718106 210.577818 
L 182.602111 188.703194 
" clip-path="url(#p4346036e04)" style="fill: none; stroke: #000000; stroke-linecap: square"/>
   </g>
   <g id="line2d_95">
    <path d="M 212.723287 202.636501 
L 178.673923 182.749685 
" clip-path="url(#p4346036e04)" style="fill: none; stroke-dasharray: 1,1.65; stroke-dashoffset: 0; stroke: #000000"/>
   </g>
   <g id="line2d_96">
    <path d="M 182.602111 188.703194 
L 149.224733 167.073335 
" clip-path="url(#p4346036e04)" style="fill: none; stroke: #000000; stroke-linecap: square"/>
   </g>
   <g id="line2d_97">
    <path d="M 178.673923 182.749685 
L 145.373367 163.300216 
" clip-path="url(#p4346036e04)" style="fill: none; stroke-dasharray: 1,1.65; stroke-dashoffset: 0; stroke: #000000"/>
   </g>
   <g id="line2d_98">
    <path d="M 149.224733 167.073335 
L 116.580582 146.325525 
" clip-path="url(#p4346036e04)" style="fill: none; stroke: #000000; stroke-linecap: square"/>
   </g>
   <g id="line2d_99">
    <path d="M 320.060043 265.327433 
L 373.293814 243.409235 
" clip-path="url(#p4346036e04)" style="fill: none; stroke-dasharray: 1,1.65; stroke-dashoffset: 0; stroke: #808080"/>
   </g>
   <g id="line2d_100">
    <path d="M 287.630769 239.292251 
L 340.772798 217.875802 
" clip-path="url(#p4346036e04)" style="fill: none; stroke: #808080; stroke-linecap: square"/>
   </g>
   <g id="line2d_101">
    <path d="M 320.060043 265.327433 
L 265.535242 287.777194 
" clip-path="url(#p4346036e04)" style="fill: none; stroke-dasharray: 1,1.65; stroke-dashoffset: 0; stroke: #808080"/>
   </g>
   <g id="line2d_102">
    <path d="M 287.630769 239.292251 
L 233.211658 261.22337 
" clip-path="url(#p4346036e04)" style="fill: none; stroke: #808080; stroke-linecap: square"/>
   </g>
   <g id="line2d_103">
    <path d="M 319.625614 265.073701 
L 372.857318 243.161475 
" clip-path="url(#p4346036e04)" style="fill: none; stroke-dasharray: 1,1.65; stroke-dashoffset: 0; stroke: #808080"/>
   </g>
   <g id="line2d_104">
    <path d="M 287.275071 253.261537 
L 340.2854 231.737569 
" clip-path="url(#p4346036e04)" style="fill: none; stroke: #808080; stroke-linecap: square"/>
   </g>
   <g id="line2d_105">
    <path d="M 319.625614 265.073701 
L 265.103109 287.517271 
" clip-path="url(#p4346036e04)" style="fill: none; stroke-dasharray: 1,1.65; stroke-dashoffset: 0; stroke: #808080"/>
   </g>
   <g id="line2d_106">
    <path d="M 287.275071 253.261537 
L 232.994241 275.301371 
" clip-path="url(#p4346036e04)" style="fill: none; stroke: #808080; stroke-linecap: square"/>
   </g>
   <g id="line2d_107">
    <path d="M 515.895438 379.706737 
L 553.097724 363.750454 
" clip-path="url(#p4346036e04)" style="fill: none; stroke-dasharray: 1,1.65; stroke-dashoffset: 0; stroke: #808080"/>
   </g>
   <g id="line2d_108">
    <path d="M 479.562915 358.658395 
L 516.748622 342.902188 
" clip-path="url(#p4346036e04)" style="fill: none; stroke: #808080; stroke-linecap: square"/>
   </g>
   <g id="line2d_109">
    <path d="M 515.895438 379.706737 
L 531.578166 373.591889 
" clip-path="url(#p4346036e04)" style="fill: none; stroke-dasharray: 1,1.65; stroke-dashoffset: 0; stroke: #808080"/>
   </g>
   <g id="line2d_110">
    <path d="M 479.562915 358.658395 
L 495.278173 352.533758 
" clip-path="url(#p4346036e04)" style="fill: none; stroke: #808080; stroke-linecap: square"/>
   </g>
   <g id="line2d_111">
    <path d="M 515.895438 379.706737 
L 509.840269 383.533176 
" clip-path="url(#p4346036e04)" style="fill: none; stroke-dasharray: 1,1.65; stroke-dashoffset: 0; stroke: #808080"/>
   </g>
   <g id="line2d_112">
    <path d="M 479.562915 358.658395 
L 473.592236 362.261995 
" clip-path="url(#p4346036e04)" style="fill: none; stroke: #808080; stroke-linecap: square"/>
   </g>
   <g id="line2d_113">
    <path d="M 515.895438 379.706737 
L 487.880694 393.575842 
" clip-path="url(#p4346036e04)" style="fill: none; stroke-dasharray: 1,1.65; stroke-dashoffset: 0; stroke: #808080"/>
   </g>
   <g id="line2d_114">
    <path d="M 479.562915 358.658395 
L 451.68755 372.088362 
" clip-path="url(#p4346036e04)" style="fill: none; stroke: #808080; stroke-linecap: square"/>
   </g>
   <g id="line2d_115">
    <path d="M 515.895438 379.706737 
L 465.696031 403.721446 
" clip-path="url(#p4346036e04)" style="fill: none; stroke-dasharray: 1,1.65; stroke-dashoffset: 0; stroke: #808080"/>
   </g>
   <g id="line2d_116">
    <path d="M 479.562915 358.658395 
L 429.56079 382.01435 
" clip-path="url(#p4346036e04)" style="fill: none; stroke: #808080; stroke-linecap: square"/>
   </g>
   <g id="line2d_117">
    <path d="M 320.060043 265.327433 
L 367.656737 257.49573 
" clip-path="url(#p4346036e04)" style="fill: none; stroke-dasharray: 1,1.65; stroke-dashoffset: 0; stroke: #808080"/>
   </g>
   <g id="line2d_118">
    <path d="M 287.630769 239.292251 
L 335.124962 231.728911 
" clip-path="url(#p4346036e04)" style="fill: none; stroke: #808080; stroke-linecap: square"/>
   </g>
   <g id="line2d_119">
    <path d="M 320.060043 265.327433 
L 346.430742 266.291345 
" clip-path="url(#p4346036e04)" style="fill: none; stroke-dasharray: 1,1.65; stroke-dashoffset: 0; stroke: #808080"/>
   </g>
   <g id="line2d_120">
    <path d="M 287.630769 239.292251 
L 313.934467 240.323506 
" clip-path="url(#p4346036e04)" style="fill: none; stroke: #808080; stroke-linecap: square"/>
   </g>
   <g id="line2d_121">
    <path d="M 320.060043 265.327433 
L 325.001236 275.171292 
" clip-path="url(#p4346036e04)" style="fill: none; stroke-dasharray: 1,1.65; stroke-dashoffset: 0; stroke: #808080"/>
   </g>
   <g id="line2d_122">
    <path d="M 287.630769 239.292251 
L 292.542624 248.999766 
" clip-path="url(#p4346036e04)" style="fill: none; stroke: #808080; stroke-linecap: square"/>
   </g>
   <g id="line2d_123">
    <path d="M 320.060043 265.327433 
L 303.365277 284.136788 
" clip-path="url(#p4346036e04)" style="fill: none; stroke-dasharray: 1,1.65; stroke-dashoffset: 0; stroke: #808080"/>
   </g>
   <g id="line2d_124">
    <path d="M 287.630769 239.292251 
L 270.946549 257.758859 
" clip-path="url(#p4346036e04)" style="fill: none; stroke: #808080; stroke-linecap: square"/>
   </g>
   <g id="line2d_125">
    <path d="M 320.060043 265.327433 
L 281.519868 293.189076 
" clip-path="url(#p4346036e04)" style="fill: none; stroke-dasharray: 1,1.65; stroke-dashoffset: 0; stroke: #808080"/>
   </g>
   <g id="line2d_126">
    <path d="M 287.630769 239.292251 
L 249.143304 266.601978 
" clip-path="url(#p4346036e04)" style="fill: none; stroke: #808080; stroke-linecap: square"/>
   </g>
   <g id="line2d_127">
    <path d="M 319.625614 265.073701 
L 357.312003 251.568363 
" clip-path="url(#p4346036e04)" style="fill: none; stroke-dasharray: 1,1.65; stroke-dashoffset: 0; stroke: #808080"/>
   </g>
   <g id="line2d_128">
    <path d="M 287.275071 253.261537 
L 324.954143 240.121951 
" clip-path="url(#p4346036e04)" style="fill: none; stroke: #808080; stroke-linecap: square"/>
   </g>
   <g id="line2d_129">
    <path d="M 319.625614 265.073701 
L 336.105383 260.307375 
" clip-path="url(#p4346036e04)" style="fill: none; stroke-dasharray: 1,1.65; stroke-dashoffset: 0; stroke: #808080"/>
   </g>
   <g id="line2d_130">
    <path d="M 287.275071 253.261537 
L 303.835469 248.706992 
" clip-path="url(#p4346036e04)" style="fill: none; stroke: #808080; stroke-linecap: square"/>
   </g>
   <g id="line2d_131">
    <path d="M 319.625614 265.073701 
L 314.696098 269.129904 
" clip-path="url(#p4346036e04)" style="fill: none; stroke-dasharray: 1,1.65; stroke-dashoffset: 0; stroke: #808080"/>
   </g>
   <g id="line2d_132">
    <path d="M 287.275071 253.261537 
L 282.51728 257.373138 
" clip-path="url(#p4346036e04)" style="fill: none; stroke: #808080; stroke-linecap: square"/>
   </g>
   <g id="line2d_133">
    <path d="M 319.625614 265.073701 
L 293.081227 278.037153 
" clip-path="url(#p4346036e04)" style="fill: none; stroke-dasharray: 1,1.65; stroke-dashoffset: 0; stroke: #808080"/>
   </g>
   <g id="line2d_134">
    <path d="M 287.275071 253.261537 
L 260.996735 266.121545 
" clip-path="url(#p4346036e04)" style="fill: none; stroke: #808080; stroke-linecap: square"/>
   </g>
   <g id="line2d_135">
    <path d="M 319.625614 265.073701 
L 271.257796 287.030347 
" clip-path="url(#p4346036e04)" style="fill: none; stroke-dasharray: 1,1.65; stroke-dashoffset: 0; stroke: #808080"/>
   </g>
   <g id="line2d_136">
    <path d="M 287.275071 253.261537 
L 239.270939 274.95339 
" clip-path="url(#p4346036e04)" style="fill: none; stroke: #808080; stroke-linecap: square"/>
   </g>
   <g id="line2d_137">
    <path d="M 145.373367 163.300216 
L 192.077929 156.891877 
" clip-path="url(#p4346036e04)" style="fill: none; stroke-dasharray: 1,1.65; stroke-dashoffset: 0; stroke: #808080"/>
   </g>
   <g id="line2d_138">
    <path d="M 116.580582 146.325525 
L 163.015851 140.253959 
" clip-path="url(#p4346036e04)" style="fill: none; stroke: #808080; stroke-linecap: square"/>
   </g>
   <g id="line2d_139">
    <path d="M 145.373367 163.300216 
L 171.223709 164.751666 
" clip-path="url(#p4346036e04)" style="fill: none; stroke-dasharray: 1,1.65; stroke-dashoffset: 0; stroke: #808080"/>
   </g>
   <g id="line2d_140">
    <path d="M 116.580582 146.325525 
L 142.231433 147.96353 
" clip-path="url(#p4346036e04)" style="fill: none; stroke: #808080; stroke-linecap: square"/>
   </g>
   <g id="line2d_141">
    <path d="M 145.373367 163.300216 
L 150.180551 172.682664 
" clip-path="url(#p4346036e04)" style="fill: none; stroke-dasharray: 1,1.65; stroke-dashoffset: 0; stroke: #808080"/>
   </g>
   <g id="line2d_142">
    <path d="M 116.580582 146.325525 
L 121.260536 155.742271 
" clip-path="url(#p4346036e04)" style="fill: none; stroke: #808080; stroke-linecap: square"/>
   </g>
   <g id="line2d_143">
    <path d="M 145.373367 163.300216 
L 128.945877 180.685843 
" clip-path="url(#p4346036e04)" style="fill: none; stroke-dasharray: 1,1.65; stroke-dashoffset: 0; stroke: #808080"/>
   </g>
   <g id="line2d_144">
    <path d="M 116.580582 146.325525 
L 100.10064 163.591117 
" clip-path="url(#p4346036e04)" style="fill: none; stroke: #808080; stroke-linecap: square"/>
   </g>
   <g id="line2d_145">
    <path d="M 145.373367 163.300216 
L 107.51706 188.762193 
" clip-path="url(#p4346036e04)" style="fill: none; stroke-dasharray: 1,1.65; stroke-dashoffset: 0; stroke: #808080"/>
   </g>
   <g id="line2d_146">
    <path d="M 116.580582 146.325525 
L 78.749178 171.511022 
" clip-path="url(#p4346036e04)" style="fill: none; stroke: #808080; stroke-linecap: square"/>
   </g>
   <g id="line2d_147">
    <path d="M 362.396236 264.719658 
L 367.655141 257.678255 
" clip-path="url(#p4346036e04)" style="fill: none; stroke-dasharray: 1,1.65; stroke-dashoffset: 0; stroke: #808080"/>
   </g>
   <g id="line2d_148">
    <path d="M 340.814325 252.284022 
L 341.188299 235.343805 
" clip-path="url(#p4346036e04)" style="fill: none; stroke: #808080; stroke-linecap: square"/>
   </g>
   <g id="line2d_149">
    <path d="M 362.396236 264.719658 
L 357.310742 251.75049 
" clip-path="url(#p4346036e04)" style="fill: none; stroke-dasharray: 1,1.65; stroke-dashoffset: 0; stroke: #808080"/>
   </g>
   <g id="line2d_150">
    <path d="M 340.814325 252.284022 
L 330.853386 243.715071 
" clip-path="url(#p4346036e04)" style="fill: none; stroke: #808080; stroke-linecap: square"/>
   </g>
   <g id="line2d_151">
    <path d="M 341.217582 273.51964 
L 346.429821 266.474459 
" clip-path="url(#p4346036e04)" style="fill: none; stroke-dasharray: 1,1.65; stroke-dashoffset: 0; stroke: #808080"/>
   </g>
   <g id="line2d_152">
    <path d="M 319.766712 261.01788 
L 320.050985 243.996208 
" clip-path="url(#p4346036e04)" style="fill: none; stroke: #808080; stroke-linecap: square"/>
   </g>
   <g id="line2d_153">
    <path d="M 341.217582 273.51964 
L 336.104796 260.490089 
" clip-path="url(#p4346036e04)" style="fill: none; stroke-dasharray: 1,1.65; stroke-dashoffset: 0; stroke: #808080"/>
   </g>
   <g id="line2d_154">
    <path d="M 319.766712 261.01788 
L 309.809091 252.394818 
" clip-path="url(#p4346036e04)" style="fill: none; stroke: #808080; stroke-linecap: square"/>
   </g>
   <g id="line2d_155">
    <path d="M 319.836565 282.403707 
L 325.001003 275.354996 
" clip-path="url(#p4346036e04)" style="fill: none; stroke-dasharray: 1,1.65; stroke-dashoffset: 0; stroke: #808080"/>
   </g>
   <g id="line2d_156">
    <path d="M 298.474182 269.809188 
L 298.611862 252.679258 
" clip-path="url(#p4346036e04)" style="fill: none; stroke: #808080; stroke-linecap: square"/>
   </g>
   <g id="line2d_157">
    <path d="M 319.836565 282.403707 
L 314.696197 269.313207 
" clip-path="url(#p4346036e04)" style="fill: none; stroke-dasharray: 1,1.65; stroke-dashoffset: 0; stroke: #808080"/>
   </g>
   <g id="line2d_158">
    <path d="M 298.474182 269.809188 
L 288.536897 261.134386 
" clip-path="url(#p4346036e04)" style="fill: none; stroke: #808080; stroke-linecap: square"/>
   </g>
   <g id="line2d_159">
    <path d="M 298.250272 291.373068 
L 303.365745 284.321087 
" clip-path="url(#p4346036e04)" style="fill: none; stroke-dasharray: 1,1.65; stroke-dashoffset: 0; stroke: #808080"/>
   </g>
   <g id="line2d_160">
    <path d="M 276.888728 278.631313 
L 276.948644 261.539674 
" clip-path="url(#p4346036e04)" style="fill: none; stroke: #808080; stroke-linecap: square"/>
   </g>
   <g id="line2d_161">
    <path d="M 298.250272 291.373068 
L 293.082026 278.221048 
" clip-path="url(#p4346036e04)" style="fill: none; stroke-dasharray: 1,1.65; stroke-dashoffset: 0; stroke: #808080"/>
   </g>
   <g id="line2d_162">
    <path d="M 276.888728 278.631313 
L 267.043533 269.841425 
" clip-path="url(#p4346036e04)" style="fill: none; stroke: #808080; stroke-linecap: square"/>
   </g>
   <g id="line2d_163">
    <path d="M 276.455731 300.428958 
L 281.52105 293.373972 
" clip-path="url(#p4346036e04)" style="fill: none; stroke-dasharray: 1,1.65; stroke-dashoffset: 0; stroke: #808080"/>
   </g>
   <g id="line2d_164">
    <path d="M 255.053287 287.511307 
L 255.049302 270.403097 
" clip-path="url(#p4346036e04)" style="fill: none; stroke: #808080; stroke-linecap: square"/>
   </g>
   <g id="line2d_165">
    <path d="M 276.455731 300.428958 
L 271.259307 287.214837 
" clip-path="url(#p4346036e04)" style="fill: none; stroke-dasharray: 1,1.65; stroke-dashoffset: 0; stroke: #808080"/>
   </g>
   <g id="line2d_166">
    <path d="M 255.053287 287.511307 
L 245.246397 278.637448 
" clip-path="url(#p4346036e04)" style="fill: none; stroke: #808080; stroke-linecap: square"/>
   </g>
   <g id="line2d_167">
    <path d="M 319.836565 282.403707 
L 319.832919 292.442619 
" clip-path="url(#p4346036e04)" style="fill: none; stroke-dasharray: 1,1.65; stroke-dashoffset: 0; stroke: #808080"/>
   </g>
   <g id="line2d_168">
    <path d="M 298.474182 269.809188 
L 303.386413 282.694042 
" clip-path="url(#p4346036e04)" style="fill: none; stroke: #808080; stroke-linecap: square"/>
   </g>
   <g id="line2d_169">
    <path d="M 509.833706 383.723873 
L 553.089763 363.939905 
" clip-path="url(#p4346036e04)" style="fill: none; stroke-dasharray: 1,1.65; stroke-dashoffset: 0; stroke: #808080"/>
   </g>
   <g id="line2d_170">
    <path d="M 505.183988 380.994679 
L 548.427463 361.26517 
" clip-path="url(#p4346036e04)" style="fill: none; stroke: #808080; stroke-linecap: square"/>
   </g>
   <g id="line2d_171">
    <path d="M 509.833706 383.723873 
L 531.570897 373.781961 
" clip-path="url(#p4346036e04)" style="fill: none; stroke-dasharray: 1,1.65; stroke-dashoffset: 0; stroke: #808080"/>
   </g>
   <g id="line2d_172">
    <path d="M 505.183988 380.994679 
L 526.914706 371.080203 
" clip-path="url(#p4346036e04)" style="fill: none; stroke: #808080; stroke-linecap: square"/>
   </g>
   <g id="line2d_173">
    <path d="M 509.833706 383.723873 
L 509.833706 383.723873 
" clip-path="url(#p4346036e04)" style="fill: none; stroke-dasharray: 1,1.65; stroke-dashoffset: 0; stroke: #808080"/>
   </g>
   <g id="line2d_174">
    <path d="M 505.183988 380.994679 
L 505.183988 380.994679 
" clip-path="url(#p4346036e04)" style="fill: none; stroke: #808080; stroke-linecap: square"/>
   </g>
   <g id="line2d_175">
    <path d="M 509.833706 383.723873 
L 487.874851 393.767166 
" clip-path="url(#p4346036e04)" style="fill: none; stroke-dasharray: 1,1.65; stroke-dashoffset: 0; stroke: #808080"/>
   </g>
   <g id="line2d_176">
    <path d="M 505.183988 380.994679 
L 483.23198 391.010117 
" clip-path="url(#p4346036e04)" style="fill: none; stroke: #808080; stroke-linecap: square"/>
   </g>
   <g id="line2d_177">
    <path d="M 509.833706 383.723873 
L 465.690924 403.913401 
" clip-path="url(#p4346036e04)" style="fill: none; stroke-dasharray: 1,1.65; stroke-dashoffset: 0; stroke: #808080"/>
   </g>
   <g id="line2d_178">
    <path d="M 505.183988 380.994679 
L 461.055285 401.128066 
" clip-path="url(#p4346036e04)" style="fill: none; stroke: #808080; stroke-linecap: square"/>
   </g>
   <g id="line2d_179">
    <path d="M 150.185665 172.859381 
L 192.08173 157.067485 
" clip-path="url(#p4346036e04)" style="fill: none; stroke-dasharray: 1,1.65; stroke-dashoffset: 0; stroke: #808080"/>
   </g>
   <g id="line2d_180">
    <path d="M 146.480514 170.688712 
L 188.358478 154.935665 
" clip-path="url(#p4346036e04)" style="fill: none; stroke: #808080; stroke-linecap: square"/>
   </g>
   <g id="line2d_181">
    <path d="M 150.185665 172.859381 
L 171.22816 164.927827 
" clip-path="url(#p4346036e04)" style="fill: none; stroke-dasharray: 1,1.65; stroke-dashoffset: 0; stroke: #808080"/>
   </g>
   <g id="line2d_182">
    <path d="M 146.480514 170.688712 
L 167.513801 162.776714 
" clip-path="url(#p4346036e04)" style="fill: none; stroke: #808080; stroke-linecap: square"/>
   </g>
   <g id="line2d_183">
    <path d="M 150.185665 172.859381 
L 150.185665 172.859381 
" clip-path="url(#p4346036e04)" style="fill: none; stroke-dasharray: 1,1.65; stroke-dashoffset: 0; stroke: #808080"/>
   </g>
   <g id="line2d_184">
    <path d="M 146.480514 170.688712 
L 146.480514 170.688712 
" clip-path="url(#p4346036e04)" style="fill: none; stroke: #808080; stroke-linecap: square"/>
   </g>
   <g id="line2d_185">
    <path d="M 150.185665 172.859381 
L 128.951665 180.863118 
" clip-path="url(#p4346036e04)" style="fill: none; stroke-dasharray: 1,1.65; stroke-dashoffset: 0; stroke: #808080"/>
   </g>
   <g id="line2d_186">
    <path d="M 146.480514 170.688712 
L 125.256043 178.672626 
" clip-path="url(#p4346036e04)" style="fill: none; stroke: #808080; stroke-linecap: square"/>
   </g>
   <g id="line2d_187">
    <path d="M 150.185665 172.859381 
L 107.523535 188.94003 
" clip-path="url(#p4346036e04)" style="fill: none; stroke-dasharray: 1,1.65; stroke-dashoffset: 0; stroke: #808080"/>
   </g>
   <g id="line2d_188">
    <path d="M 146.480514 170.688712 
L 103.837772 186.729442 
" clip-path="url(#p4346036e04)" style="fill: none; stroke: #808080; stroke-linecap: square"/>
   </g>
   <g id="text_1">
    <!-- Mode 2 -->
    <g transform="translate(67.68 37.44) scale(0.2 -0.2)">
     <defs>
      <path id="TimesNewRomanPS-BoldMT-4d" d="M 3050 1444 
L 4200 4238 
L 5925 4238 
L 5925 4122 
L 5788 4122 
Q 5600 4122 5488 4056 
Q 5409 4013 5363 3909 
Q 5328 3834 5328 3519 
L 5328 725 
Q 5328 400 5362 319 
Q 5397 238 5503 177 
Q 5609 116 5788 116 
L 5925 116 
L 5925 0 
L 3713 0 
L 3713 116 
L 3850 116 
Q 4038 116 4150 181 
Q 4228 225 4275 331 
Q 4309 406 4309 725 
L 4309 3866 
L 2684 0 
L 2609 0 
L 959 3838 
L 959 853 
Q 959 541 975 469 
Q 1016 313 1152 214 
Q 1288 116 1578 116 
L 1578 0 
L 128 0 
L 128 116 
L 172 116 
Q 313 113 434 161 
Q 556 209 618 290 
Q 681 372 716 519 
Q 722 553 722 838 
L 722 3519 
Q 722 3841 687 3920 
Q 653 4000 547 4061 
Q 441 4122 263 4122 
L 128 4122 
L 128 4238 
L 1859 4238 
L 3050 1444 
z
" transform="scale(0.015625)"/>
      <path id="TimesNewRomanPS-BoldMT-6f" d="M 1594 3009 
Q 1975 3009 2303 2812 
Q 2631 2616 2801 2253 
Q 2972 1891 2972 1459 
Q 2972 838 2656 419 
Q 2275 -88 1603 -88 
Q 944 -88 587 375 
Q 231 838 231 1447 
Q 231 2075 595 2542 
Q 959 3009 1594 3009 
z
M 1606 2788 
Q 1447 2788 1333 2667 
Q 1219 2547 1183 2192 
Q 1147 1838 1147 1206 
Q 1147 872 1191 581 
Q 1225 359 1337 243 
Q 1450 128 1594 128 
Q 1734 128 1828 206 
Q 1950 313 1991 503 
Q 2053 800 2053 1703 
Q 2053 2234 1993 2432 
Q 1934 2631 1819 2722 
Q 1738 2788 1606 2788 
z
" transform="scale(0.015625)"/>
      <path id="TimesNewRomanPS-BoldMT-64" d="M 3056 4238 
L 3056 875 
Q 3056 534 3075 472 
Q 3100 369 3170 319 
Q 3241 269 3416 256 
L 3416 153 
L 2181 -88 
L 2181 375 
Q 1959 106 1786 9 
Q 1613 -88 1394 -88 
Q 834 -88 509 413 
Q 247 819 247 1409 
Q 247 1881 409 2254 
Q 572 2628 855 2818 
Q 1138 3009 1463 3009 
Q 1672 3009 1834 2928 
Q 1997 2847 2181 2644 
L 2181 3525 
Q 2181 3859 2153 3928 
Q 2116 4019 2041 4062 
Q 1966 4106 1759 4106 
L 1759 4238 
L 3056 4238 
z
M 2181 2256 
Q 1950 2700 1616 2700 
Q 1500 2700 1425 2638 
Q 1309 2541 1236 2297 
Q 1163 2053 1163 1550 
Q 1163 997 1244 731 
Q 1325 466 1466 347 
Q 1538 288 1663 288 
Q 1938 288 2181 719 
L 2181 2256 
z
" transform="scale(0.015625)"/>
      <path id="TimesNewRomanPS-BoldMT-65" d="M 2691 1566 
L 1088 1566 
Q 1116 984 1397 647 
Q 1613 388 1916 388 
Q 2103 388 2256 492 
Q 2409 597 2584 869 
L 2691 800 
Q 2453 316 2165 114 
Q 1878 -88 1500 -88 
Q 850 -88 516 413 
Q 247 816 247 1413 
Q 247 2144 642 2576 
Q 1038 3009 1569 3009 
Q 2013 3009 2339 2645 
Q 2666 2281 2691 1566 
z
M 1922 1775 
Q 1922 2278 1867 2465 
Q 1813 2653 1697 2750 
Q 1631 2806 1522 2806 
Q 1359 2806 1256 2647 
Q 1072 2369 1072 1884 
L 1072 1775 
L 1922 1775 
z
" transform="scale(0.015625)"/>
      <path id="TimesNewRomanPS-BoldMT-20" transform="scale(0.015625)"/>
      <path id="TimesNewRomanPS-BoldMT-32" d="M 2650 0 
L 156 0 
L 156 69 
Q 1303 1434 1548 1906 
Q 1794 2378 1794 2828 
Q 1794 3156 1591 3373 
Q 1388 3591 1094 3591 
Q 613 3591 347 3109 
L 231 3150 
Q 400 3750 744 4037 
Q 1088 4325 1538 4325 
Q 1859 4325 2125 4175 
Q 2391 4025 2541 3764 
Q 2691 3503 2691 3275 
Q 2691 2859 2459 2431 
Q 2144 1853 1081 819 
L 1997 819 
Q 2334 819 2436 847 
Q 2538 875 2603 942 
Q 2669 1009 2775 1225 
L 2888 1225 
L 2650 0 
z
" transform="scale(0.015625)"/>
     </defs>
     <use xlink:href="#TimesNewRomanPS-BoldMT-4d"/>
     <use xlink:href="#TimesNewRomanPS-BoldMT-6f" x="94.384766"/>
     <use xlink:href="#TimesNewRomanPS-BoldMT-64" x="144.384766"/>
     <use xlink:href="#TimesNewRomanPS-BoldMT-65" x="200"/>
     <use xlink:href="#TimesNewRomanPS-BoldMT-20" x="244.384766"/>
     <use xlink:href="#TimesNewRomanPS-BoldMT-32" x="269.384766"/>
    </g>
   </g>
   <g id="text_2">
    <!-- T = 0.465 s -->
    <g transform="translate(67.68 67.68) scale(0.2 -0.2)">
     <defs>
      <path id="TimesNewRomanPS-BoldMT-54" d="M 4038 4238 
L 4038 3091 
L 3925 3091 
Q 3825 3488 3703 3661 
Q 3581 3834 3369 3938 
Q 3250 3994 2953 3994 
L 2638 3994 
L 2638 725 
Q 2638 400 2673 319 
Q 2709 238 2814 177 
Q 2919 116 3100 116 
L 3241 116 
L 3241 0 
L 1022 0 
L 1022 116 
L 1163 116 
Q 1347 116 1459 181 
Q 1541 225 1588 331 
Q 1622 406 1622 725 
L 1622 3994 
L 1316 3994 
Q 888 3994 694 3813 
Q 422 3559 350 3091 
L 231 3091 
L 231 4238 
L 4038 4238 
z
" transform="scale(0.015625)"/>
      <path id="TimesNewRomanPS-BoldMT-3d" d="M 125 2825 
L 3544 2825 
L 3544 2419 
L 125 2419 
L 125 2825 
z
M 125 1803 
L 3544 1803 
L 3544 1397 
L 125 1397 
L 125 1803 
z
" transform="scale(0.015625)"/>
      <path id="TimesNewRomanPS-BoldMT-30" d="M 2966 2119 
Q 2966 1484 2788 934 
Q 2681 597 2501 381 
Q 2322 166 2094 39 
Q 1866 -88 1597 -88 
Q 1291 -88 1044 68 
Q 797 225 606 516 
Q 469 728 366 1081 
Q 231 1559 231 2069 
Q 231 2759 425 3338 
Q 584 3816 909 4070 
Q 1234 4325 1597 4325 
Q 1966 4325 2286 4073 
Q 2606 3822 2756 3397 
Q 2966 2813 2966 2119 
z
M 2003 2125 
Q 2003 3238 1991 3422 
Q 1959 3856 1841 4009 
Q 1763 4109 1588 4109 
Q 1453 4109 1375 4034 
Q 1259 3925 1218 3648 
Q 1178 3372 1178 1719 
Q 1178 819 1241 513 
Q 1288 291 1375 216 
Q 1463 141 1606 141 
Q 1763 141 1841 241 
Q 1972 416 1991 781 
L 2003 2125 
z
" transform="scale(0.015625)"/>
      <path id="TimesNewRomanPS-BoldMT-2e" d="M 800 963 
Q 1019 963 1170 809 
Q 1322 656 1322 441 
Q 1322 225 1169 73 
Q 1016 -78 800 -78 
Q 584 -78 432 73 
Q 281 225 281 441 
Q 281 656 432 809 
Q 584 963 800 963 
z
" transform="scale(0.015625)"/>
      <path id="TimesNewRomanPS-BoldMT-34" d="M 159 1597 
L 2172 4325 
L 2553 4325 
L 2553 1597 
L 2941 1597 
L 2941 950 
L 2553 950 
L 2553 0 
L 1694 0 
L 1694 950 
L 159 950 
L 159 1597 
z
M 463 1597 
L 1694 1597 
L 1694 3269 
L 463 1597 
z
" transform="scale(0.015625)"/>
      <path id="TimesNewRomanPS-BoldMT-36" d="M 3006 4325 
L 3006 4238 
Q 2441 4094 2098 3867 
Q 1756 3641 1557 3317 
Q 1359 2994 1250 2516 
Q 1388 2609 1478 2638 
Q 1681 2700 1888 2700 
Q 2363 2700 2680 2354 
Q 2997 2009 2997 1413 
Q 2997 994 2825 644 
Q 2653 294 2337 103 
Q 2022 -88 1663 -88 
Q 1272 -88 940 126 
Q 609 341 423 753 
Q 238 1166 238 1650 
Q 238 2363 580 2977 
Q 922 3591 1551 3955 
Q 2181 4319 3006 4325 
z
M 1209 2263 
Q 1184 1831 1184 1631 
Q 1184 1200 1267 797 
Q 1350 394 1494 231 
Q 1597 116 1738 116 
Q 1881 116 1993 283 
Q 2106 450 2106 963 
Q 2106 1825 1897 2153 
Q 1763 2366 1534 2366 
Q 1409 2366 1209 2263 
z
" transform="scale(0.015625)"/>
      <path id="TimesNewRomanPS-BoldMT-35" d="M 975 4238 
L 2959 4238 
L 2644 3431 
L 975 3431 
L 816 3009 
Q 1894 2969 2475 2472 
Q 2953 2063 2953 1453 
Q 2953 1063 2731 689 
Q 2509 316 2106 114 
Q 1703 -88 1222 -88 
Q 703 -88 425 106 
Q 231 244 231 419 
Q 231 553 332 656 
Q 434 759 569 759 
Q 691 759 816 709 
Q 941 659 1244 447 
Q 1434 316 1572 266 
Q 1669 228 1791 228 
Q 2047 228 2226 415 
Q 2406 603 2406 866 
Q 2406 1416 1856 1759 
Q 1306 2103 469 2103 
Q 384 2103 216 2100 
L 975 4238 
z
" transform="scale(0.015625)"/>
      <path id="TimesNewRomanPS-BoldMT-73" d="M 2063 3003 
L 2109 2006 
L 2003 2006 
Q 1813 2450 1608 2612 
Q 1403 2775 1200 2775 
Q 1072 2775 981 2689 
Q 891 2603 891 2491 
Q 891 2406 953 2328 
Q 1053 2200 1512 1889 
Q 1972 1578 2117 1361 
Q 2263 1144 2263 875 
Q 2263 631 2141 397 
Q 2019 163 1797 37 
Q 1575 -88 1306 -88 
Q 1097 -88 747 44 
Q 653 78 619 78 
Q 516 78 447 -78 
L 344 -78 
L 294 972 
L 400 972 
Q 541 559 786 353 
Q 1031 147 1250 147 
Q 1400 147 1495 239 
Q 1591 331 1591 463 
Q 1591 613 1497 722 
Q 1403 831 1078 1053 
Q 600 1384 459 1559 
Q 253 1816 253 2125 
Q 253 2463 486 2736 
Q 719 3009 1159 3009 
Q 1397 3009 1619 2894 
Q 1703 2847 1756 2847 
Q 1813 2847 1847 2870 
Q 1881 2894 1956 3003 
L 2063 3003 
z
" transform="scale(0.015625)"/>
     </defs>
     <use xlink:href="#TimesNewRomanPS-BoldMT-54"/>
     <use xlink:href="#TimesNewRomanPS-BoldMT-20" x="64.949219"/>
     <use xlink:href="#TimesNewRomanPS-BoldMT-3d" x="89.949219"/>
     <use xlink:href="#TimesNewRomanPS-BoldMT-20" x="146.931641"/>
     <use xlink:href="#TimesNewRomanPS-BoldMT-30" x="171.931641"/>
     <use xlink:href="#TimesNewRomanPS-BoldMT-2e" x="221.931641"/>
     <use xlink:href="#TimesNewRomanPS-BoldMT-34" x="246.931641"/>
     <use xlink:href="#TimesNewRomanPS-BoldMT-36" x="296.931641"/>
     <use xlink:href="#TimesNewRomanPS-BoldMT-35" x="346.931641"/>
     <use xlink:href="#TimesNewRomanPS-BoldMT-20" x="396.931641"/>
     <use xlink:href="#TimesNewRomanPS-BoldMT-73" x="421.931641"/>
    </g>
   </g>
  </g>
 </g>
 <defs>
  <clipPath id="p4346036e04">
   <rect x="7.2" y="7.2" width="604.8" height="604.8"/>
  </clipPath>
 </defs>
</svg>
