<?xml version="1.0" encoding="utf-8" standalone="no"?>
<!DOCTYPE svg PUBLIC "-//W3C//DTD SVG 1.1//EN"
  "http://www.w3.org/Graphics/SVG/1.1/DTD/svg11.dtd">
<svg xmlns:xlink="http://www.w3.org/1999/xlink" width="619.2pt" height="619.2pt" viewBox="0 0 619.2 619.2" xmlns="http://www.w3.org/2000/svg" version="1.1">
 <metadata>
  <rdf:RDF xmlns:dc="http://purl.org/dc/elements/1.1/" xmlns:cc="http://creativecommons.org/ns#" xmlns:rdf="http://www.w3.org/1999/02/22-rdf-syntax-ns#">
   <cc:Work>
    <dc:type rdf:resource="http://purl.org/dc/dcmitype/StillImage"/>
    <dc:date>2023-03-31T19:06:56.407192</dc:date>
    <dc:format>image/svg+xml</dc:format>
    <dc:creator>
     <cc:Agent>
      <dc:title>Matplotlib v3.7.1, https://matplotlib.org/</dc:title>
     </cc:Agent>
    </dc:creator>
   </cc:Work>
  </rdf:RDF>
 </metadata>
 <defs>
  <style type="text/css">*{stroke-linejoin: round; stroke-linecap: butt}</style>
 </defs>
 <g id="figure_1">
  <g id="patch_1">
   <path d="M 0 619.2 
L 619.2 619.2 
L 619.2 0 
L 0 0 
z
" style="fill: #ffffff"/>
  </g>
  <g id="patch_2">
   <path d="M 7.2 612 
L 612 612 
L 612 7.2 
L 7.2 7.2 
z
" style="fill: #ffffff"/>
  </g>
  <g id="axes_1">
   <g id="line2d_1">
    <path d="M 317.772973 341.187136 
L 317.772973 287.904973 
" clip-path="url(#paaf6a18d6a)" style="fill: none; stroke: #000000; stroke-linecap: square"/>
   </g>
   <g id="line2d_2">
    <path d="M 504.258463 377.275404 
L 504.258463 377.275404 
" clip-path="url(#paaf6a18d6a)" style="fill: none; stroke: #008000; stroke-linecap: square"/>
   </g>
   <g id="line2d_3">
    <path d="M 370.357554 239.719722 
L 369.928719 239.47658 
" clip-path="url(#paaf6a18d6a)" style="fill: none; stroke: #0000ff; stroke-linecap: square"/>
   </g>
   <g id="line2d_4">
    <path d="M 546.806176 357.904194 
L 546.813787 357.717887 
" clip-path="url(#paaf6a18d6a)" style="fill: none; stroke: #ff0000; stroke-linecap: square"/>
   </g>
   <g id="line2d_5">
    <path d="M 363.787595 258.960762 
L 359.64338 260.677911 
" clip-path="url(#paaf6a18d6a)" style="fill: none; stroke: #000000; stroke-linecap: square"/>
   </g>
   <g id="line2d_6">
    <path d="M 546.806176 357.904194 
L 546.813787 357.717887 
" clip-path="url(#paaf6a18d6a)" style="fill: none; stroke: #ff0000; stroke-linecap: square"/>
   </g>
   <g id="line2d_7">
    <path d="M 150.932544 170.45258 
L 150.932544 170.45258 
" clip-path="url(#paaf6a18d6a)" style="fill: none; stroke: #008000; stroke-linecap: square"/>
   </g>
   <g id="line2d_8">
    <path d="M 264.366802 283.243036 
L 263.942197 282.988164 
" clip-path="url(#paaf6a18d6a)" style="fill: none; stroke: #0000ff; stroke-linecap: square"/>
   </g>
   <g id="line2d_9">
    <path d="M 525.63779 367.541781 
L 525.644732 367.354871 
" clip-path="url(#paaf6a18d6a)" style="fill: none; stroke: #ff0000; stroke-linecap: square"/>
   </g>
   <g id="line2d_10">
    <path d="M 359.64338 260.677911 
L 338.806054 269.311823 
" clip-path="url(#paaf6a18d6a)" style="fill: none; stroke: #000000; stroke-linecap: square"/>
   </g>
   <g id="line2d_11">
    <path d="M 460.854248 397.036564 
L 460.859099 396.847832 
" clip-path="url(#paaf6a18d6a)" style="fill: none; stroke: #ff0000; stroke-linecap: square"/>
   </g>
   <g id="line2d_12">
    <path d="M 504.258463 377.275404 
L 504.264722 377.08789 
" clip-path="url(#paaf6a18d6a)" style="fill: none; stroke: #ff0000; stroke-linecap: square"/>
   </g>
   <g id="line2d_13">
    <path d="M 338.806054 269.311823 
L 317.772973 278.026846 
" clip-path="url(#paaf6a18d6a)" style="fill: none; stroke: #000000; stroke-linecap: square"/>
   </g>
   <g id="line2d_14">
    <path d="M 364.805325 253.740711 
L 364.806804 253.56111 
" clip-path="url(#paaf6a18d6a)" style="fill: none; stroke: #ff0000; stroke-linecap: square"/>
   </g>
   <g id="line2d_15">
    <path d="M 482.665026 387.106508 
L 482.670589 386.918387 
" clip-path="url(#paaf6a18d6a)" style="fill: none; stroke: #ff0000; stroke-linecap: square"/>
   </g>
   <g id="line2d_16">
    <path d="M 317.772973 278.026846 
L 296.541365 286.824129 
" clip-path="url(#paaf6a18d6a)" style="fill: none; stroke: #000000; stroke-linecap: square"/>
   </g>
   <g id="line2d_17">
    <path d="M 280.082962 288.753966 
L 280.081754 288.572069 
" clip-path="url(#paaf6a18d6a)" style="fill: none; stroke: #ff0000; stroke-linecap: square"/>
   </g>
   <g id="line2d_18">
    <path d="M 460.854248 397.036564 
L 460.859099 396.847832 
" clip-path="url(#paaf6a18d6a)" style="fill: none; stroke: #ff0000; stroke-linecap: square"/>
   </g>
   <g id="line2d_19">
    <path d="M 296.541365 286.824129 
L 275.108405 295.704841 
" clip-path="url(#paaf6a18d6a)" style="fill: none; stroke: #000000; stroke-linecap: square"/>
   </g>
   <g id="line2d_20">
    <path d="M 354.642158 247.924085 
L 354.643314 247.74487 
" clip-path="url(#paaf6a18d6a)" style="fill: none; stroke: #ff0000; stroke-linecap: square"/>
   </g>
   <g id="line2d_21">
    <path d="M 364.805325 253.740711 
L 364.806804 253.56111 
" clip-path="url(#paaf6a18d6a)" style="fill: none; stroke: #ff0000; stroke-linecap: square"/>
   </g>
   <g id="line2d_22">
    <path d="M 275.108405 295.704841 
L 270.797398 297.491099 
" clip-path="url(#paaf6a18d6a)" style="fill: none; stroke: #000000; stroke-linecap: square"/>
   </g>
   <g id="line2d_23">
    <path d="M 269.99994 282.714202 
L 269.998414 282.532698 
" clip-path="url(#paaf6a18d6a)" style="fill: none; stroke: #ff0000; stroke-linecap: square"/>
   </g>
   <g id="line2d_24">
    <path d="M 343.922799 262.370843 
L 343.923625 262.190672 
" clip-path="url(#paaf6a18d6a)" style="fill: none; stroke: #ff0000; stroke-linecap: square"/>
   </g>
   <g id="line2d_25">
    <path d="M 192.159855 154.931537 
L 192.156116 154.758642 
" clip-path="url(#paaf6a18d6a)" style="fill: none; stroke: #ff0000; stroke-linecap: square"/>
   </g>
   <g id="line2d_26">
    <path d="M 322.843436 271.082322 
L 322.843597 270.901579 
" clip-path="url(#paaf6a18d6a)" style="fill: none; stroke: #ff0000; stroke-linecap: square"/>
   </g>
   <g id="line2d_27">
    <path d="M 108.963525 186.252856 
L 108.957199 186.077799 
" clip-path="url(#paaf6a18d6a)" style="fill: none; stroke: #ff0000; stroke-linecap: square"/>
   </g>
   <g id="line2d_28">
    <path d="M 301.56444 279.876304 
L 301.563923 279.694985 
" clip-path="url(#paaf6a18d6a)" style="fill: none; stroke: #ff0000; stroke-linecap: square"/>
   </g>
   <g id="line2d_29">
    <path d="M 280.082962 288.753966 
L 280.081754 288.572069 
" clip-path="url(#paaf6a18d6a)" style="fill: none; stroke: #ff0000; stroke-linecap: square"/>
   </g>
   <g id="line2d_30">
    <path d="M 510.195086 373.310713 
L 469.909713 349.818473 
" clip-path="url(#paaf6a18d6a)" style="fill: none; stroke: #000000; stroke-linecap: square"/>
   </g>
   <g id="line2d_31">
    <path d="M 354.642158 247.924085 
L 354.643314 247.74487 
" clip-path="url(#paaf6a18d6a)" style="fill: none; stroke: #ff0000; stroke-linecap: square"/>
   </g>
   <g id="line2d_32">
    <path d="M 469.909713 349.818473 
L 430.578922 326.882892 
" clip-path="url(#paaf6a18d6a)" style="fill: none; stroke: #000000; stroke-linecap: square"/>
   </g>
   <g id="line2d_33">
    <path d="M 333.778441 256.499607 
L 333.778945 256.319823 
" clip-path="url(#paaf6a18d6a)" style="fill: none; stroke: #ff0000; stroke-linecap: square"/>
   </g>
   <g id="line2d_34">
    <path d="M 430.578922 326.882892 
L 392.169183 304.484419 
" clip-path="url(#paaf6a18d6a)" style="fill: none; stroke: #000000; stroke-linecap: square"/>
   </g>
   <g id="line2d_35">
    <path d="M 312.718691 265.155703 
L 312.718531 264.975349 
" clip-path="url(#paaf6a18d6a)" style="fill: none; stroke: #ff0000; stroke-linecap: square"/>
   </g>
   <g id="line2d_36">
    <path d="M 392.169183 304.484419 
L 354.648515 282.604404 
" clip-path="url(#paaf6a18d6a)" style="fill: none; stroke: #000000; stroke-linecap: square"/>
   </g>
   <g id="line2d_37">
    <path d="M 291.460134 273.893513 
L 291.459297 273.712586 
" clip-path="url(#paaf6a18d6a)" style="fill: none; stroke: #ff0000; stroke-linecap: square"/>
   </g>
   <g id="line2d_38">
    <path d="M 354.648515 282.604404 
L 317.986402 261.225052 
" clip-path="url(#paaf6a18d6a)" style="fill: none; stroke: #000000; stroke-linecap: square"/>
   </g>
   <g id="line2d_39">
    <path d="M 269.99994 282.714202 
L 269.998414 282.532698 
" clip-path="url(#paaf6a18d6a)" style="fill: none; stroke: #ff0000; stroke-linecap: square"/>
   </g>
   <g id="line2d_40">
    <path d="M 192.159855 154.931537 
L 192.156116 154.758642 
" clip-path="url(#paaf6a18d6a)" style="fill: none; stroke: #ff0000; stroke-linecap: square"/>
   </g>
   <g id="line2d_41">
    <path d="M 171.637679 162.657619 
L 171.63331 162.484187 
" clip-path="url(#paaf6a18d6a)" style="fill: none; stroke: #ff0000; stroke-linecap: square"/>
   </g>
   <g id="line2d_42">
    <path d="M 150.932544 170.45258 
L 150.927534 170.278609 
" clip-path="url(#paaf6a18d6a)" style="fill: none; stroke: #ff0000; stroke-linecap: square"/>
   </g>
   <g id="line2d_43">
    <path d="M 130.041994 178.317345 
L 130.036331 178.142832 
" clip-path="url(#paaf6a18d6a)" style="fill: none; stroke: #ff0000; stroke-linecap: square"/>
   </g>
   <g id="line2d_44">
    <path d="M 108.963525 186.252856 
L 108.957199 186.077799 
" clip-path="url(#paaf6a18d6a)" style="fill: none; stroke: #ff0000; stroke-linecap: square"/>
   </g>
   <g id="line2d_45">
    <path d="M 317.559573 260.976148 
L 281.736482 240.086068 
" clip-path="url(#paaf6a18d6a)" style="fill: none; stroke: #000000; stroke-linecap: square"/>
   </g>
   <g id="line2d_46">
    <path d="M 281.736482 240.086068 
L 246.714659 219.663244 
" clip-path="url(#paaf6a18d6a)" style="fill: none; stroke: #000000; stroke-linecap: square"/>
   </g>
   <g id="line2d_47">
    <path d="M 246.714659 219.663244 
L 212.467518 199.692172 
" clip-path="url(#paaf6a18d6a)" style="fill: none; stroke: #000000; stroke-linecap: square"/>
   </g>
   <g id="line2d_48">
    <path d="M 212.467518 199.692172 
L 178.969638 180.158028 
" clip-path="url(#paaf6a18d6a)" style="fill: none; stroke: #000000; stroke-linecap: square"/>
   </g>
   <g id="line2d_49">
    <path d="M 178.969638 180.158028 
L 146.196694 161.046628 
" clip-path="url(#paaf6a18d6a)" style="fill: none; stroke: #000000; stroke-linecap: square"/>
   </g>
   <g id="line2d_50">
    <path d="M 317.986402 261.225052 
L 370.357554 239.719722 
" clip-path="url(#paaf6a18d6a)" style="fill: none; stroke: #808080; stroke-linecap: square"/>
   </g>
   <g id="line2d_51">
    <path d="M 317.986402 261.225052 
L 264.366802 283.243036 
" clip-path="url(#paaf6a18d6a)" style="fill: none; stroke: #808080; stroke-linecap: square"/>
   </g>
   <g id="line2d_52">
    <path d="M 317.559573 260.976148 
L 369.928719 239.47658 
" clip-path="url(#paaf6a18d6a)" style="fill: none; stroke: #808080; stroke-linecap: square"/>
   </g>
   <g id="line2d_53">
    <path d="M 317.559573 260.976148 
L 263.942197 282.988164 
" clip-path="url(#paaf6a18d6a)" style="fill: none; stroke: #808080; stroke-linecap: square"/>
   </g>
   <g id="line2d_54">
    <path d="M 510.195086 373.310713 
L 546.813787 357.717887 
" clip-path="url(#paaf6a18d6a)" style="fill: none; stroke: #808080; stroke-linecap: square"/>
   </g>
   <g id="line2d_55">
    <path d="M 510.195086 373.310713 
L 525.644732 367.354871 
" clip-path="url(#paaf6a18d6a)" style="fill: none; stroke: #808080; stroke-linecap: square"/>
   </g>
   <g id="line2d_56">
    <path d="M 510.195086 373.310713 
L 504.264722 377.08789 
" clip-path="url(#paaf6a18d6a)" style="fill: none; stroke: #808080; stroke-linecap: square"/>
   </g>
   <g id="line2d_57">
    <path d="M 510.195086 373.310713 
L 482.670589 386.918387 
" clip-path="url(#paaf6a18d6a)" style="fill: none; stroke: #808080; stroke-linecap: square"/>
   </g>
   <g id="line2d_58">
    <path d="M 510.195086 373.310713 
L 460.859099 396.847832 
" clip-path="url(#paaf6a18d6a)" style="fill: none; stroke: #808080; stroke-linecap: square"/>
   </g>
   <g id="line2d_59">
    <path d="M 317.986402 261.225052 
L 364.806804 253.56111 
" clip-path="url(#paaf6a18d6a)" style="fill: none; stroke: #808080; stroke-linecap: square"/>
   </g>
   <g id="line2d_60">
    <path d="M 317.986402 261.225052 
L 343.923625 262.190672 
" clip-path="url(#paaf6a18d6a)" style="fill: none; stroke: #808080; stroke-linecap: square"/>
   </g>
   <g id="line2d_61">
    <path d="M 317.986402 261.225052 
L 322.843597 270.901579 
" clip-path="url(#paaf6a18d6a)" style="fill: none; stroke: #808080; stroke-linecap: square"/>
   </g>
   <g id="line2d_62">
    <path d="M 317.986402 261.225052 
L 301.563923 279.694985 
" clip-path="url(#paaf6a18d6a)" style="fill: none; stroke: #808080; stroke-linecap: square"/>
   </g>
   <g id="line2d_63">
    <path d="M 317.986402 261.225052 
L 280.081754 288.572069 
" clip-path="url(#paaf6a18d6a)" style="fill: none; stroke: #808080; stroke-linecap: square"/>
   </g>
   <g id="line2d_64">
    <path d="M 317.559573 260.976148 
L 354.643314 247.74487 
" clip-path="url(#paaf6a18d6a)" style="fill: none; stroke: #808080; stroke-linecap: square"/>
   </g>
   <g id="line2d_65">
    <path d="M 317.559573 260.976148 
L 333.778945 256.319823 
" clip-path="url(#paaf6a18d6a)" style="fill: none; stroke: #808080; stroke-linecap: square"/>
   </g>
   <g id="line2d_66">
    <path d="M 317.559573 260.976148 
L 312.718531 264.975349 
" clip-path="url(#paaf6a18d6a)" style="fill: none; stroke: #808080; stroke-linecap: square"/>
   </g>
   <g id="line2d_67">
    <path d="M 317.559573 260.976148 
L 291.459297 273.712586 
" clip-path="url(#paaf6a18d6a)" style="fill: none; stroke: #808080; stroke-linecap: square"/>
   </g>
   <g id="line2d_68">
    <path d="M 317.559573 260.976148 
L 269.998414 282.532698 
" clip-path="url(#paaf6a18d6a)" style="fill: none; stroke: #808080; stroke-linecap: square"/>
   </g>
   <g id="line2d_69">
    <path d="M 146.196694 161.046628 
L 192.156116 154.758642 
" clip-path="url(#paaf6a18d6a)" style="fill: none; stroke: #808080; stroke-linecap: square"/>
   </g>
   <g id="line2d_70">
    <path d="M 146.196694 161.046628 
L 171.63331 162.484187 
" clip-path="url(#paaf6a18d6a)" style="fill: none; stroke: #808080; stroke-linecap: square"/>
   </g>
   <g id="line2d_71">
    <path d="M 146.196694 161.046628 
L 150.927534 170.278609 
" clip-path="url(#paaf6a18d6a)" style="fill: none; stroke: #808080; stroke-linecap: square"/>
   </g>
   <g id="line2d_72">
    <path d="M 146.196694 161.046628 
L 130.036331 178.142832 
" clip-path="url(#paaf6a18d6a)" style="fill: none; stroke: #808080; stroke-linecap: square"/>
   </g>
   <g id="line2d_73">
    <path d="M 146.196694 161.046628 
L 108.957199 186.077799 
" clip-path="url(#paaf6a18d6a)" style="fill: none; stroke: #808080; stroke-linecap: square"/>
   </g>
   <g id="line2d_74">
    <path d="M 359.64338 260.677911 
L 364.805325 253.740711 
" clip-path="url(#paaf6a18d6a)" style="fill: none; stroke: #808080; stroke-linecap: square"/>
   </g>
   <g id="line2d_75">
    <path d="M 359.64338 260.677911 
L 354.642158 247.924085 
" clip-path="url(#paaf6a18d6a)" style="fill: none; stroke: #808080; stroke-linecap: square"/>
   </g>
   <g id="line2d_76">
    <path d="M 338.806054 269.311823 
L 343.922799 262.370843 
" clip-path="url(#paaf6a18d6a)" style="fill: none; stroke: #808080; stroke-linecap: square"/>
   </g>
   <g id="line2d_77">
    <path d="M 338.806054 269.311823 
L 333.778441 256.499607 
" clip-path="url(#paaf6a18d6a)" style="fill: none; stroke: #808080; stroke-linecap: square"/>
   </g>
   <g id="line2d_78">
    <path d="M 317.772973 278.026846 
L 322.843436 271.082322 
" clip-path="url(#paaf6a18d6a)" style="fill: none; stroke: #808080; stroke-linecap: square"/>
   </g>
   <g id="line2d_79">
    <path d="M 317.772973 278.026846 
L 312.718691 265.155703 
" clip-path="url(#paaf6a18d6a)" style="fill: none; stroke: #808080; stroke-linecap: square"/>
   </g>
   <g id="line2d_80">
    <path d="M 296.541365 286.824129 
L 301.56444 279.876304 
" clip-path="url(#paaf6a18d6a)" style="fill: none; stroke: #808080; stroke-linecap: square"/>
   </g>
   <g id="line2d_81">
    <path d="M 296.541365 286.824129 
L 291.460134 273.893513 
" clip-path="url(#paaf6a18d6a)" style="fill: none; stroke: #808080; stroke-linecap: square"/>
   </g>
   <g id="line2d_82">
    <path d="M 275.108405 295.704841 
L 280.082962 288.753966 
" clip-path="url(#paaf6a18d6a)" style="fill: none; stroke: #808080; stroke-linecap: square"/>
   </g>
   <g id="line2d_83">
    <path d="M 275.108405 295.704841 
L 269.99994 282.714202 
" clip-path="url(#paaf6a18d6a)" style="fill: none; stroke: #808080; stroke-linecap: square"/>
   </g>
   <g id="line2d_84">
    <path d="M 317.772973 278.026846 
L 317.772973 287.904973 
" clip-path="url(#paaf6a18d6a)" style="fill: none; stroke: #808080; stroke-linecap: square"/>
   </g>
   <g id="line2d_85">
    <path d="M 504.258463 377.275404 
L 546.806176 357.904194 
" clip-path="url(#paaf6a18d6a)" style="fill: none; stroke: #808080; stroke-linecap: square"/>
   </g>
   <g id="line2d_86">
    <path d="M 504.258463 377.275404 
L 525.63779 367.541781 
" clip-path="url(#paaf6a18d6a)" style="fill: none; stroke: #808080; stroke-linecap: square"/>
   </g>
   <g id="line2d_87">
    <path d="M 504.258463 377.275404 
L 504.258463 377.275404 
" clip-path="url(#paaf6a18d6a)" style="fill: none; stroke: #808080; stroke-linecap: square"/>
   </g>
   <g id="line2d_88">
    <path d="M 504.258463 377.275404 
L 482.665026 387.106508 
" clip-path="url(#paaf6a18d6a)" style="fill: none; stroke: #808080; stroke-linecap: square"/>
   </g>
   <g id="line2d_89">
    <path d="M 504.258463 377.275404 
L 460.854248 397.036564 
" clip-path="url(#paaf6a18d6a)" style="fill: none; stroke: #808080; stroke-linecap: square"/>
   </g>
   <g id="line2d_90">
    <path d="M 150.932544 170.45258 
L 192.159855 154.931537 
" clip-path="url(#paaf6a18d6a)" style="fill: none; stroke: #808080; stroke-linecap: square"/>
   </g>
   <g id="line2d_91">
    <path d="M 150.932544 170.45258 
L 171.637679 162.657619 
" clip-path="url(#paaf6a18d6a)" style="fill: none; stroke: #808080; stroke-linecap: square"/>
   </g>
   <g id="line2d_92">
    <path d="M 150.932544 170.45258 
L 150.932544 170.45258 
" clip-path="url(#paaf6a18d6a)" style="fill: none; stroke: #808080; stroke-linecap: square"/>
   </g>
   <g id="line2d_93">
    <path d="M 150.932544 170.45258 
L 130.041994 178.317345 
" clip-path="url(#paaf6a18d6a)" style="fill: none; stroke: #808080; stroke-linecap: square"/>
   </g>
   <g id="line2d_94">
    <path d="M 150.932544 170.45258 
L 108.963525 186.252856 
" clip-path="url(#paaf6a18d6a)" style="fill: none; stroke: #808080; stroke-linecap: square"/>
   </g>
   <g id="Path3DCollection_1">
    <defs>
     <path id="C0_0_4eb1ce7e05" d="M 0 0.866025 
C 0.229673 0.866025 0.449969 0.774776 0.612372 0.612372 
C 0.774776 0.449969 0.866025 0.229673 0.866025 -0 
C 0.866025 -0.229673 0.774776 -0.449969 0.612372 -0.612372 
C 0.449969 -0.774776 0.229673 -0.866025 0 -0.866025 
C -0.229673 -0.866025 -0.449969 -0.774776 -0.612372 -0.612372 
C -0.774776 -0.449969 -0.866025 -0.229673 -0.866025 0 
C -0.866025 0.229673 -0.774776 0.449969 -0.612372 0.612372 
C -0.449969 0.774776 -0.229673 0.866025 0 0.866025 
z
"/>
    </defs>
    <g clip-path="url(#paaf6a18d6a)">
     <use xlink:href="#C0_0_4eb1ce7e05" x="192.159855" y="154.931537" style="fill-opacity: 0.3; stroke: #000000; stroke-opacity: 0.3"/>
    </g>
    <g clip-path="url(#paaf6a18d6a)">
     <use xlink:href="#C0_0_4eb1ce7e05" x="192.156116" y="154.758642" style="fill-opacity: 0.30015; stroke: #000000; stroke-opacity: 0.30015"/>
    </g>
    <g clip-path="url(#paaf6a18d6a)">
     <use xlink:href="#C0_0_4eb1ce7e05" x="171.637679" y="162.657619" style="fill-opacity: 0.322332; stroke: #000000; stroke-opacity: 0.322332"/>
    </g>
    <g clip-path="url(#paaf6a18d6a)">
     <use xlink:href="#C0_0_4eb1ce7e05" x="171.63331" y="162.484187" style="fill-opacity: 0.322483; stroke: #000000; stroke-opacity: 0.322483"/>
    </g>
    <g clip-path="url(#paaf6a18d6a)">
     <use xlink:href="#C0_0_4eb1ce7e05" x="146.196694" y="161.046628" style="fill-opacity: 0.343093; stroke: #000000; stroke-opacity: 0.343093"/>
    </g>
    <g clip-path="url(#paaf6a18d6a)">
     <use xlink:href="#C0_0_4eb1ce7e05" x="150.932544" y="170.45258" style="fill-opacity: 0.344864; stroke: #000000; stroke-opacity: 0.344864"/>
    </g>
    <g clip-path="url(#paaf6a18d6a)">
     <use xlink:href="#C0_0_4eb1ce7e05" x="150.932544" y="170.45258" style="fill-opacity: 0.344864; stroke: #000000; stroke-opacity: 0.344864"/>
    </g>
    <g clip-path="url(#paaf6a18d6a)">
     <use xlink:href="#C0_0_4eb1ce7e05" x="150.932544" y="170.45258" style="fill-opacity: 0.344864; stroke: #000000; stroke-opacity: 0.344864"/>
    </g>
    <g clip-path="url(#paaf6a18d6a)">
     <use xlink:href="#C0_0_4eb1ce7e05" x="150.927534" y="170.278609" style="fill-opacity: 0.345016; stroke: #000000; stroke-opacity: 0.345016"/>
    </g>
    <g clip-path="url(#paaf6a18d6a)">
     <use xlink:href="#C0_0_4eb1ce7e05" x="130.041994" y="178.317345" style="fill-opacity: 0.367597; stroke: #000000; stroke-opacity: 0.367597"/>
    </g>
    <g clip-path="url(#paaf6a18d6a)">
     <use xlink:href="#C0_0_4eb1ce7e05" x="130.036331" y="178.142832" style="fill-opacity: 0.367751; stroke: #000000; stroke-opacity: 0.367751"/>
    </g>
    <g clip-path="url(#paaf6a18d6a)">
     <use xlink:href="#C0_0_4eb1ce7e05" x="108.963525" y="186.252856" style="fill-opacity: 0.390534; stroke: #000000; stroke-opacity: 0.390534"/>
    </g>
    <g clip-path="url(#paaf6a18d6a)">
     <use xlink:href="#C0_0_4eb1ce7e05" x="108.957199" y="186.077799" style="fill-opacity: 0.39069; stroke: #000000; stroke-opacity: 0.39069"/>
    </g>
    <g clip-path="url(#paaf6a18d6a)">
     <use xlink:href="#C0_0_4eb1ce7e05" x="178.969638" y="180.158028" style="fill-opacity: 0.398612; stroke: #000000; stroke-opacity: 0.398612"/>
    </g>
    <g clip-path="url(#paaf6a18d6a)">
     <use xlink:href="#C0_0_4eb1ce7e05" x="212.467518" y="199.692172" style="fill-opacity: 0.45536; stroke: #000000; stroke-opacity: 0.45536"/>
    </g>
    <g clip-path="url(#paaf6a18d6a)">
     <use xlink:href="#C0_0_4eb1ce7e05" x="246.714659" y="219.663244" style="fill-opacity: 0.513377; stroke: #000000; stroke-opacity: 0.513377"/>
    </g>
    <g clip-path="url(#paaf6a18d6a)">
     <use xlink:href="#C0_0_4eb1ce7e05" x="317.772973" y="341.187136" style="fill-opacity: 0.558397; stroke: #000000; stroke-opacity: 0.558397"/>
    </g>
    <g clip-path="url(#paaf6a18d6a)">
     <use xlink:href="#C0_0_4eb1ce7e05" x="363.787595" y="258.960762" style="fill-opacity: 0.563106; stroke: #000000; stroke-opacity: 0.563106"/>
    </g>
    <g clip-path="url(#paaf6a18d6a)">
     <use xlink:href="#C0_0_4eb1ce7e05" x="359.64338" y="260.677911" style="fill-opacity: 0.568034; stroke: #000000; stroke-opacity: 0.568034"/>
    </g>
    <g clip-path="url(#paaf6a18d6a)">
     <use xlink:href="#C0_0_4eb1ce7e05" x="354.642158" y="247.924085" style="fill-opacity: 0.568795; stroke: #000000; stroke-opacity: 0.568795"/>
    </g>
    <g clip-path="url(#paaf6a18d6a)">
     <use xlink:href="#C0_0_4eb1ce7e05" x="354.643314" y="247.74487" style="fill-opacity: 0.568962; stroke: #000000; stroke-opacity: 0.568962"/>
    </g>
    <g clip-path="url(#paaf6a18d6a)">
     <use xlink:href="#C0_0_4eb1ce7e05" x="369.928719" y="239.47658" style="fill-opacity: 0.570936; stroke: #000000; stroke-opacity: 0.570936"/>
    </g>
    <g clip-path="url(#paaf6a18d6a)">
     <use xlink:href="#C0_0_4eb1ce7e05" x="370.357554" y="239.719722" style="fill-opacity: 0.571642; stroke: #000000; stroke-opacity: 0.571642"/>
    </g>
    <g clip-path="url(#paaf6a18d6a)">
     <use xlink:href="#C0_0_4eb1ce7e05" x="281.736482" y="240.086068" style="fill-opacity: 0.572707; stroke: #000000; stroke-opacity: 0.572707"/>
    </g>
    <g clip-path="url(#paaf6a18d6a)">
     <use xlink:href="#C0_0_4eb1ce7e05" x="364.805325" y="253.740711" style="fill-opacity: 0.585608; stroke: #000000; stroke-opacity: 0.585608"/>
    </g>
    <g clip-path="url(#paaf6a18d6a)">
     <use xlink:href="#C0_0_4eb1ce7e05" x="364.806804" y="253.56111" style="fill-opacity: 0.585776; stroke: #000000; stroke-opacity: 0.585776"/>
    </g>
    <g clip-path="url(#paaf6a18d6a)">
     <use xlink:href="#C0_0_4eb1ce7e05" x="338.806054" y="269.311823" style="fill-opacity: 0.592815; stroke: #000000; stroke-opacity: 0.592815"/>
    </g>
    <g clip-path="url(#paaf6a18d6a)">
     <use xlink:href="#C0_0_4eb1ce7e05" x="333.778441" y="256.499607" style="fill-opacity: 0.593583; stroke: #000000; stroke-opacity: 0.593583"/>
    </g>
    <g clip-path="url(#paaf6a18d6a)">
     <use xlink:href="#C0_0_4eb1ce7e05" x="333.778945" y="256.319823" style="fill-opacity: 0.593751; stroke: #000000; stroke-opacity: 0.593751"/>
    </g>
    <g clip-path="url(#paaf6a18d6a)">
     <use xlink:href="#C0_0_4eb1ce7e05" x="317.772973" y="287.904973" style="fill-opacity: 0.608533; stroke: #000000; stroke-opacity: 0.608533"/>
    </g>
    <g clip-path="url(#paaf6a18d6a)">
     <use xlink:href="#C0_0_4eb1ce7e05" x="343.922799" y="262.370843" style="fill-opacity: 0.610554; stroke: #000000; stroke-opacity: 0.610554"/>
    </g>
    <g clip-path="url(#paaf6a18d6a)">
     <use xlink:href="#C0_0_4eb1ce7e05" x="343.923625" y="262.190672" style="fill-opacity: 0.610723; stroke: #000000; stroke-opacity: 0.610723"/>
    </g>
    <g clip-path="url(#paaf6a18d6a)">
     <use xlink:href="#C0_0_4eb1ce7e05" x="317.772973" y="278.026846" style="fill-opacity: 0.617828; stroke: #000000; stroke-opacity: 0.617828"/>
    </g>
    <g clip-path="url(#paaf6a18d6a)">
     <use xlink:href="#C0_0_4eb1ce7e05" x="312.718691" y="265.155703" style="fill-opacity: 0.618603; stroke: #000000; stroke-opacity: 0.618603"/>
    </g>
    <g clip-path="url(#paaf6a18d6a)">
     <use xlink:href="#C0_0_4eb1ce7e05" x="312.718531" y="264.975349" style="fill-opacity: 0.618773; stroke: #000000; stroke-opacity: 0.618773"/>
    </g>
    <g clip-path="url(#paaf6a18d6a)">
     <use xlink:href="#C0_0_4eb1ce7e05" x="317.559573" y="260.976148" style="fill-opacity: 0.633393; stroke: #000000; stroke-opacity: 0.633393"/>
    </g>
    <g clip-path="url(#paaf6a18d6a)">
     <use xlink:href="#C0_0_4eb1ce7e05" x="317.986402" y="261.225052" style="fill-opacity: 0.634116; stroke: #000000; stroke-opacity: 0.634116"/>
    </g>
    <g clip-path="url(#paaf6a18d6a)">
     <use xlink:href="#C0_0_4eb1ce7e05" x="322.843436" y="271.082322" style="fill-opacity: 0.635734; stroke: #000000; stroke-opacity: 0.635734"/>
    </g>
    <g clip-path="url(#paaf6a18d6a)">
     <use xlink:href="#C0_0_4eb1ce7e05" x="322.843597" y="270.901579" style="fill-opacity: 0.635905; stroke: #000000; stroke-opacity: 0.635905"/>
    </g>
    <g clip-path="url(#paaf6a18d6a)">
     <use xlink:href="#C0_0_4eb1ce7e05" x="296.541365" y="286.824129" style="fill-opacity: 0.643077; stroke: #000000; stroke-opacity: 0.643077"/>
    </g>
    <g clip-path="url(#paaf6a18d6a)">
     <use xlink:href="#C0_0_4eb1ce7e05" x="291.460134" y="273.893513" style="fill-opacity: 0.64386; stroke: #000000; stroke-opacity: 0.64386"/>
    </g>
    <g clip-path="url(#paaf6a18d6a)">
     <use xlink:href="#C0_0_4eb1ce7e05" x="291.459297" y="273.712586" style="fill-opacity: 0.644031; stroke: #000000; stroke-opacity: 0.644031"/>
    </g>
    <g clip-path="url(#paaf6a18d6a)">
     <use xlink:href="#C0_0_4eb1ce7e05" x="301.56444" y="279.876304" style="fill-opacity: 0.661153; stroke: #000000; stroke-opacity: 0.661153"/>
    </g>
    <g clip-path="url(#paaf6a18d6a)">
     <use xlink:href="#C0_0_4eb1ce7e05" x="301.563923" y="279.694985" style="fill-opacity: 0.661325; stroke: #000000; stroke-opacity: 0.661325"/>
    </g>
    <g clip-path="url(#paaf6a18d6a)">
     <use xlink:href="#C0_0_4eb1ce7e05" x="275.108405" y="295.704841" style="fill-opacity: 0.668566; stroke: #000000; stroke-opacity: 0.668566"/>
    </g>
    <g clip-path="url(#paaf6a18d6a)">
     <use xlink:href="#C0_0_4eb1ce7e05" x="269.99994" y="282.714202" style="fill-opacity: 0.669356; stroke: #000000; stroke-opacity: 0.669356"/>
    </g>
    <g clip-path="url(#paaf6a18d6a)">
     <use xlink:href="#C0_0_4eb1ce7e05" x="269.998414" y="282.532698" style="fill-opacity: 0.669529; stroke: #000000; stroke-opacity: 0.669529"/>
    </g>
    <g clip-path="url(#paaf6a18d6a)">
     <use xlink:href="#C0_0_4eb1ce7e05" x="270.797398" y="297.491099" style="fill-opacity: 0.673693; stroke: #000000; stroke-opacity: 0.673693"/>
    </g>
    <g clip-path="url(#paaf6a18d6a)">
     <use xlink:href="#C0_0_4eb1ce7e05" x="280.082962" y="288.753966" style="fill-opacity: 0.686814; stroke: #000000; stroke-opacity: 0.686814"/>
    </g>
    <g clip-path="url(#paaf6a18d6a)">
     <use xlink:href="#C0_0_4eb1ce7e05" x="280.081754" y="288.572069" style="fill-opacity: 0.686988; stroke: #000000; stroke-opacity: 0.686988"/>
    </g>
    <g clip-path="url(#paaf6a18d6a)">
     <use xlink:href="#C0_0_4eb1ce7e05" x="354.648515" y="282.604404" style="fill-opacity: 0.696225; stroke: #000000; stroke-opacity: 0.696225"/>
    </g>
    <g clip-path="url(#paaf6a18d6a)">
     <use xlink:href="#C0_0_4eb1ce7e05" x="263.942197" y="282.988164" style="fill-opacity: 0.697339; stroke: #000000; stroke-opacity: 0.697339"/>
    </g>
    <g clip-path="url(#paaf6a18d6a)">
     <use xlink:href="#C0_0_4eb1ce7e05" x="264.366802" y="283.243036" style="fill-opacity: 0.69808; stroke: #000000; stroke-opacity: 0.69808"/>
    </g>
    <g clip-path="url(#paaf6a18d6a)">
     <use xlink:href="#C0_0_4eb1ce7e05" x="392.169183" y="304.484419" style="fill-opacity: 0.759787; stroke: #000000; stroke-opacity: 0.759787"/>
    </g>
    <g clip-path="url(#paaf6a18d6a)">
     <use xlink:href="#C0_0_4eb1ce7e05" x="430.578922" y="326.882892" style="fill-opacity: 0.824856; stroke: #000000; stroke-opacity: 0.824856"/>
    </g>
    <g clip-path="url(#paaf6a18d6a)">
     <use xlink:href="#C0_0_4eb1ce7e05" x="546.806176" y="357.904194" style="fill-opacity: 0.886693; stroke: #000000; stroke-opacity: 0.886693"/>
    </g>
    <g clip-path="url(#paaf6a18d6a)">
     <use xlink:href="#C0_0_4eb1ce7e05" x="546.813787" y="357.717887" style="fill-opacity: 0.88688; stroke: #000000; stroke-opacity: 0.88688"/>
    </g>
    <g clip-path="url(#paaf6a18d6a)">
     <use xlink:href="#C0_0_4eb1ce7e05" x="469.909713" y="349.818473" style="fill-opacity: 0.891485; stroke: #000000; stroke-opacity: 0.891485"/>
    </g>
    <g clip-path="url(#paaf6a18d6a)">
     <use xlink:href="#C0_0_4eb1ce7e05" x="525.63779" y="367.541781" style="fill-opacity: 0.914551; stroke: #000000; stroke-opacity: 0.914551"/>
    </g>
    <g clip-path="url(#paaf6a18d6a)">
     <use xlink:href="#C0_0_4eb1ce7e05" x="525.644732" y="367.354871" style="fill-opacity: 0.914739; stroke: #000000; stroke-opacity: 0.914739"/>
    </g>
    <g clip-path="url(#paaf6a18d6a)">
     <use xlink:href="#C0_0_4eb1ce7e05" x="504.258463" y="377.275404" style="fill-opacity: 0.942686; stroke: #000000; stroke-opacity: 0.942686"/>
    </g>
    <g clip-path="url(#paaf6a18d6a)">
     <use xlink:href="#C0_0_4eb1ce7e05" x="504.258463" y="377.275404" style="fill-opacity: 0.942686; stroke: #000000; stroke-opacity: 0.942686"/>
    </g>
    <g clip-path="url(#paaf6a18d6a)">
     <use xlink:href="#C0_0_4eb1ce7e05" x="504.258463" y="377.275404" style="fill-opacity: 0.942686; stroke: #000000; stroke-opacity: 0.942686"/>
    </g>
    <g clip-path="url(#paaf6a18d6a)">
     <use xlink:href="#C0_0_4eb1ce7e05" x="504.264722" y="377.08789" style="fill-opacity: 0.942876; stroke: #000000; stroke-opacity: 0.942876"/>
    </g>
    <g clip-path="url(#paaf6a18d6a)">
     <use xlink:href="#C0_0_4eb1ce7e05" x="510.195086" y="373.310713" style="fill-opacity: 0.959731; stroke: #000000; stroke-opacity: 0.959731"/>
    </g>
    <g clip-path="url(#paaf6a18d6a)">
     <use xlink:href="#C0_0_4eb1ce7e05" x="482.665026" y="387.106508" style="fill-opacity: 0.971103; stroke: #000000; stroke-opacity: 0.971103"/>
    </g>
    <g clip-path="url(#paaf6a18d6a)">
     <use xlink:href="#C0_0_4eb1ce7e05" x="482.670589" y="386.918387" style="fill-opacity: 0.971295; stroke: #000000; stroke-opacity: 0.971295"/>
    </g>
    <g clip-path="url(#paaf6a18d6a)">
     <use xlink:href="#C0_0_4eb1ce7e05" x="460.854248" y="397.036564" style="fill-opacity: 0.999806; stroke: #000000; stroke-opacity: 0.999806"/>
    </g>
    <g clip-path="url(#paaf6a18d6a)">
     <use xlink:href="#C0_0_4eb1ce7e05" x="460.859099" y="396.847832" style="stroke: #000000"/>
    </g>
   </g>
   <g id="text_1">
    <!-- Undeformed shape -->
    <g transform="translate(67.68 37.44) scale(0.2 -0.2)">
     <defs>
      <path id="TimesNewRomanPS-BoldMT-55" d="M 150 4238 
L 2338 4238 
L 2338 4122 
L 2228 4122 
Q 1981 4122 1889 4070 
Q 1797 4019 1758 3928 
Q 1719 3838 1719 3475 
L 1719 1400 
Q 1719 831 1805 647 
Q 1891 463 2087 341 
Q 2284 219 2584 219 
Q 2928 219 3170 373 
Q 3413 528 3533 800 
Q 3653 1072 3653 1747 
L 3653 3475 
Q 3653 3759 3593 3881 
Q 3534 4003 3444 4050 
Q 3303 4122 3047 4122 
L 3047 4238 
L 4513 4238 
L 4513 4122 
L 4425 4122 
Q 4247 4122 4128 4050 
Q 4009 3978 3956 3834 
Q 3916 3734 3916 3475 
L 3916 1866 
Q 3916 1119 3817 787 
Q 3719 456 3337 178 
Q 2956 -100 2297 -100 
Q 1747 -100 1447 47 
Q 1038 247 869 559 
Q 700 872 700 1400 
L 700 3475 
Q 700 3841 659 3930 
Q 619 4019 519 4072 
Q 419 4125 150 4122 
L 150 4238 
z
" transform="scale(0.015625)"/>
      <path id="TimesNewRomanPS-BoldMT-6e" d="M 1409 2922 
L 1409 2544 
Q 1634 2788 1840 2898 
Q 2047 3009 2284 3009 
Q 2569 3009 2756 2851 
Q 2944 2694 3006 2459 
Q 3056 2281 3056 1775 
L 3056 638 
Q 3056 300 3117 217 
Q 3178 134 3372 113 
L 3372 0 
L 1894 0 
L 1894 113 
Q 2059 134 2131 250 
Q 2181 328 2181 638 
L 2181 1938 
Q 2181 2297 2153 2390 
Q 2125 2484 2058 2536 
Q 1991 2588 1909 2588 
Q 1641 2588 1409 2203 
L 1409 638 
Q 1409 309 1470 221 
Q 1531 134 1697 113 
L 1697 0 
L 219 0 
L 219 113 
Q 403 131 481 231 
Q 534 300 534 638 
L 534 2288 
Q 534 2619 473 2700 
Q 413 2781 219 2806 
L 219 2922 
L 1409 2922 
z
" transform="scale(0.015625)"/>
      <path id="TimesNewRomanPS-BoldMT-64" d="M 3056 4238 
L 3056 875 
Q 3056 534 3075 472 
Q 3100 369 3170 319 
Q 3241 269 3416 256 
L 3416 153 
L 2181 -88 
L 2181 375 
Q 1959 106 1786 9 
Q 1613 -88 1394 -88 
Q 834 -88 509 413 
Q 247 819 247 1409 
Q 247 1881 409 2254 
Q 572 2628 855 2818 
Q 1138 3009 1463 3009 
Q 1672 3009 1834 2928 
Q 1997 2847 2181 2644 
L 2181 3525 
Q 2181 3859 2153 3928 
Q 2116 4019 2041 4062 
Q 1966 4106 1759 4106 
L 1759 4238 
L 3056 4238 
z
M 2181 2256 
Q 1950 2700 1616 2700 
Q 1500 2700 1425 2638 
Q 1309 2541 1236 2297 
Q 1163 2053 1163 1550 
Q 1163 997 1244 731 
Q 1325 466 1466 347 
Q 1538 288 1663 288 
Q 1938 288 2181 719 
L 2181 2256 
z
" transform="scale(0.015625)"/>
      <path id="TimesNewRomanPS-BoldMT-65" d="M 2691 1566 
L 1088 1566 
Q 1116 984 1397 647 
Q 1613 388 1916 388 
Q 2103 388 2256 492 
Q 2409 597 2584 869 
L 2691 800 
Q 2453 316 2165 114 
Q 1878 -88 1500 -88 
Q 850 -88 516 413 
Q 247 816 247 1413 
Q 247 2144 642 2576 
Q 1038 3009 1569 3009 
Q 2013 3009 2339 2645 
Q 2666 2281 2691 1566 
z
M 1922 1775 
Q 1922 2278 1867 2465 
Q 1813 2653 1697 2750 
Q 1631 2806 1522 2806 
Q 1359 2806 1256 2647 
Q 1072 2369 1072 1884 
L 1072 1775 
L 1922 1775 
z
" transform="scale(0.015625)"/>
      <path id="TimesNewRomanPS-BoldMT-66" d="M 1497 2616 
L 1497 588 
Q 1497 294 1559 219 
Q 1659 103 1928 113 
L 1928 0 
L 206 0 
L 206 113 
Q 403 116 486 158 
Q 569 200 600 275 
Q 631 350 631 588 
L 631 2616 
L 206 2616 
L 206 2922 
L 631 2922 
L 631 3138 
L 628 3284 
Q 628 3734 958 4034 
Q 1288 4334 1850 4334 
Q 2234 4334 2420 4190 
Q 2606 4047 2606 3872 
Q 2606 3731 2490 3628 
Q 2375 3525 2184 3525 
Q 2022 3525 1926 3609 
Q 1831 3694 1831 3797 
Q 1831 3825 1850 3913 
Q 1863 3966 1863 4013 
Q 1863 4078 1825 4109 
Q 1775 4156 1703 4156 
Q 1613 4156 1552 4081 
Q 1491 4006 1491 3841 
L 1497 3294 
L 1497 2922 
L 1928 2922 
L 1928 2616 
L 1497 2616 
z
" transform="scale(0.015625)"/>
      <path id="TimesNewRomanPS-BoldMT-6f" d="M 1594 3009 
Q 1975 3009 2303 2812 
Q 2631 2616 2801 2253 
Q 2972 1891 2972 1459 
Q 2972 838 2656 419 
Q 2275 -88 1603 -88 
Q 944 -88 587 375 
Q 231 838 231 1447 
Q 231 2075 595 2542 
Q 959 3009 1594 3009 
z
M 1606 2788 
Q 1447 2788 1333 2667 
Q 1219 2547 1183 2192 
Q 1147 1838 1147 1206 
Q 1147 872 1191 581 
Q 1225 359 1337 243 
Q 1450 128 1594 128 
Q 1734 128 1828 206 
Q 1950 313 1991 503 
Q 2053 800 2053 1703 
Q 2053 2234 1993 2432 
Q 1934 2631 1819 2722 
Q 1738 2788 1606 2788 
z
" transform="scale(0.015625)"/>
      <path id="TimesNewRomanPS-BoldMT-72" d="M 1428 2922 
L 1428 2259 
Q 1719 2713 1937 2861 
Q 2156 3009 2359 3009 
Q 2534 3009 2639 2901 
Q 2744 2794 2744 2597 
Q 2744 2388 2642 2272 
Q 2541 2156 2397 2156 
Q 2231 2156 2109 2262 
Q 1988 2369 1966 2381 
Q 1934 2400 1894 2400 
Q 1803 2400 1722 2331 
Q 1594 2225 1528 2028 
Q 1428 1725 1428 1359 
L 1428 688 
L 1431 513 
Q 1431 334 1453 284 
Q 1491 200 1564 161 
Q 1638 122 1813 113 
L 1813 0 
L 234 0 
L 234 113 
Q 425 128 492 217 
Q 559 306 559 688 
L 559 2303 
Q 559 2553 534 2622 
Q 503 2709 443 2750 
Q 384 2791 234 2806 
L 234 2922 
L 1428 2922 
z
" transform="scale(0.015625)"/>
      <path id="TimesNewRomanPS-BoldMT-6d" d="M 1428 2922 
L 1428 2538 
Q 1669 2800 1873 2904 
Q 2078 3009 2322 3009 
Q 2603 3009 2793 2878 
Q 2984 2747 3088 2478 
Q 3338 2759 3567 2884 
Q 3797 3009 4047 3009 
Q 4350 3009 4529 2870 
Q 4709 2731 4779 2517 
Q 4850 2303 4850 1834 
L 4850 638 
Q 4850 300 4911 219 
Q 4972 138 5166 113 
L 5166 0 
L 3656 0 
L 3656 113 
Q 3834 128 3919 250 
Q 3975 334 3975 638 
L 3975 1894 
Q 3975 2284 3944 2390 
Q 3913 2497 3845 2548 
Q 3778 2600 3688 2600 
Q 3553 2600 3415 2501 
Q 3278 2403 3138 2206 
L 3138 638 
Q 3138 322 3191 241 
Q 3263 125 3466 113 
L 3466 0 
L 1953 0 
L 1953 113 
Q 2075 119 2145 173 
Q 2216 228 2239 304 
Q 2263 381 2263 638 
L 2263 1894 
Q 2263 2291 2231 2391 
Q 2200 2491 2126 2547 
Q 2053 2603 1969 2603 
Q 1844 2603 1741 2538 
Q 1594 2441 1428 2206 
L 1428 638 
Q 1428 328 1489 229 
Q 1550 131 1744 113 
L 1744 0 
L 238 0 
L 238 113 
Q 422 131 500 231 
Q 553 300 553 638 
L 553 2288 
Q 553 2619 492 2700 
Q 431 2781 238 2806 
L 238 2922 
L 1428 2922 
z
" transform="scale(0.015625)"/>
      <path id="TimesNewRomanPS-BoldMT-20" transform="scale(0.015625)"/>
      <path id="TimesNewRomanPS-BoldMT-73" d="M 2063 3003 
L 2109 2006 
L 2003 2006 
Q 1813 2450 1608 2612 
Q 1403 2775 1200 2775 
Q 1072 2775 981 2689 
Q 891 2603 891 2491 
Q 891 2406 953 2328 
Q 1053 2200 1512 1889 
Q 1972 1578 2117 1361 
Q 2263 1144 2263 875 
Q 2263 631 2141 397 
Q 2019 163 1797 37 
Q 1575 -88 1306 -88 
Q 1097 -88 747 44 
Q 653 78 619 78 
Q 516 78 447 -78 
L 344 -78 
L 294 972 
L 400 972 
Q 541 559 786 353 
Q 1031 147 1250 147 
Q 1400 147 1495 239 
Q 1591 331 1591 463 
Q 1591 613 1497 722 
Q 1403 831 1078 1053 
Q 600 1384 459 1559 
Q 253 1816 253 2125 
Q 253 2463 486 2736 
Q 719 3009 1159 3009 
Q 1397 3009 1619 2894 
Q 1703 2847 1756 2847 
Q 1813 2847 1847 2870 
Q 1881 2894 1956 3003 
L 2063 3003 
z
" transform="scale(0.015625)"/>
      <path id="TimesNewRomanPS-BoldMT-68" d="M 1409 4238 
L 1409 2547 
Q 1650 2800 1850 2904 
Q 2050 3009 2266 3009 
Q 2541 3009 2736 2853 
Q 2931 2697 2995 2486 
Q 3059 2275 3059 1775 
L 3059 634 
Q 3059 300 3121 217 
Q 3184 134 3375 113 
L 3375 0 
L 1894 0 
L 1894 113 
Q 2050 134 2128 238 
Q 2184 319 2184 634 
L 2184 1938 
Q 2184 2300 2156 2392 
Q 2128 2484 2061 2536 
Q 1994 2588 1909 2588 
Q 1784 2588 1665 2502 
Q 1547 2416 1409 2200 
L 1409 634 
Q 1409 322 1456 244 
Q 1516 138 1700 113 
L 1700 0 
L 219 0 
L 219 113 
Q 403 131 481 231 
Q 534 300 534 634 
L 534 3603 
Q 534 3934 473 4015 
Q 413 4097 219 4122 
L 219 4238 
L 1409 4238 
z
" transform="scale(0.015625)"/>
      <path id="TimesNewRomanPS-BoldMT-61" d="M 1828 431 
Q 1294 -41 869 -41 
Q 619 -41 453 123 
Q 288 288 288 534 
Q 288 869 575 1136 
Q 863 1403 1828 1847 
L 1828 2141 
Q 1828 2472 1792 2558 
Q 1756 2644 1656 2708 
Q 1556 2772 1431 2772 
Q 1228 2772 1097 2681 
Q 1016 2625 1016 2550 
Q 1016 2484 1103 2388 
Q 1222 2253 1222 2128 
Q 1222 1975 1108 1867 
Q 994 1759 809 1759 
Q 613 1759 480 1878 
Q 347 1997 347 2156 
Q 347 2381 525 2586 
Q 703 2791 1022 2900 
Q 1341 3009 1684 3009 
Q 2100 3009 2342 2832 
Q 2584 2656 2656 2450 
Q 2700 2319 2700 1847 
L 2700 713 
Q 2700 513 2715 461 
Q 2731 409 2762 384 
Q 2794 359 2834 359 
Q 2916 359 3000 475 
L 3094 400 
Q 2938 169 2770 64 
Q 2603 -41 2391 -41 
Q 2141 -41 2000 76 
Q 1859 194 1828 431 
z
M 1828 659 
L 1828 1638 
Q 1450 1416 1266 1163 
Q 1144 994 1144 822 
Q 1144 678 1247 569 
Q 1325 484 1466 484 
Q 1622 484 1828 659 
z
" transform="scale(0.015625)"/>
      <path id="TimesNewRomanPS-BoldMT-70" d="M 1347 297 
L 1347 -791 
Q 1347 -1016 1383 -1097 
Q 1419 -1178 1494 -1215 
Q 1569 -1253 1788 -1253 
L 1788 -1369 
L 122 -1369 
L 122 -1253 
Q 316 -1247 409 -1144 
Q 472 -1072 472 -772 
L 472 2313 
Q 472 2622 400 2708 
Q 328 2794 122 2806 
L 122 2922 
L 1347 2922 
L 1347 2538 
Q 1500 2763 1659 2863 
Q 1888 3009 2156 3009 
Q 2478 3009 2742 2806 
Q 3006 2603 3143 2245 
Q 3281 1888 3281 1475 
Q 3281 1031 3139 664 
Q 2997 297 2726 104 
Q 2456 -88 2125 -88 
Q 1884 -88 1675 19 
Q 1519 100 1347 297 
z
M 1347 613 
Q 1616 231 1922 231 
Q 2091 231 2200 409 
Q 2363 672 2363 1409 
Q 2363 2166 2184 2444 
Q 2066 2628 1866 2628 
Q 1550 2628 1347 2172 
L 1347 613 
z
" transform="scale(0.015625)"/>
     </defs>
     <use xlink:href="#TimesNewRomanPS-BoldMT-55"/>
     <use xlink:href="#TimesNewRomanPS-BoldMT-6e" x="72.216797"/>
     <use xlink:href="#TimesNewRomanPS-BoldMT-64" x="127.832031"/>
     <use xlink:href="#TimesNewRomanPS-BoldMT-65" x="183.447266"/>
     <use xlink:href="#TimesNewRomanPS-BoldMT-66" x="227.832031"/>
     <use xlink:href="#TimesNewRomanPS-BoldMT-6f" x="261.132812"/>
     <use xlink:href="#TimesNewRomanPS-BoldMT-72" x="311.132812"/>
     <use xlink:href="#TimesNewRomanPS-BoldMT-6d" x="355.517578"/>
     <use xlink:href="#TimesNewRomanPS-BoldMT-65" x="438.818359"/>
     <use xlink:href="#TimesNewRomanPS-BoldMT-64" x="483.203125"/>
     <use xlink:href="#TimesNewRomanPS-BoldMT-20" x="538.818359"/>
     <use xlink:href="#TimesNewRomanPS-BoldMT-73" x="563.818359"/>
     <use xlink:href="#TimesNewRomanPS-BoldMT-68" x="602.734375"/>
     <use xlink:href="#TimesNewRomanPS-BoldMT-61" x="658.349609"/>
     <use xlink:href="#TimesNewRomanPS-BoldMT-70" x="708.349609"/>
     <use xlink:href="#TimesNewRomanPS-BoldMT-65" x="763.964844"/>
    </g>
   </g>
  </g>
 </g>
 <defs>
  <clipPath id="paaf6a18d6a">
   <rect x="7.2" y="7.2" width="604.8" height="604.8"/>
  </clipPath>
 </defs>
</svg>
