<?xml version="1.0" encoding="utf-8" standalone="no"?>
<!DOCTYPE svg PUBLIC "-//W3C//DTD SVG 1.1//EN"
  "http://www.w3.org/Graphics/SVG/1.1/DTD/svg11.dtd">
<svg xmlns:xlink="http://www.w3.org/1999/xlink" width="440.641875pt" height="351.363875pt" viewBox="0 0 440.641875 351.363875" xmlns="http://www.w3.org/2000/svg" version="1.1">
 <metadata>
  <rdf:RDF xmlns:dc="http://purl.org/dc/elements/1.1/" xmlns:cc="http://creativecommons.org/ns#" xmlns:rdf="http://www.w3.org/1999/02/22-rdf-syntax-ns#">
   <cc:Work>
    <dc:type rdf:resource="http://purl.org/dc/dcmitype/StillImage"/>
    <dc:date>2023-03-31T19:06:56.710263</dc:date>
    <dc:format>image/svg+xml</dc:format>
    <dc:creator>
     <cc:Agent>
      <dc:title>Matplotlib v3.7.1, https://matplotlib.org/</dc:title>
     </cc:Agent>
    </dc:creator>
   </cc:Work>
  </rdf:RDF>
 </metadata>
 <defs>
  <style type="text/css">*{stroke-linejoin: round; stroke-linecap: butt}</style>
 </defs>
 <g id="figure_1">
  <g id="patch_1">
   <path d="M 0 351.363875 
L 440.641875 351.363875 
L 440.641875 0 
L 0 0 
z
" style="fill: #ffffff"/>
  </g>
  <g id="axes_1">
   <g id="patch_2">
    <path d="M 76.321875 293.1995 
L 433.441875 293.1995 
L 433.441875 27.0875 
L 76.321875 27.0875 
z
" style="fill: #ffffff"/>
   </g>
   <g id="patch_3">
    <path d="M 424.939018 160.1435 
L 422.845332 140.320125 
L 416.615829 120.984866 
L 406.403899 102.613824 
L 392.460994 85.659353 
L 375.130434 70.538929 
L 354.838956 57.624866 
L 332.086202 47.235153 
L 307.432422 39.625618 
L 281.484673 34.983633 
L 254.881875 33.4235 
L 228.279077 34.983633 
L 202.331328 39.625618 
L 177.677548 47.235153 
L 154.924794 57.624866 
L 134.633316 70.538929 
L 117.302756 85.659353 
L 103.359851 102.613824 
L 93.147921 120.984866 
L 86.918418 140.320125 
L 84.824732 160.1435 
L 86.918418 179.966875 
L 93.147921 199.302134 
L 103.359851 217.673176 
L 117.302756 234.627647 
L 134.633316 249.748071 
L 154.924794 262.662134 
L 177.677548 273.051847 
L 202.331328 280.661382 
L 228.279077 285.303367 
L 254.881875 286.8635 
L 281.484673 285.303367 
L 307.432422 280.661382 
L 332.086202 273.051847 
L 354.838956 262.662134 
L 375.130434 249.748071 
L 392.460994 234.627647 
L 406.403899 217.673176 
L 416.615829 199.302134 
L 422.845332 179.966875 
L 424.939018 160.1435 
z
" clip-path="url(#p9c8db4992a)" style="fill: #d3d3d3"/>
   </g>
   <g id="patch_4">
    <path d="M 429.190446 160.1435 
L 427.044419 139.82454 
L 420.659178 120.005901 
L 410.191949 101.175582 
L 395.900472 83.797249 
L 378.136648 68.298814 
L 357.337883 55.061901 
L 334.01631 44.412445 
L 308.746186 36.612671 
L 282.149743 31.854637 
L 254.881875 30.2555 
L 227.614007 31.854637 
L 201.017564 36.612671 
L 175.74744 44.412445 
L 152.425867 55.061901 
L 131.627102 68.298814 
L 113.863278 83.797249 
L 99.571801 101.175582 
L 89.104572 120.005901 
L 82.719331 139.82454 
L 80.573304 160.1435 
L 82.719331 180.46246 
L 89.104572 200.281099 
L 99.571801 219.111418 
L 113.863278 236.489751 
L 131.627102 251.988186 
L 152.425867 265.225099 
L 175.74744 275.874555 
L 201.017564 283.674329 
L 227.614007 288.432363 
L 254.881875 290.0315 
L 282.149743 288.432363 
L 308.746186 283.674329 
L 334.01631 275.874555 
L 357.337883 265.225099 
L 378.136648 251.988186 
L 395.900472 236.489751 
L 410.191949 219.111418 
L 420.659178 200.281099 
L 427.044419 180.46246 
L 429.190446 160.1435 
z
" clip-path="url(#p9c8db4992a)" style="fill: #d3d3d3"/>
   </g>
   <g id="patch_5">
    <path d="M 433.441875 160.1435 
L 431.243505 139.328956 
L 424.702527 119.026935 
L 413.98 99.73734 
L 399.33995 81.935145 
L 381.142862 66.0587 
L 359.83681 52.498935 
L 335.946419 41.589736 
L 310.05995 33.599724 
L 282.814813 28.72564 
L 254.881875 27.0875 
L 226.948937 28.72564 
L 199.7038 33.599724 
L 173.817331 41.589736 
L 149.92694 52.498935 
L 128.620888 66.0587 
L 110.4238 81.935145 
L 95.78375 99.73734 
L 85.061223 119.026935 
L 78.520245 139.328956 
L 76.321875 160.1435 
L 78.520245 180.958044 
L 85.061223 201.260065 
L 95.78375 220.54966 
L 110.4238 238.351855 
L 128.620888 254.2283 
L 149.92694 267.788065 
L 173.817331 278.697264 
L 199.7038 286.687276 
L 226.948937 291.56136 
L 254.881875 293.1995 
L 282.814813 291.56136 
L 310.05995 286.687276 
L 335.946419 278.697264 
L 359.83681 267.788065 
L 381.142862 254.2283 
L 399.33995 238.351855 
L 413.98 220.54966 
L 424.702527 201.260065 
L 431.243505 180.958044 
L 433.441875 160.1435 
z
" clip-path="url(#p9c8db4992a)" style="fill: #d3d3d3"/>
   </g>
   <g id="patch_6">
    <path d="M 254.881875 160.1435 
L 254.881875 160.1435 
L 254.881875 160.1435 
L 254.881875 160.1435 
L 254.881875 160.1435 
L 254.881875 160.1435 
L 254.881875 160.1435 
L 254.881875 160.1435 
L 254.881875 160.1435 
L 254.881875 160.1435 
L 254.881875 160.1435 
L 254.881875 160.1435 
L 254.881875 160.1435 
L 254.881875 160.1435 
L 254.881875 160.1435 
L 254.881875 160.1435 
L 254.881875 160.1435 
L 254.881875 160.1435 
L 254.881875 160.1435 
L 254.881875 160.1435 
L 254.881875 160.1435 
L 254.881875 160.1435 
L 254.881875 160.1435 
L 254.881875 160.1435 
L 254.881875 160.1435 
L 254.881875 160.1435 
L 254.881875 160.1435 
L 254.881875 160.1435 
L 254.881875 160.1435 
L 254.881875 160.1435 
L 254.881875 160.1435 
L 254.881875 160.1435 
L 254.881875 160.1435 
L 254.881875 160.1435 
L 254.881875 160.1435 
L 254.881875 160.1435 
L 254.881875 160.1435 
L 254.881875 160.1435 
L 254.881875 160.1435 
L 254.881875 160.1435 
z
" clip-path="url(#p9c8db4992a)" style="fill: #808080"/>
   </g>
   <g id="patch_7">
    <path d="M 271.887589 160.1435 
L 271.678221 158.161162 
L 271.05527 156.227637 
L 270.034077 154.390532 
L 268.639787 152.695085 
L 266.906731 151.183043 
L 264.877583 149.891637 
L 262.602308 148.852665 
L 260.13693 148.091712 
L 257.542155 147.627513 
L 254.881875 147.4715 
L 252.221595 147.627513 
L 249.62682 148.091712 
L 247.161442 148.852665 
L 244.886167 149.891637 
L 242.857019 151.183043 
L 241.123963 152.695085 
L 239.729673 154.390532 
L 238.70848 156.227637 
L 238.085529 158.161162 
L 237.876161 160.1435 
L 238.085529 162.125838 
L 238.70848 164.059363 
L 239.729673 165.896468 
L 241.123963 167.591915 
L 242.857019 169.103957 
L 244.886167 170.395363 
L 247.161442 171.434335 
L 249.62682 172.195288 
L 252.221595 172.659487 
L 254.881875 172.8155 
L 257.542155 172.659487 
L 260.13693 172.195288 
L 262.602308 171.434335 
L 264.877583 170.395363 
L 266.906731 169.103957 
L 268.639787 167.591915 
L 270.034077 165.896468 
L 271.05527 164.059363 
L 271.678221 162.125838 
L 271.887589 160.1435 
z
" clip-path="url(#p9c8db4992a)" style="fill: #808080"/>
   </g>
   <g id="patch_8">
    <path d="M 288.893304 160.1435 
L 288.474566 156.178825 
L 287.228666 152.311773 
L 285.18628 148.637565 
L 282.397699 145.246671 
L 278.931587 142.222586 
L 274.873291 139.639773 
L 270.32274 137.561831 
L 265.391984 136.039924 
L 260.202435 135.111527 
L 254.881875 134.7995 
L 249.561315 135.111527 
L 244.371766 136.039924 
L 239.44101 137.561831 
L 234.890459 139.639773 
L 230.832163 142.222586 
L 227.366051 145.246671 
L 224.57747 148.637565 
L 222.535084 152.311773 
L 221.289184 156.178825 
L 220.870446 160.1435 
L 221.289184 164.108175 
L 222.535084 167.975227 
L 224.57747 171.649435 
L 227.366051 175.040329 
L 230.832163 178.064414 
L 234.890459 180.647227 
L 239.44101 182.725169 
L 244.371766 184.247076 
L 249.561315 185.175473 
L 254.881875 185.4875 
L 260.202435 185.175473 
L 265.391984 184.247076 
L 270.32274 182.725169 
L 274.873291 180.647227 
L 278.931587 178.064414 
L 282.397699 175.040329 
L 285.18628 171.649435 
L 287.228666 167.975227 
L 288.474566 164.108175 
L 288.893304 160.1435 
z
" clip-path="url(#p9c8db4992a)" style="fill: #808080"/>
   </g>
   <g id="patch_9">
    <path d="M 305.899018 160.1435 
L 305.270912 154.196487 
L 303.402061 148.39591 
L 300.338482 142.884597 
L 296.155611 137.798256 
L 290.956443 133.262129 
L 284.868999 129.38791 
L 278.043173 126.270996 
L 270.647039 123.988135 
L 262.862714 122.59554 
L 254.881875 122.1275 
L 246.901036 122.59554 
L 239.116711 123.988135 
L 231.720577 126.270996 
L 224.894751 129.38791 
L 218.807307 133.262129 
L 213.608139 137.798256 
L 209.425268 142.884597 
L 206.361689 148.39591 
L 204.492838 154.196487 
L 203.864732 160.1435 
L 204.492838 166.090513 
L 206.361689 171.89109 
L 209.425268 177.402403 
L 213.608139 182.488744 
L 218.807307 187.024871 
L 224.894751 190.89909 
L 231.720577 194.016004 
L 239.116711 196.298865 
L 246.901036 197.69146 
L 254.881875 198.1595 
L 262.862714 197.69146 
L 270.647039 196.298865 
L 278.043173 194.016004 
L 284.868999 190.89909 
L 290.956443 187.024871 
L 296.155611 182.488744 
L 300.338482 177.402403 
L 303.402061 171.89109 
L 305.270912 166.090513 
L 305.899018 160.1435 
z
" clip-path="url(#p9c8db4992a)" style="fill: #808080"/>
   </g>
   <g id="patch_10">
    <path d="M 322.904732 160.1435 
L 322.067258 152.21415 
L 319.575457 144.480047 
L 315.490685 137.13163 
L 309.913522 130.349841 
L 302.981299 124.301671 
L 294.864707 119.136047 
L 285.763606 114.980161 
L 275.902094 111.936347 
L 265.522994 110.079553 
L 254.881875 109.4555 
L 244.240756 110.079553 
L 233.861656 111.936347 
L 224.000144 114.980161 
L 214.899043 119.136047 
L 206.782451 124.301671 
L 199.850228 130.349841 
L 194.273065 137.13163 
L 190.188293 144.480047 
L 187.696492 152.21415 
L 186.859018 160.1435 
L 187.696492 168.07285 
L 190.188293 175.806953 
L 194.273065 183.15537 
L 199.850228 189.937159 
L 206.782451 195.985329 
L 214.899043 201.150953 
L 224.000144 205.306839 
L 233.861656 208.350653 
L 244.240756 210.207447 
L 254.881875 210.8315 
L 265.522994 210.207447 
L 275.902094 208.350653 
L 285.763606 205.306839 
L 294.864707 201.150953 
L 302.981299 195.985329 
L 309.913522 189.937159 
L 315.490685 183.15537 
L 319.575457 175.806953 
L 322.067258 168.07285 
L 322.904732 160.1435 
z
" clip-path="url(#p9c8db4992a)" style="fill: #808080"/>
   </g>
   <g id="patch_11">
    <path d="M 339.910446 160.1435 
L 338.863604 150.231812 
L 335.748852 140.564183 
L 330.642887 131.378662 
L 323.671434 122.901426 
L 315.006154 115.341214 
L 304.860415 108.884183 
L 293.484039 103.689327 
L 281.157149 99.884559 
L 268.183274 97.563567 
L 254.881875 96.7835 
L 241.580476 97.563567 
L 228.606601 99.884559 
L 216.279711 103.689327 
L 204.903335 108.884183 
L 194.757596 115.341214 
L 186.092316 122.901426 
L 179.120863 131.378662 
L 174.014898 140.564183 
L 170.900146 150.231812 
L 169.853304 160.1435 
L 170.900146 170.055188 
L 174.014898 179.722817 
L 179.120863 188.908338 
L 186.092316 197.385574 
L 194.757596 204.945786 
L 204.903335 211.402817 
L 216.279711 216.597673 
L 228.606601 220.402441 
L 241.580476 222.723433 
L 254.881875 223.5035 
L 268.183274 222.723433 
L 281.157149 220.402441 
L 293.484039 216.597673 
L 304.860415 211.402817 
L 315.006154 204.945786 
L 323.671434 197.385574 
L 330.642887 188.908338 
L 335.748852 179.722817 
L 338.863604 170.055188 
L 339.910446 160.1435 
z
" clip-path="url(#p9c8db4992a)" style="fill: #808080"/>
   </g>
   <g id="patch_12">
    <path d="M 356.916161 160.1435 
L 355.659949 148.249475 
L 351.922247 136.64832 
L 345.795089 125.625694 
L 337.429346 115.453012 
L 327.03101 106.380757 
L 314.856123 98.63232 
L 301.204471 92.398492 
L 286.412203 87.832771 
L 270.843554 85.04758 
L 254.881875 84.1115 
L 238.920196 85.04758 
L 223.351547 87.832771 
L 208.559279 92.398492 
L 194.907627 98.63232 
L 182.73274 106.380757 
L 172.334404 115.453012 
L 163.968661 125.625694 
L 157.841503 136.64832 
L 154.103801 148.249475 
L 152.847589 160.1435 
L 154.103801 172.037525 
L 157.841503 183.63868 
L 163.968661 194.661306 
L 172.334404 204.833988 
L 182.73274 213.906243 
L 194.907627 221.65468 
L 208.559279 227.888508 
L 223.351547 232.454229 
L 238.920196 235.23942 
L 254.881875 236.1755 
L 270.843554 235.23942 
L 286.412203 232.454229 
L 301.204471 227.888508 
L 314.856123 221.65468 
L 327.03101 213.906243 
L 337.429346 204.833988 
L 345.795089 194.661306 
L 351.922247 183.63868 
L 355.659949 172.037525 
L 356.916161 160.1435 
z
" clip-path="url(#p9c8db4992a)" style="fill: #808080"/>
   </g>
   <g id="patch_13">
    <path d="M 373.921875 160.1435 
L 372.456295 146.267137 
L 368.095643 132.732457 
L 360.947292 119.872727 
L 351.187258 108.004597 
L 339.055866 97.4203 
L 324.851831 88.380457 
L 308.924904 81.107657 
L 291.667258 75.780983 
L 273.503834 72.531593 
L 254.881875 71.4395 
L 236.259916 72.531593 
L 218.096492 75.780983 
L 200.838846 81.107657 
L 184.911919 88.380457 
L 170.707884 97.4203 
L 158.576492 108.004597 
L 148.816458 119.872727 
L 141.668107 132.732457 
L 137.307455 146.267137 
L 135.841875 160.1435 
L 137.307455 174.019863 
L 141.668107 187.554543 
L 148.816458 200.414273 
L 158.576492 212.282403 
L 170.707884 222.8667 
L 184.911919 231.906543 
L 200.838846 239.179343 
L 218.096492 244.506017 
L 236.259916 247.755407 
L 254.881875 248.8475 
L 273.503834 247.755407 
L 291.667258 244.506017 
L 308.924904 239.179343 
L 324.851831 231.906543 
L 339.055866 222.8667 
L 351.187258 212.282403 
L 360.947292 200.414273 
L 368.095643 187.554543 
L 372.456295 174.019863 
L 373.921875 160.1435 
z
" clip-path="url(#p9c8db4992a)" style="fill: #808080"/>
   </g>
   <g id="patch_14">
    <path d="M 390.927589 160.1435 
L 389.252641 144.2848 
L 384.269038 128.816593 
L 376.099494 114.119759 
L 364.94517 100.556182 
L 351.080722 88.459843 
L 334.847539 78.128593 
L 316.645337 69.816823 
L 296.922313 63.729195 
L 276.164114 60.015607 
L 254.881875 58.7675 
L 233.599636 60.015607 
L 212.841437 63.729195 
L 193.118413 69.816823 
L 174.916211 78.128593 
L 158.683028 88.459843 
L 144.81858 100.556182 
L 133.664256 114.119759 
L 125.494712 128.816593 
L 120.511109 144.2848 
L 118.836161 160.1435 
L 120.511109 176.0022 
L 125.494712 191.470407 
L 133.664256 206.167241 
L 144.81858 219.730818 
L 158.683028 231.827157 
L 174.916211 242.158407 
L 193.118413 250.470177 
L 212.841437 256.557805 
L 233.599636 260.271393 
L 254.881875 261.5195 
L 276.164114 260.271393 
L 296.922313 256.557805 
L 316.645337 250.470177 
L 334.847539 242.158407 
L 351.080722 231.827157 
L 364.94517 219.730818 
L 376.099494 206.167241 
L 384.269038 191.470407 
L 389.252641 176.0022 
L 390.927589 160.1435 
z
" clip-path="url(#p9c8db4992a)" style="fill: #808080"/>
   </g>
   <g id="patch_15">
    <path d="M 407.933304 160.1435 
L 406.048987 142.302462 
L 400.442433 124.90073 
L 391.251696 108.366791 
L 378.703082 93.107768 
L 363.105578 79.499386 
L 344.843248 67.87673 
L 324.36577 58.525988 
L 302.177367 51.677406 
L 278.824393 47.49962 
L 254.881875 46.0955 
L 230.939357 47.49962 
L 207.586383 51.677406 
L 185.39798 58.525988 
L 164.920502 67.87673 
L 146.658172 79.499386 
L 131.060668 93.107768 
L 118.512054 108.366791 
L 109.321317 124.90073 
L 103.714763 142.302462 
L 101.830446 160.1435 
L 103.714763 177.984538 
L 109.321317 195.38627 
L 118.512054 211.920209 
L 131.060668 227.179232 
L 146.658172 240.787614 
L 164.920502 252.41027 
L 185.39798 261.761012 
L 207.586383 268.609594 
L 230.939357 272.78738 
L 254.881875 274.1915 
L 278.824393 272.78738 
L 302.177367 268.609594 
L 324.36577 261.761012 
L 344.843248 252.41027 
L 363.105578 240.787614 
L 378.703082 227.179232 
L 391.251696 211.920209 
L 400.442433 195.38627 
L 406.048987 177.984538 
L 407.933304 160.1435 
z
" clip-path="url(#p9c8db4992a)" style="fill: #808080"/>
   </g>
   <g id="patch_16">
    <path d="M 424.939018 160.1435 
L 422.845332 140.320125 
L 416.615829 120.984866 
L 406.403899 102.613824 
L 392.460994 85.659353 
L 375.130434 70.538929 
L 354.838956 57.624866 
L 332.086202 47.235153 
L 307.432422 39.625618 
L 281.484673 34.983633 
L 254.881875 33.4235 
L 228.279077 34.983633 
L 202.331328 39.625618 
L 177.677548 47.235153 
L 154.924794 57.624866 
L 134.633316 70.538929 
L 117.302756 85.659353 
L 103.359851 102.613824 
L 93.147921 120.984866 
L 86.918418 140.320125 
L 84.824732 160.1435 
L 86.918418 179.966875 
L 93.147921 199.302134 
L 103.359851 217.673176 
L 117.302756 234.627647 
L 134.633316 249.748071 
L 154.924794 262.662134 
L 177.677548 273.051847 
L 202.331328 280.661382 
L 228.279077 285.303367 
L 254.881875 286.8635 
L 281.484673 285.303367 
L 307.432422 280.661382 
L 332.086202 273.051847 
L 354.838956 262.662134 
L 375.130434 249.748071 
L 392.460994 234.627647 
L 406.403899 217.673176 
L 416.615829 199.302134 
L 422.845332 179.966875 
L 424.939018 160.1435 
z
" clip-path="url(#p9c8db4992a)" style="fill: #808080"/>
   </g>
   <g id="patch_17">
    <path d="M 428.765304 160.1435 
L 428.157894 158.602025 
L 426.528514 157.549957 
L 424.394481 157.321321 
L 422.433334 157.988707 
L 421.267724 159.340224 
L 421.267724 160.946776 
L 422.433334 162.298293 
L 424.394481 162.965679 
L 426.528514 162.737043 
L 428.157894 161.684975 
L 428.765304 160.1435 
z
" clip-path="url(#p9c8db4992a)"/>
   </g>
   <g id="patch_18">
    <path d="M 426.953067 141.69292 
L 426.345658 140.151445 
L 424.716278 139.099377 
L 422.582244 138.870741 
L 420.621097 139.538127 
L 419.455487 140.889644 
L 419.455487 142.496196 
L 420.621097 143.847713 
L 422.582244 144.515099 
L 424.716278 144.286463 
L 426.345658 143.234395 
z
" clip-path="url(#p9c8db4992a)"/>
   </g>
   <g id="patch_19">
    <path d="M 421.554983 123.635582 
L 420.947573 122.094107 
L 419.318194 121.042039 
L 417.18416 120.813403 
L 415.223013 121.480789 
L 414.057403 122.832306 
L 414.057403 124.438858 
L 415.223013 125.790375 
L 417.18416 126.457761 
L 419.318194 126.229125 
L 420.947573 125.177057 
z
" clip-path="url(#p9c8db4992a)"/>
   </g>
   <g id="patch_20">
    <path d="M 412.686101 106.356347 
L 412.078692 104.814872 
L 410.449312 103.762804 
L 408.315278 103.534168 
L 406.354131 104.201554 
L 405.188521 105.553071 
L 405.188521 107.159623 
L 406.354131 108.51114 
L 408.315278 109.178526 
L 410.449312 108.94989 
L 412.078692 107.897822 
z
" clip-path="url(#p9c8db4992a)"/>
   </g>
   <g id="patch_21">
    <path d="M 400.535447 90.223492 
L 399.928037 88.682017 
L 398.298658 87.629949 
L 396.164624 87.401313 
L 394.203477 88.068699 
L 393.037867 89.420216 
L 393.037867 91.026768 
L 394.203477 92.378285 
L 396.164624 93.045671 
L 398.298658 92.817035 
L 399.928037 91.764967 
z
" clip-path="url(#p9c8db4992a)"/>
   </g>
   <g id="patch_22">
    <path d="M 385.36199 75.58086 
L 384.754581 74.039385 
L 383.125201 72.987317 
L 380.991167 72.758681 
L 379.03002 73.426067 
L 377.86441 74.777584 
L 377.86441 76.384136 
L 379.03002 77.735653 
L 380.991167 78.403039 
L 383.125201 78.174403 
L 384.754581 77.122335 
z
" clip-path="url(#p9c8db4992a)"/>
   </g>
   <g id="patch_23">
    <path d="M 367.489127 62.740534 
L 366.881718 61.199059 
L 365.252338 60.146992 
L 363.118304 59.918356 
L 361.157157 60.585741 
L 359.991547 61.937259 
L 359.991547 63.54381 
L 361.157157 64.895328 
L 363.118304 65.562713 
L 365.252338 65.334077 
L 366.881718 64.28201 
z
" clip-path="url(#p9c8db4992a)"/>
   </g>
   <g id="patch_24">
    <path d="M 347.297787 51.976184 
L 346.690377 50.434709 
L 345.060997 49.382641 
L 342.926964 49.154005 
L 340.965817 49.821391 
L 339.800207 51.172908 
L 339.800207 52.77946 
L 340.965817 54.130977 
L 342.926964 54.798363 
L 345.060997 54.569727 
L 346.690377 53.517659 
z
" clip-path="url(#p9c8db4992a)"/>
   </g>
   <g id="patch_25">
    <path d="M 325.218312 43.517232 
L 324.610903 41.975757 
L 322.981523 40.923689 
L 320.847489 40.695053 
L 318.886342 41.362438 
L 317.720732 42.713956 
L 317.720732 44.320507 
L 318.886342 45.672025 
L 320.847489 46.339411 
L 322.981523 46.110774 
L 324.610903 45.058707 
z
" clip-path="url(#p9c8db4992a)"/>
   </g>
   <g id="patch_26">
    <path d="M 301.721289 37.543966 
L 301.11388 36.002491 
L 299.4845 34.950423 
L 297.350466 34.721787 
L 295.389319 35.389173 
L 294.223709 36.74069 
L 294.223709 38.347242 
L 295.389319 39.698759 
L 297.350466 40.366145 
L 299.4845 40.137509 
L 301.11388 39.085441 
z
" clip-path="url(#p9c8db4992a)"/>
   </g>
   <g id="patch_27">
    <path d="M 277.307516 34.183696 
L 276.700107 32.642221 
L 275.070727 31.590154 
L 272.936693 31.361518 
L 270.975546 32.028903 
L 269.809936 33.380421 
L 269.809936 34.986972 
L 270.975546 36.33849 
L 272.936693 37.005875 
L 275.070727 36.777239 
L 276.700107 35.725172 
z
" clip-path="url(#p9c8db4992a)"/>
   </g>
   <g id="patch_28">
    <path d="M 252.49733 33.508041 
L 251.88992 31.966566 
L 250.260541 30.914499 
L 248.126507 30.685863 
L 246.16536 31.353248 
L 244.99975 32.704766 
L 244.99975 34.311317 
L 246.16536 35.662835 
L 248.126507 36.33022 
L 250.260541 36.101584 
L 251.88992 35.049517 
z
" clip-path="url(#p9c8db4992a)"/>
   </g>
   <g id="patch_29">
    <path d="M 227.819517 35.531401 
L 227.212107 33.989926 
L 225.582728 32.937859 
L 223.448694 32.709223 
L 221.487547 33.376608 
L 220.321937 34.728126 
L 220.321937 36.334677 
L 221.487547 37.686195 
L 223.448694 38.35358 
L 225.582728 38.124944 
L 227.212107 37.072877 
z
" clip-path="url(#p9c8db4992a)"/>
   </g>
   <g id="patch_30">
    <path d="M 203.800042 40.210652 
L 203.192632 38.669177 
L 201.563252 37.617109 
L 199.429219 37.388473 
L 197.468072 38.055859 
L 196.302462 39.407376 
L 196.302462 41.013928 
L 197.468072 42.365445 
L 199.429219 43.032831 
L 201.563252 42.804195 
L 203.192632 41.752127 
z
" clip-path="url(#p9c8db4992a)"/>
   </g>
   <g id="patch_31">
    <path d="M 180.950838 47.446063 
L 180.343428 45.904588 
L 178.714048 44.85252 
L 176.580015 44.623884 
L 174.618868 45.29127 
L 173.453258 46.642787 
L 173.453258 48.249339 
L 174.618868 49.600856 
L 176.580015 50.268242 
L 178.714048 50.039606 
L 180.343428 48.987538 
z
" clip-path="url(#p9c8db4992a)"/>
   </g>
   <g id="patch_32">
    <path d="M 159.758896 57.083424 
L 159.151487 55.541949 
L 157.522107 54.489881 
L 155.388073 54.261245 
L 153.426926 54.928631 
L 152.261316 56.280148 
L 152.261316 57.8867 
L 153.426926 59.238217 
L 155.388073 59.905603 
L 157.522107 59.676967 
L 159.151487 58.624899 
z
" clip-path="url(#p9c8db4992a)"/>
   </g>
   <g id="patch_33">
    <path d="M 140.675886 68.917332 
L 140.068477 67.375857 
L 138.439097 66.323789 
L 136.305063 66.095153 
L 134.343916 66.762539 
L 133.178306 68.114056 
L 133.178306 69.720608 
L 134.343916 71.072125 
L 136.305063 71.739511 
L 138.439097 71.510875 
L 140.068477 70.458807 
z
" clip-path="url(#p9c8db4992a)"/>
   </g>
   <g id="patch_34">
    <path d="M 124.108529 82.695567 
L 123.50112 81.154092 
L 121.87174 80.102024 
L 119.737706 79.873388 
L 117.776559 80.540774 
L 116.610949 81.892291 
L 116.610949 83.498843 
L 117.776559 84.85036 
L 119.737706 85.517746 
L 121.87174 85.28911 
L 123.50112 84.237042 
z
" clip-path="url(#p9c8db4992a)"/>
   </g>
   <g id="patch_35">
    <path d="M 110.40993 98.12447 
L 109.802521 96.582995 
L 108.173141 95.530928 
L 106.039107 95.302291 
L 104.07796 95.969677 
L 102.91235 97.321194 
L 102.91235 98.927746 
L 104.07796 100.279264 
L 106.039107 100.946649 
L 108.173141 100.718013 
L 109.802521 99.665945 
z
" clip-path="url(#p9c8db4992a)"/>
   </g>
   <g id="patch_36">
    <path d="M 99.87205 114.875202 
L 99.264641 113.333727 
L 97.635261 112.281659 
L 95.501227 112.053023 
L 93.54008 112.720408 
L 92.37447 114.071926 
L 92.37447 115.678478 
L 93.54008 117.029995 
L 95.501227 117.697381 
L 97.635261 117.468744 
L 99.264641 116.416677 
z
" clip-path="url(#p9c8db4992a)"/>
   </g>
   <g id="patch_37">
    <path d="M 92.719486 132.590748 
L 92.112076 131.049273 
L 90.482697 129.997205 
L 88.348663 129.768569 
L 86.387516 130.435955 
L 85.221906 131.787472 
L 85.221906 133.394024 
L 86.387516 134.745541 
L 88.348663 135.412927 
L 90.482697 135.184291 
L 92.112076 134.132223 
z
" clip-path="url(#p9c8db4992a)"/>
   </g>
   <g id="patch_38">
    <path d="M 89.104682 150.893534 
L 88.497273 149.352059 
L 86.867893 148.299991 
L 84.733859 148.071355 
L 82.772712 148.738741 
L 81.607102 150.090258 
L 81.607102 151.69681 
L 82.772712 153.048327 
L 84.733859 153.715713 
L 86.867893 153.487076 
L 88.497273 152.435009 
L 89.104682 150.893534 
z
" clip-path="url(#p9c8db4992a)"/>
   </g>
   <g id="patch_39">
    <path d="M 89.104682 169.393466 
L 88.497273 167.851991 
L 86.867893 166.799924 
L 84.733859 166.571287 
L 82.772712 167.238673 
L 81.607102 168.59019 
L 81.607102 170.196742 
L 82.772712 171.548259 
L 84.733859 172.215645 
L 86.867893 171.987009 
L 88.497273 170.934941 
L 89.104682 169.393466 
z
" clip-path="url(#p9c8db4992a)"/>
   </g>
   <g id="patch_40">
    <path d="M 92.719486 187.696252 
L 92.112076 186.154777 
L 90.482697 185.102709 
L 88.348663 184.874073 
L 86.387516 185.541459 
L 85.221906 186.892976 
L 85.221906 188.499528 
L 86.387516 189.851045 
L 88.348663 190.518431 
L 90.482697 190.289795 
L 92.112076 189.237727 
z
" clip-path="url(#p9c8db4992a)"/>
   </g>
   <g id="patch_41">
    <path d="M 99.87205 205.411798 
L 99.264641 203.870323 
L 97.635261 202.818256 
L 95.501227 202.589619 
L 93.54008 203.257005 
L 92.37447 204.608522 
L 92.37447 206.215074 
L 93.54008 207.566592 
L 95.501227 208.233977 
L 97.635261 208.005341 
L 99.264641 206.953273 
z
" clip-path="url(#p9c8db4992a)"/>
   </g>
   <g id="patch_42">
    <path d="M 110.40993 222.16253 
L 109.802521 220.621055 
L 108.173141 219.568987 
L 106.039107 219.340351 
L 104.07796 220.007736 
L 102.91235 221.359254 
L 102.91235 222.965806 
L 104.07796 224.317323 
L 106.039107 224.984709 
L 108.173141 224.756072 
L 109.802521 223.704005 
z
" clip-path="url(#p9c8db4992a)"/>
   </g>
   <g id="patch_43">
    <path d="M 124.108529 237.591433 
L 123.50112 236.049958 
L 121.87174 234.99789 
L 119.737706 234.769254 
L 117.776559 235.43664 
L 116.610949 236.788157 
L 116.610949 238.394709 
L 117.776559 239.746226 
L 119.737706 240.413612 
L 121.87174 240.184976 
L 123.50112 239.132908 
z
" clip-path="url(#p9c8db4992a)"/>
   </g>
   <g id="patch_44">
    <path d="M 140.675886 251.369668 
L 140.068477 249.828193 
L 138.439097 248.776125 
L 136.305063 248.547489 
L 134.343916 249.214875 
L 133.178306 250.566392 
L 133.178306 252.172944 
L 134.343916 253.524461 
L 136.305063 254.191847 
L 138.439097 253.963211 
L 140.068477 252.911143 
z
" clip-path="url(#p9c8db4992a)"/>
   </g>
   <g id="patch_45">
    <path d="M 159.758896 263.203576 
L 159.151487 261.662101 
L 157.522107 260.610033 
L 155.388073 260.381397 
L 153.426926 261.048783 
L 152.261316 262.4003 
L 152.261316 264.006852 
L 153.426926 265.358369 
L 155.388073 266.025755 
L 157.522107 265.797119 
L 159.151487 264.745051 
z
" clip-path="url(#p9c8db4992a)"/>
   </g>
   <g id="patch_46">
    <path d="M 180.950838 272.840937 
L 180.343428 271.299462 
L 178.714048 270.247394 
L 176.580015 270.018758 
L 174.618868 270.686144 
L 173.453258 272.037661 
L 173.453258 273.644213 
L 174.618868 274.99573 
L 176.580015 275.663116 
L 178.714048 275.43448 
L 180.343428 274.382412 
z
" clip-path="url(#p9c8db4992a)"/>
   </g>
   <g id="patch_47">
    <path d="M 203.800042 280.076348 
L 203.192632 278.534873 
L 201.563252 277.482805 
L 199.429219 277.254169 
L 197.468072 277.921555 
L 196.302462 279.273072 
L 196.302462 280.879624 
L 197.468072 282.231141 
L 199.429219 282.898527 
L 201.563252 282.669891 
L 203.192632 281.617823 
z
" clip-path="url(#p9c8db4992a)"/>
   </g>
   <g id="patch_48">
    <path d="M 227.819517 284.755599 
L 227.212107 283.214123 
L 225.582728 282.162056 
L 223.448694 281.93342 
L 221.487547 282.600805 
L 220.321937 283.952323 
L 220.321937 285.558874 
L 221.487547 286.910392 
L 223.448694 287.577777 
L 225.582728 287.349141 
L 227.212107 286.297074 
z
" clip-path="url(#p9c8db4992a)"/>
   </g>
   <g id="patch_49">
    <path d="M 252.49733 286.778959 
L 251.88992 285.237483 
L 250.260541 284.185416 
L 248.126507 283.95678 
L 246.16536 284.624165 
L 244.99975 285.975683 
L 244.99975 287.582234 
L 246.16536 288.933752 
L 248.126507 289.601137 
L 250.260541 289.372501 
L 251.88992 288.320434 
z
" clip-path="url(#p9c8db4992a)"/>
   </g>
   <g id="patch_50">
    <path d="M 277.307516 286.103304 
L 276.700107 284.561828 
L 275.070727 283.509761 
L 272.936693 283.281125 
L 270.975546 283.94851 
L 269.809936 285.300028 
L 269.809936 286.906579 
L 270.975546 288.258097 
L 272.936693 288.925482 
L 275.070727 288.696846 
L 276.700107 287.644779 
z
" clip-path="url(#p9c8db4992a)"/>
   </g>
   <g id="patch_51">
    <path d="M 301.721289 282.743034 
L 301.11388 281.201559 
L 299.4845 280.149491 
L 297.350466 279.920855 
L 295.389319 280.588241 
L 294.223709 281.939758 
L 294.223709 283.54631 
L 295.389319 284.897827 
L 297.350466 285.565213 
L 299.4845 285.336577 
L 301.11388 284.284509 
z
" clip-path="url(#p9c8db4992a)"/>
   </g>
   <g id="patch_52">
    <path d="M 325.218312 276.769768 
L 324.610903 275.228293 
L 322.981523 274.176226 
L 320.847489 273.947589 
L 318.886342 274.614975 
L 317.720732 275.966493 
L 317.720732 277.573044 
L 318.886342 278.924562 
L 320.847489 279.591947 
L 322.981523 279.363311 
L 324.610903 278.311243 
z
" clip-path="url(#p9c8db4992a)"/>
   </g>
   <g id="patch_53">
    <path d="M 347.297787 268.310816 
L 346.690377 266.769341 
L 345.060997 265.717273 
L 342.926964 265.488637 
L 340.965817 266.156023 
L 339.800207 267.50754 
L 339.800207 269.114092 
L 340.965817 270.465609 
L 342.926964 271.132995 
L 345.060997 270.904359 
L 346.690377 269.852291 
z
" clip-path="url(#p9c8db4992a)"/>
   </g>
   <g id="patch_54">
    <path d="M 367.489127 257.546466 
L 366.881718 256.00499 
L 365.252338 254.952923 
L 363.118304 254.724287 
L 361.157157 255.391672 
L 359.991547 256.74319 
L 359.991547 258.349741 
L 361.157157 259.701259 
L 363.118304 260.368644 
L 365.252338 260.140008 
L 366.881718 259.087941 
z
" clip-path="url(#p9c8db4992a)"/>
   </g>
   <g id="patch_55">
    <path d="M 385.36199 244.70614 
L 384.754581 243.164665 
L 383.125201 242.112597 
L 380.991167 241.883961 
L 379.03002 242.551347 
L 377.86441 243.902864 
L 377.86441 245.509416 
L 379.03002 246.860933 
L 380.991167 247.528319 
L 383.125201 247.299683 
L 384.754581 246.247615 
z
" clip-path="url(#p9c8db4992a)"/>
   </g>
   <g id="patch_56">
    <path d="M 400.535447 230.063508 
L 399.928037 228.522033 
L 398.298658 227.469965 
L 396.164624 227.241329 
L 394.203477 227.908715 
L 393.037867 229.260232 
L 393.037867 230.866784 
L 394.203477 232.218301 
L 396.164624 232.885687 
L 398.298658 232.657051 
L 399.928037 231.604983 
z
" clip-path="url(#p9c8db4992a)"/>
   </g>
   <g id="patch_57">
    <path d="M 412.686101 213.930653 
L 412.078692 212.389178 
L 410.449312 211.33711 
L 408.315278 211.108474 
L 406.354131 211.77586 
L 405.188521 213.127377 
L 405.188521 214.733929 
L 406.354131 216.085446 
L 408.315278 216.752832 
L 410.449312 216.524196 
L 412.078692 215.472128 
z
" clip-path="url(#p9c8db4992a)"/>
   </g>
   <g id="patch_58">
    <path d="M 421.554983 196.651418 
L 420.947573 195.109943 
L 419.318194 194.057875 
L 417.18416 193.829239 
L 415.223013 194.496625 
L 414.057403 195.848142 
L 414.057403 197.454694 
L 415.223013 198.806211 
L 417.18416 199.473597 
L 419.318194 199.244961 
L 420.947573 198.192893 
z
" clip-path="url(#p9c8db4992a)"/>
   </g>
   <g id="patch_59">
    <path d="M 426.953067 178.59408 
L 426.345658 177.052605 
L 424.716278 176.000537 
L 422.582244 175.771901 
L 420.621097 176.439287 
L 419.455487 177.790804 
L 419.455487 179.397356 
L 420.621097 180.748873 
L 422.582244 181.416259 
L 424.716278 181.187623 
L 426.345658 180.135555 
z
" clip-path="url(#p9c8db4992a)"/>
   </g>
   <g id="patch_60">
    <path d="M 428.765304 160.1435 
L 428.157894 158.602025 
L 426.528514 157.549957 
L 424.394481 157.321321 
L 422.433334 157.988707 
L 421.267724 159.340224 
L 421.267724 160.946776 
L 422.433334 162.298293 
L 424.394481 162.965679 
L 426.528514 162.737043 
L 428.157894 161.684975 
L 428.765304 160.1435 
z
" clip-path="url(#p9c8db4992a)"/>
   </g>
   <g id="matplotlib.axis_1">
    <g id="xtick_1">
     <g id="line2d_1">
      <defs>
       <path id="m11d75b2660" d="M 0 0 
L 0 3.5 
" style="stroke: #000000; stroke-width: 0.8"/>
      </defs>
      <g>
       <use xlink:href="#m11d75b2660" x="148.596161" y="293.1995" style="stroke: #000000; stroke-width: 0.8"/>
      </g>
     </g>
     <g id="text_1">
      <!-- −0.5 -->
      <g transform="translate(130.457098 314.087) scale(0.2 -0.2)">
       <defs>
        <path id="TimesNewRomanPSMT-2212" d="M 3484 2000 
L 116 2000 
L 116 2256 
L 3484 2256 
L 3484 2000 
z
" transform="scale(0.015625)"/>
        <path id="TimesNewRomanPSMT-30" d="M 231 2094 
Q 231 2819 450 3342 
Q 669 3866 1031 4122 
Q 1313 4325 1613 4325 
Q 2100 4325 2488 3828 
Q 2972 3213 2972 2159 
Q 2972 1422 2759 906 
Q 2547 391 2217 158 
Q 1888 -75 1581 -75 
Q 975 -75 572 641 
Q 231 1244 231 2094 
z
M 844 2016 
Q 844 1141 1059 588 
Q 1238 122 1591 122 
Q 1759 122 1940 273 
Q 2122 425 2216 781 
Q 2359 1319 2359 2297 
Q 2359 3022 2209 3506 
Q 2097 3866 1919 4016 
Q 1791 4119 1609 4119 
Q 1397 4119 1231 3928 
Q 1006 3669 925 3112 
Q 844 2556 844 2016 
z
" transform="scale(0.015625)"/>
        <path id="TimesNewRomanPSMT-2e" d="M 800 606 
Q 947 606 1047 504 
Q 1147 403 1147 259 
Q 1147 116 1045 14 
Q 944 -88 800 -88 
Q 656 -88 554 14 
Q 453 116 453 259 
Q 453 406 554 506 
Q 656 606 800 606 
z
" transform="scale(0.015625)"/>
        <path id="TimesNewRomanPSMT-35" d="M 2778 4238 
L 2534 3706 
L 1259 3706 
L 981 3138 
Q 1809 3016 2294 2522 
Q 2709 2097 2709 1522 
Q 2709 1188 2573 903 
Q 2438 619 2231 419 
Q 2025 219 1772 97 
Q 1413 -75 1034 -75 
Q 653 -75 479 54 
Q 306 184 306 341 
Q 306 428 378 495 
Q 450 563 559 563 
Q 641 563 702 538 
Q 763 513 909 409 
Q 1144 247 1384 247 
Q 1750 247 2026 523 
Q 2303 800 2303 1197 
Q 2303 1581 2056 1914 
Q 1809 2247 1375 2428 
Q 1034 2569 447 2591 
L 1259 4238 
L 2778 4238 
z
" transform="scale(0.015625)"/>
       </defs>
       <use xlink:href="#TimesNewRomanPSMT-2212"/>
       <use xlink:href="#TimesNewRomanPSMT-30" x="56.396484"/>
       <use xlink:href="#TimesNewRomanPSMT-2e" x="106.396484"/>
       <use xlink:href="#TimesNewRomanPSMT-35" x="131.396484"/>
      </g>
     </g>
    </g>
    <g id="xtick_2">
     <g id="line2d_2">
      <g>
       <use xlink:href="#m11d75b2660" x="254.881875" y="293.1995" style="stroke: #000000; stroke-width: 0.8"/>
      </g>
     </g>
     <g id="text_2">
      <!-- 0.0 -->
      <g transform="translate(242.381875 314.087) scale(0.2 -0.2)">
       <use xlink:href="#TimesNewRomanPSMT-30"/>
       <use xlink:href="#TimesNewRomanPSMT-2e" x="50"/>
       <use xlink:href="#TimesNewRomanPSMT-30" x="75"/>
      </g>
     </g>
    </g>
    <g id="xtick_3">
     <g id="line2d_3">
      <g>
       <use xlink:href="#m11d75b2660" x="361.167589" y="293.1995" style="stroke: #000000; stroke-width: 0.8"/>
      </g>
     </g>
     <g id="text_3">
      <!-- 0.5 -->
      <g transform="translate(348.667589 314.087) scale(0.2 -0.2)">
       <use xlink:href="#TimesNewRomanPSMT-30"/>
       <use xlink:href="#TimesNewRomanPSMT-2e" x="50"/>
       <use xlink:href="#TimesNewRomanPSMT-35" x="75"/>
      </g>
     </g>
    </g>
    <g id="text_4">
     <!-- z-coord (m) -->
     <g transform="translate(197.911875 339.030125) scale(0.24 -0.24)">
      <defs>
       <path id="TimesNewRomanPSMT-7a" d="M 2688 878 
L 2653 0 
L 128 0 
L 128 113 
L 2028 2644 
L 1091 2644 
Q 788 2644 694 2605 
Q 600 2566 541 2456 
Q 456 2300 444 2069 
L 319 2069 
L 338 2863 
L 2738 2863 
L 2738 2747 
L 819 209 
L 1863 209 
Q 2191 209 2308 264 
Q 2425 319 2497 456 
Q 2547 556 2581 878 
L 2688 878 
z
" transform="scale(0.015625)"/>
       <path id="TimesNewRomanPSMT-2d" d="M 259 1672 
L 1875 1672 
L 1875 1200 
L 259 1200 
L 259 1672 
z
" transform="scale(0.015625)"/>
       <path id="TimesNewRomanPSMT-63" d="M 2631 1088 
Q 2516 522 2178 217 
Q 1841 -88 1431 -88 
Q 944 -88 581 321 
Q 219 731 219 1428 
Q 219 2103 620 2525 
Q 1022 2947 1584 2947 
Q 2006 2947 2278 2723 
Q 2550 2500 2550 2259 
Q 2550 2141 2473 2067 
Q 2397 1994 2259 1994 
Q 2075 1994 1981 2113 
Q 1928 2178 1911 2362 
Q 1894 2547 1784 2644 
Q 1675 2738 1481 2738 
Q 1169 2738 978 2506 
Q 725 2200 725 1697 
Q 725 1184 976 792 
Q 1228 400 1656 400 
Q 1963 400 2206 609 
Q 2378 753 2541 1131 
L 2631 1088 
z
" transform="scale(0.015625)"/>
       <path id="TimesNewRomanPSMT-6f" d="M 1600 2947 
Q 2250 2947 2644 2453 
Q 2978 2031 2978 1484 
Q 2978 1100 2793 706 
Q 2609 313 2286 112 
Q 1963 -88 1566 -88 
Q 919 -88 538 428 
Q 216 863 216 1403 
Q 216 1797 411 2186 
Q 606 2575 925 2761 
Q 1244 2947 1600 2947 
z
M 1503 2744 
Q 1338 2744 1170 2645 
Q 1003 2547 900 2300 
Q 797 2053 797 1666 
Q 797 1041 1045 587 
Q 1294 134 1700 134 
Q 2003 134 2200 384 
Q 2397 634 2397 1244 
Q 2397 2006 2069 2444 
Q 1847 2744 1503 2744 
z
" transform="scale(0.015625)"/>
       <path id="TimesNewRomanPSMT-72" d="M 1038 2947 
L 1038 2303 
Q 1397 2947 1775 2947 
Q 1947 2947 2059 2842 
Q 2172 2738 2172 2600 
Q 2172 2478 2090 2393 
Q 2009 2309 1897 2309 
Q 1788 2309 1652 2417 
Q 1516 2525 1450 2525 
Q 1394 2525 1328 2463 
Q 1188 2334 1038 2041 
L 1038 669 
Q 1038 431 1097 309 
Q 1138 225 1241 169 
Q 1344 113 1538 113 
L 1538 0 
L 72 0 
L 72 113 
Q 291 113 397 181 
Q 475 231 506 341 
Q 522 394 522 644 
L 522 1753 
Q 522 2253 501 2348 
Q 481 2444 426 2487 
Q 372 2531 291 2531 
Q 194 2531 72 2484 
L 41 2597 
L 906 2947 
L 1038 2947 
z
" transform="scale(0.015625)"/>
       <path id="TimesNewRomanPSMT-64" d="M 2222 322 
Q 2013 103 1813 7 
Q 1613 -88 1381 -88 
Q 913 -88 563 304 
Q 213 697 213 1313 
Q 213 1928 600 2439 
Q 988 2950 1597 2950 
Q 1975 2950 2222 2709 
L 2222 3238 
Q 2222 3728 2198 3840 
Q 2175 3953 2125 3993 
Q 2075 4034 2000 4034 
Q 1919 4034 1784 3984 
L 1744 4094 
L 2597 4444 
L 2738 4444 
L 2738 1134 
Q 2738 631 2761 520 
Q 2784 409 2836 365 
Q 2888 322 2956 322 
Q 3041 322 3181 375 
L 3216 266 
L 2366 -88 
L 2222 -88 
L 2222 322 
z
M 2222 541 
L 2222 2016 
Q 2203 2228 2109 2403 
Q 2016 2578 1861 2667 
Q 1706 2756 1559 2756 
Q 1284 2756 1069 2509 
Q 784 2184 784 1559 
Q 784 928 1059 592 
Q 1334 256 1672 256 
Q 1956 256 2222 541 
z
" transform="scale(0.015625)"/>
       <path id="TimesNewRomanPSMT-20" transform="scale(0.015625)"/>
       <path id="TimesNewRomanPSMT-28" d="M 1988 -1253 
L 1988 -1369 
Q 1516 -1131 1200 -813 
Q 750 -359 506 256 
Q 263 872 263 1534 
Q 263 2503 741 3301 
Q 1219 4100 1988 4444 
L 1988 4313 
Q 1603 4100 1356 3731 
Q 1109 3363 987 2797 
Q 866 2231 866 1616 
Q 866 947 969 400 
Q 1050 -31 1165 -292 
Q 1281 -553 1476 -793 
Q 1672 -1034 1988 -1253 
z
" transform="scale(0.015625)"/>
       <path id="TimesNewRomanPSMT-6d" d="M 1050 2338 
Q 1363 2650 1419 2697 
Q 1559 2816 1721 2881 
Q 1884 2947 2044 2947 
Q 2313 2947 2506 2790 
Q 2700 2634 2766 2338 
Q 3088 2713 3309 2830 
Q 3531 2947 3766 2947 
Q 3994 2947 4170 2830 
Q 4347 2713 4450 2447 
Q 4519 2266 4519 1878 
L 4519 647 
Q 4519 378 4559 278 
Q 4591 209 4675 161 
Q 4759 113 4950 113 
L 4950 0 
L 3538 0 
L 3538 113 
L 3597 113 
Q 3781 113 3884 184 
Q 3956 234 3988 344 
Q 4000 397 4000 647 
L 4000 1878 
Q 4000 2228 3916 2372 
Q 3794 2572 3525 2572 
Q 3359 2572 3192 2489 
Q 3025 2406 2788 2181 
L 2781 2147 
L 2788 2013 
L 2788 647 
Q 2788 353 2820 281 
Q 2853 209 2943 161 
Q 3034 113 3253 113 
L 3253 0 
L 1806 0 
L 1806 113 
Q 2044 113 2133 169 
Q 2222 225 2256 338 
Q 2272 391 2272 647 
L 2272 1878 
Q 2272 2228 2169 2381 
Q 2031 2581 1784 2581 
Q 1616 2581 1450 2491 
Q 1191 2353 1050 2181 
L 1050 647 
Q 1050 366 1089 281 
Q 1128 197 1204 155 
Q 1281 113 1516 113 
L 1516 0 
L 100 0 
L 100 113 
Q 297 113 375 155 
Q 453 197 493 289 
Q 534 381 534 647 
L 534 1741 
Q 534 2213 506 2350 
Q 484 2453 437 2492 
Q 391 2531 309 2531 
Q 222 2531 100 2484 
L 53 2597 
L 916 2947 
L 1050 2947 
L 1050 2338 
z
" transform="scale(0.015625)"/>
       <path id="TimesNewRomanPSMT-29" d="M 144 4313 
L 144 4444 
Q 619 4209 934 3891 
Q 1381 3434 1625 2820 
Q 1869 2206 1869 1541 
Q 1869 572 1392 -226 
Q 916 -1025 144 -1369 
L 144 -1253 
Q 528 -1038 776 -670 
Q 1025 -303 1145 264 
Q 1266 831 1266 1447 
Q 1266 2113 1163 2663 
Q 1084 3094 967 3353 
Q 850 3613 656 3853 
Q 463 4094 144 4313 
z
" transform="scale(0.015625)"/>
      </defs>
      <use xlink:href="#TimesNewRomanPSMT-7a"/>
      <use xlink:href="#TimesNewRomanPSMT-2d" x="44.384766"/>
      <use xlink:href="#TimesNewRomanPSMT-63" x="77.685547"/>
      <use xlink:href="#TimesNewRomanPSMT-6f" x="122.070312"/>
      <use xlink:href="#TimesNewRomanPSMT-6f" x="172.070312"/>
      <use xlink:href="#TimesNewRomanPSMT-72" x="222.070312"/>
      <use xlink:href="#TimesNewRomanPSMT-64" x="255.371094"/>
      <use xlink:href="#TimesNewRomanPSMT-20" x="305.371094"/>
      <use xlink:href="#TimesNewRomanPSMT-28" x="330.371094"/>
      <use xlink:href="#TimesNewRomanPSMT-6d" x="363.671875"/>
      <use xlink:href="#TimesNewRomanPSMT-29" x="441.455078"/>
     </g>
    </g>
   </g>
   <g id="matplotlib.axis_2">
    <g id="ytick_1">
     <g id="line2d_4">
      <defs>
       <path id="m702dd1157c" d="M 0 0 
L -3.5 0 
" style="stroke: #000000; stroke-width: 0.8"/>
      </defs>
      <g>
       <use xlink:href="#m702dd1157c" x="76.321875" y="239.3435" style="stroke: #000000; stroke-width: 0.8"/>
      </g>
     </g>
     <g id="text_5">
      <!-- −0.5 -->
      <g transform="translate(33.04375 246.28725) scale(0.2 -0.2)">
       <use xlink:href="#TimesNewRomanPSMT-2212"/>
       <use xlink:href="#TimesNewRomanPSMT-30" x="56.396484"/>
       <use xlink:href="#TimesNewRomanPSMT-2e" x="106.396484"/>
       <use xlink:href="#TimesNewRomanPSMT-35" x="131.396484"/>
      </g>
     </g>
    </g>
    <g id="ytick_2">
     <g id="line2d_5">
      <g>
       <use xlink:href="#m702dd1157c" x="76.321875" y="160.1435" style="stroke: #000000; stroke-width: 0.8"/>
      </g>
     </g>
     <g id="text_6">
      <!-- 0.0 -->
      <g transform="translate(44.321875 167.08725) scale(0.2 -0.2)">
       <use xlink:href="#TimesNewRomanPSMT-30"/>
       <use xlink:href="#TimesNewRomanPSMT-2e" x="50"/>
       <use xlink:href="#TimesNewRomanPSMT-30" x="75"/>
      </g>
     </g>
    </g>
    <g id="ytick_3">
     <g id="line2d_6">
      <g>
       <use xlink:href="#m702dd1157c" x="76.321875" y="80.9435" style="stroke: #000000; stroke-width: 0.8"/>
      </g>
     </g>
     <g id="text_7">
      <!-- 0.5 -->
      <g transform="translate(44.321875 87.88725) scale(0.2 -0.2)">
       <use xlink:href="#TimesNewRomanPSMT-30"/>
       <use xlink:href="#TimesNewRomanPSMT-2e" x="50"/>
       <use xlink:href="#TimesNewRomanPSMT-35" x="75"/>
      </g>
     </g>
    </g>
    <g id="text_8">
     <!-- y-coord (m) -->
     <g transform="translate(23.865 217.786625) rotate(-90) scale(0.24 -0.24)">
      <defs>
       <path id="TimesNewRomanPSMT-79" d="M 38 2863 
L 1372 2863 
L 1372 2747 
L 1306 2747 
Q 1166 2747 1095 2686 
Q 1025 2625 1025 2534 
Q 1025 2413 1128 2197 
L 1825 753 
L 2466 2334 
Q 2519 2463 2519 2588 
Q 2519 2644 2497 2672 
Q 2472 2706 2419 2726 
Q 2366 2747 2231 2747 
L 2231 2863 
L 3163 2863 
L 3163 2747 
Q 3047 2734 2984 2696 
Q 2922 2659 2847 2556 
Q 2819 2513 2741 2316 
L 1575 -541 
Q 1406 -956 1132 -1168 
Q 859 -1381 606 -1381 
Q 422 -1381 303 -1275 
Q 184 -1169 184 -1031 
Q 184 -900 270 -820 
Q 356 -741 506 -741 
Q 609 -741 788 -809 
Q 913 -856 944 -856 
Q 1038 -856 1148 -759 
Q 1259 -663 1372 -384 
L 1575 113 
L 547 2272 
Q 500 2369 397 2513 
Q 319 2622 269 2659 
Q 197 2709 38 2747 
L 38 2863 
z
" transform="scale(0.015625)"/>
      </defs>
      <use xlink:href="#TimesNewRomanPSMT-79"/>
      <use xlink:href="#TimesNewRomanPSMT-2d" x="50"/>
      <use xlink:href="#TimesNewRomanPSMT-63" x="83.300781"/>
      <use xlink:href="#TimesNewRomanPSMT-6f" x="127.685547"/>
      <use xlink:href="#TimesNewRomanPSMT-6f" x="177.685547"/>
      <use xlink:href="#TimesNewRomanPSMT-72" x="227.685547"/>
      <use xlink:href="#TimesNewRomanPSMT-64" x="260.986328"/>
      <use xlink:href="#TimesNewRomanPSMT-20" x="310.986328"/>
      <use xlink:href="#TimesNewRomanPSMT-28" x="335.986328"/>
      <use xlink:href="#TimesNewRomanPSMT-6d" x="369.287109"/>
      <use xlink:href="#TimesNewRomanPSMT-29" x="447.070312"/>
     </g>
    </g>
   </g>
   <g id="line2d_7">
    <path d="M 424.939018 160.1435 
L 422.845332 140.320125 
L 416.615829 120.984866 
L 406.403899 102.613824 
L 392.460994 85.659353 
L 375.130434 70.538929 
L 354.838956 57.624866 
L 332.086202 47.235153 
L 307.432422 39.625618 
L 281.484673 34.983633 
L 254.881875 33.4235 
L 228.279077 34.983633 
L 202.331328 39.625618 
L 177.677548 47.235153 
L 154.924794 57.624866 
L 134.633316 70.538929 
L 117.302756 85.659353 
L 103.359851 102.613824 
L 93.147921 120.984866 
L 86.918418 140.320125 
L 84.824732 160.1435 
L 86.918418 179.966875 
L 93.147921 199.302134 
L 103.359851 217.673176 
L 117.302756 234.627647 
L 134.633316 249.748071 
L 154.924794 262.662134 
L 177.677548 273.051847 
L 202.331328 280.661382 
L 228.279077 285.303367 
L 254.881875 286.8635 
L 281.484673 285.303367 
L 307.432422 280.661382 
L 332.086202 273.051847 
L 354.838956 262.662134 
L 375.130434 249.748071 
L 392.460994 234.627647 
L 406.403899 217.673176 
L 416.615829 199.302134 
L 422.845332 179.966875 
L 424.939018 160.1435 
" clip-path="url(#p9c8db4992a)" style="fill: none; stroke: #000000; stroke-linecap: square"/>
   </g>
   <g id="line2d_8">
    <path d="M 429.190446 160.1435 
L 427.044419 139.82454 
L 420.659178 120.005901 
L 410.191949 101.175582 
L 395.900472 83.797249 
L 378.136648 68.298814 
L 357.337883 55.061901 
L 334.01631 44.412445 
L 308.746186 36.612671 
L 282.149743 31.854637 
L 254.881875 30.2555 
L 227.614007 31.854637 
L 201.017564 36.612671 
L 175.74744 44.412445 
L 152.425867 55.061901 
L 131.627102 68.298814 
L 113.863278 83.797249 
L 99.571801 101.175582 
L 89.104572 120.005901 
L 82.719331 139.82454 
L 80.573304 160.1435 
L 82.719331 180.46246 
L 89.104572 200.281099 
L 99.571801 219.111418 
L 113.863278 236.489751 
L 131.627102 251.988186 
L 152.425867 265.225099 
L 175.74744 275.874555 
L 201.017564 283.674329 
L 227.614007 288.432363 
L 254.881875 290.0315 
L 282.149743 288.432363 
L 308.746186 283.674329 
L 334.01631 275.874555 
L 357.337883 265.225099 
L 378.136648 251.988186 
L 395.900472 236.489751 
L 410.191949 219.111418 
L 420.659178 200.281099 
L 427.044419 180.46246 
L 429.190446 160.1435 
" clip-path="url(#p9c8db4992a)" style="fill: none; stroke: #000000; stroke-linecap: square"/>
   </g>
   <g id="line2d_9">
    <path d="M 433.441875 160.1435 
L 431.243505 139.328956 
L 424.702527 119.026935 
L 413.98 99.73734 
L 399.33995 81.935145 
L 381.142862 66.0587 
L 359.83681 52.498935 
L 335.946419 41.589736 
L 310.05995 33.599724 
L 282.814813 28.72564 
L 254.881875 27.0875 
L 226.948937 28.72564 
L 199.7038 33.599724 
L 173.817331 41.589736 
L 149.92694 52.498935 
L 128.620888 66.0587 
L 110.4238 81.935145 
L 95.78375 99.73734 
L 85.061223 119.026935 
L 78.520245 139.328956 
L 76.321875 160.1435 
L 78.520245 180.958044 
L 85.061223 201.260065 
L 95.78375 220.54966 
L 110.4238 238.351855 
L 128.620888 254.2283 
L 149.92694 267.788065 
L 173.817331 278.697264 
L 199.7038 286.687276 
L 226.948937 291.56136 
L 254.881875 293.1995 
L 282.814813 291.56136 
L 310.05995 286.687276 
L 335.946419 278.697264 
L 359.83681 267.788065 
L 381.142862 254.2283 
L 399.33995 238.351855 
L 413.98 220.54966 
L 424.702527 201.260065 
L 431.243505 180.958044 
L 433.441875 160.1435 
" clip-path="url(#p9c8db4992a)" style="fill: none; stroke: #000000; stroke-linecap: square"/>
   </g>
   <g id="line2d_10">
    <path d="M 424.939018 160.1435 
L 433.441875 160.1435 
" clip-path="url(#p9c8db4992a)" style="fill: none; stroke: #000000; stroke-linecap: square"/>
   </g>
   <g id="line2d_11">
    <path d="M 416.615829 120.984866 
L 424.702527 119.026935 
" clip-path="url(#p9c8db4992a)" style="fill: none; stroke: #000000; stroke-linecap: square"/>
   </g>
   <g id="line2d_12">
    <path d="M 392.460994 85.659353 
L 399.33995 81.935145 
" clip-path="url(#p9c8db4992a)" style="fill: none; stroke: #000000; stroke-linecap: square"/>
   </g>
   <g id="line2d_13">
    <path d="M 354.838956 57.624866 
L 359.83681 52.498935 
" clip-path="url(#p9c8db4992a)" style="fill: none; stroke: #000000; stroke-linecap: square"/>
   </g>
   <g id="line2d_14">
    <path d="M 307.432422 39.625618 
L 310.05995 33.599724 
" clip-path="url(#p9c8db4992a)" style="fill: none; stroke: #000000; stroke-linecap: square"/>
   </g>
   <g id="line2d_15">
    <path d="M 254.881875 33.4235 
L 254.881875 27.0875 
" clip-path="url(#p9c8db4992a)" style="fill: none; stroke: #000000; stroke-linecap: square"/>
   </g>
   <g id="line2d_16">
    <path d="M 202.331328 39.625618 
L 199.7038 33.599724 
" clip-path="url(#p9c8db4992a)" style="fill: none; stroke: #000000; stroke-linecap: square"/>
   </g>
   <g id="line2d_17">
    <path d="M 154.924794 57.624866 
L 149.92694 52.498935 
" clip-path="url(#p9c8db4992a)" style="fill: none; stroke: #000000; stroke-linecap: square"/>
   </g>
   <g id="line2d_18">
    <path d="M 117.302756 85.659353 
L 110.4238 81.935145 
" clip-path="url(#p9c8db4992a)" style="fill: none; stroke: #000000; stroke-linecap: square"/>
   </g>
   <g id="line2d_19">
    <path d="M 93.147921 120.984866 
L 85.061223 119.026935 
" clip-path="url(#p9c8db4992a)" style="fill: none; stroke: #000000; stroke-linecap: square"/>
   </g>
   <g id="line2d_20">
    <path d="M 84.824732 160.1435 
L 76.321875 160.1435 
" clip-path="url(#p9c8db4992a)" style="fill: none; stroke: #000000; stroke-linecap: square"/>
   </g>
   <g id="line2d_21">
    <path d="M 93.147921 199.302134 
L 85.061223 201.260065 
" clip-path="url(#p9c8db4992a)" style="fill: none; stroke: #000000; stroke-linecap: square"/>
   </g>
   <g id="line2d_22">
    <path d="M 117.302756 234.627647 
L 110.4238 238.351855 
" clip-path="url(#p9c8db4992a)" style="fill: none; stroke: #000000; stroke-linecap: square"/>
   </g>
   <g id="line2d_23">
    <path d="M 154.924794 262.662134 
L 149.92694 267.788065 
" clip-path="url(#p9c8db4992a)" style="fill: none; stroke: #000000; stroke-linecap: square"/>
   </g>
   <g id="line2d_24">
    <path d="M 202.331328 280.661382 
L 199.7038 286.687276 
" clip-path="url(#p9c8db4992a)" style="fill: none; stroke: #000000; stroke-linecap: square"/>
   </g>
   <g id="line2d_25">
    <path d="M 254.881875 286.8635 
L 254.881875 293.1995 
" clip-path="url(#p9c8db4992a)" style="fill: none; stroke: #000000; stroke-linecap: square"/>
   </g>
   <g id="line2d_26">
    <path d="M 307.432422 280.661382 
L 310.05995 286.687276 
" clip-path="url(#p9c8db4992a)" style="fill: none; stroke: #000000; stroke-linecap: square"/>
   </g>
   <g id="line2d_27">
    <path d="M 354.838956 262.662134 
L 359.83681 267.788065 
" clip-path="url(#p9c8db4992a)" style="fill: none; stroke: #000000; stroke-linecap: square"/>
   </g>
   <g id="line2d_28">
    <path d="M 392.460994 234.627647 
L 399.33995 238.351855 
" clip-path="url(#p9c8db4992a)" style="fill: none; stroke: #000000; stroke-linecap: square"/>
   </g>
   <g id="line2d_29">
    <path d="M 416.615829 199.302134 
L 424.702527 201.260065 
" clip-path="url(#p9c8db4992a)" style="fill: none; stroke: #000000; stroke-linecap: square"/>
   </g>
   <g id="line2d_30">
    <path d="M 424.939018 160.1435 
L 433.441875 160.1435 
" clip-path="url(#p9c8db4992a)" style="fill: none; stroke: #000000; stroke-linecap: square"/>
   </g>
   <g id="line2d_31">
    <path d="M 254.881875 160.1435 
L 254.881875 160.1435 
L 254.881875 160.1435 
L 254.881875 160.1435 
L 254.881875 160.1435 
L 254.881875 160.1435 
L 254.881875 160.1435 
L 254.881875 160.1435 
L 254.881875 160.1435 
L 254.881875 160.1435 
L 254.881875 160.1435 
L 254.881875 160.1435 
L 254.881875 160.1435 
L 254.881875 160.1435 
L 254.881875 160.1435 
L 254.881875 160.1435 
L 254.881875 160.1435 
L 254.881875 160.1435 
L 254.881875 160.1435 
L 254.881875 160.1435 
L 254.881875 160.1435 
L 254.881875 160.1435 
L 254.881875 160.1435 
L 254.881875 160.1435 
L 254.881875 160.1435 
L 254.881875 160.1435 
L 254.881875 160.1435 
L 254.881875 160.1435 
L 254.881875 160.1435 
L 254.881875 160.1435 
L 254.881875 160.1435 
L 254.881875 160.1435 
L 254.881875 160.1435 
L 254.881875 160.1435 
L 254.881875 160.1435 
L 254.881875 160.1435 
L 254.881875 160.1435 
L 254.881875 160.1435 
L 254.881875 160.1435 
L 254.881875 160.1435 
L 254.881875 160.1435 
" clip-path="url(#p9c8db4992a)" style="fill: none; stroke: #000000; stroke-linecap: square"/>
   </g>
   <g id="line2d_32">
    <path d="M 271.887589 160.1435 
L 271.678221 158.161162 
L 271.05527 156.227637 
L 270.034077 154.390532 
L 268.639787 152.695085 
L 266.906731 151.183043 
L 264.877583 149.891637 
L 262.602308 148.852665 
L 260.13693 148.091712 
L 257.542155 147.627513 
L 254.881875 147.4715 
L 252.221595 147.627513 
L 249.62682 148.091712 
L 247.161442 148.852665 
L 244.886167 149.891637 
L 242.857019 151.183043 
L 241.123963 152.695085 
L 239.729673 154.390532 
L 238.70848 156.227637 
L 238.085529 158.161162 
L 237.876161 160.1435 
L 238.085529 162.125838 
L 238.70848 164.059363 
L 239.729673 165.896468 
L 241.123963 167.591915 
L 242.857019 169.103957 
L 244.886167 170.395363 
L 247.161442 171.434335 
L 249.62682 172.195288 
L 252.221595 172.659487 
L 254.881875 172.8155 
L 257.542155 172.659487 
L 260.13693 172.195288 
L 262.602308 171.434335 
L 264.877583 170.395363 
L 266.906731 169.103957 
L 268.639787 167.591915 
L 270.034077 165.896468 
L 271.05527 164.059363 
L 271.678221 162.125838 
L 271.887589 160.1435 
" clip-path="url(#p9c8db4992a)" style="fill: none; stroke: #000000; stroke-linecap: square"/>
   </g>
   <g id="line2d_33">
    <path d="M 288.893304 160.1435 
L 288.474566 156.178825 
L 287.228666 152.311773 
L 285.18628 148.637565 
L 282.397699 145.246671 
L 278.931587 142.222586 
L 274.873291 139.639773 
L 270.32274 137.561831 
L 265.391984 136.039924 
L 260.202435 135.111527 
L 254.881875 134.7995 
L 249.561315 135.111527 
L 244.371766 136.039924 
L 239.44101 137.561831 
L 234.890459 139.639773 
L 230.832163 142.222586 
L 227.366051 145.246671 
L 224.57747 148.637565 
L 222.535084 152.311773 
L 221.289184 156.178825 
L 220.870446 160.1435 
L 221.289184 164.108175 
L 222.535084 167.975227 
L 224.57747 171.649435 
L 227.366051 175.040329 
L 230.832163 178.064414 
L 234.890459 180.647227 
L 239.44101 182.725169 
L 244.371766 184.247076 
L 249.561315 185.175473 
L 254.881875 185.4875 
L 260.202435 185.175473 
L 265.391984 184.247076 
L 270.32274 182.725169 
L 274.873291 180.647227 
L 278.931587 178.064414 
L 282.397699 175.040329 
L 285.18628 171.649435 
L 287.228666 167.975227 
L 288.474566 164.108175 
L 288.893304 160.1435 
" clip-path="url(#p9c8db4992a)" style="fill: none; stroke: #000000; stroke-linecap: square"/>
   </g>
   <g id="line2d_34">
    <path d="M 305.899018 160.1435 
L 305.270912 154.196487 
L 303.402061 148.39591 
L 300.338482 142.884597 
L 296.155611 137.798256 
L 290.956443 133.262129 
L 284.868999 129.38791 
L 278.043173 126.270996 
L 270.647039 123.988135 
L 262.862714 122.59554 
L 254.881875 122.1275 
L 246.901036 122.59554 
L 239.116711 123.988135 
L 231.720577 126.270996 
L 224.894751 129.38791 
L 218.807307 133.262129 
L 213.608139 137.798256 
L 209.425268 142.884597 
L 206.361689 148.39591 
L 204.492838 154.196487 
L 203.864732 160.1435 
L 204.492838 166.090513 
L 206.361689 171.89109 
L 209.425268 177.402403 
L 213.608139 182.488744 
L 218.807307 187.024871 
L 224.894751 190.89909 
L 231.720577 194.016004 
L 239.116711 196.298865 
L 246.901036 197.69146 
L 254.881875 198.1595 
L 262.862714 197.69146 
L 270.647039 196.298865 
L 278.043173 194.016004 
L 284.868999 190.89909 
L 290.956443 187.024871 
L 296.155611 182.488744 
L 300.338482 177.402403 
L 303.402061 171.89109 
L 305.270912 166.090513 
L 305.899018 160.1435 
" clip-path="url(#p9c8db4992a)" style="fill: none; stroke: #000000; stroke-linecap: square"/>
   </g>
   <g id="line2d_35">
    <path d="M 322.904732 160.1435 
L 322.067258 152.21415 
L 319.575457 144.480047 
L 315.490685 137.13163 
L 309.913522 130.349841 
L 302.981299 124.301671 
L 294.864707 119.136047 
L 285.763606 114.980161 
L 275.902094 111.936347 
L 265.522994 110.079553 
L 254.881875 109.4555 
L 244.240756 110.079553 
L 233.861656 111.936347 
L 224.000144 114.980161 
L 214.899043 119.136047 
L 206.782451 124.301671 
L 199.850228 130.349841 
L 194.273065 137.13163 
L 190.188293 144.480047 
L 187.696492 152.21415 
L 186.859018 160.1435 
L 187.696492 168.07285 
L 190.188293 175.806953 
L 194.273065 183.15537 
L 199.850228 189.937159 
L 206.782451 195.985329 
L 214.899043 201.150953 
L 224.000144 205.306839 
L 233.861656 208.350653 
L 244.240756 210.207447 
L 254.881875 210.8315 
L 265.522994 210.207447 
L 275.902094 208.350653 
L 285.763606 205.306839 
L 294.864707 201.150953 
L 302.981299 195.985329 
L 309.913522 189.937159 
L 315.490685 183.15537 
L 319.575457 175.806953 
L 322.067258 168.07285 
L 322.904732 160.1435 
" clip-path="url(#p9c8db4992a)" style="fill: none; stroke: #000000; stroke-linecap: square"/>
   </g>
   <g id="line2d_36">
    <path d="M 339.910446 160.1435 
L 338.863604 150.231812 
L 335.748852 140.564183 
L 330.642887 131.378662 
L 323.671434 122.901426 
L 315.006154 115.341214 
L 304.860415 108.884183 
L 293.484039 103.689327 
L 281.157149 99.884559 
L 268.183274 97.563567 
L 254.881875 96.7835 
L 241.580476 97.563567 
L 228.606601 99.884559 
L 216.279711 103.689327 
L 204.903335 108.884183 
L 194.757596 115.341214 
L 186.092316 122.901426 
L 179.120863 131.378662 
L 174.014898 140.564183 
L 170.900146 150.231812 
L 169.853304 160.1435 
L 170.900146 170.055188 
L 174.014898 179.722817 
L 179.120863 188.908338 
L 186.092316 197.385574 
L 194.757596 204.945786 
L 204.903335 211.402817 
L 216.279711 216.597673 
L 228.606601 220.402441 
L 241.580476 222.723433 
L 254.881875 223.5035 
L 268.183274 222.723433 
L 281.157149 220.402441 
L 293.484039 216.597673 
L 304.860415 211.402817 
L 315.006154 204.945786 
L 323.671434 197.385574 
L 330.642887 188.908338 
L 335.748852 179.722817 
L 338.863604 170.055188 
L 339.910446 160.1435 
" clip-path="url(#p9c8db4992a)" style="fill: none; stroke: #000000; stroke-linecap: square"/>
   </g>
   <g id="line2d_37">
    <path d="M 356.916161 160.1435 
L 355.659949 148.249475 
L 351.922247 136.64832 
L 345.795089 125.625694 
L 337.429346 115.453012 
L 327.03101 106.380757 
L 314.856123 98.63232 
L 301.204471 92.398492 
L 286.412203 87.832771 
L 270.843554 85.04758 
L 254.881875 84.1115 
L 238.920196 85.04758 
L 223.351547 87.832771 
L 208.559279 92.398492 
L 194.907627 98.63232 
L 182.73274 106.380757 
L 172.334404 115.453012 
L 163.968661 125.625694 
L 157.841503 136.64832 
L 154.103801 148.249475 
L 152.847589 160.1435 
L 154.103801 172.037525 
L 157.841503 183.63868 
L 163.968661 194.661306 
L 172.334404 204.833988 
L 182.73274 213.906243 
L 194.907627 221.65468 
L 208.559279 227.888508 
L 223.351547 232.454229 
L 238.920196 235.23942 
L 254.881875 236.1755 
L 270.843554 235.23942 
L 286.412203 232.454229 
L 301.204471 227.888508 
L 314.856123 221.65468 
L 327.03101 213.906243 
L 337.429346 204.833988 
L 345.795089 194.661306 
L 351.922247 183.63868 
L 355.659949 172.037525 
L 356.916161 160.1435 
" clip-path="url(#p9c8db4992a)" style="fill: none; stroke: #000000; stroke-linecap: square"/>
   </g>
   <g id="line2d_38">
    <path d="M 373.921875 160.1435 
L 372.456295 146.267137 
L 368.095643 132.732457 
L 360.947292 119.872727 
L 351.187258 108.004597 
L 339.055866 97.4203 
L 324.851831 88.380457 
L 308.924904 81.107657 
L 291.667258 75.780983 
L 273.503834 72.531593 
L 254.881875 71.4395 
L 236.259916 72.531593 
L 218.096492 75.780983 
L 200.838846 81.107657 
L 184.911919 88.380457 
L 170.707884 97.4203 
L 158.576492 108.004597 
L 148.816458 119.872727 
L 141.668107 132.732457 
L 137.307455 146.267137 
L 135.841875 160.1435 
L 137.307455 174.019863 
L 141.668107 187.554543 
L 148.816458 200.414273 
L 158.576492 212.282403 
L 170.707884 222.8667 
L 184.911919 231.906543 
L 200.838846 239.179343 
L 218.096492 244.506017 
L 236.259916 247.755407 
L 254.881875 248.8475 
L 273.503834 247.755407 
L 291.667258 244.506017 
L 308.924904 239.179343 
L 324.851831 231.906543 
L 339.055866 222.8667 
L 351.187258 212.282403 
L 360.947292 200.414273 
L 368.095643 187.554543 
L 372.456295 174.019863 
L 373.921875 160.1435 
" clip-path="url(#p9c8db4992a)" style="fill: none; stroke: #000000; stroke-linecap: square"/>
   </g>
   <g id="line2d_39">
    <path d="M 390.927589 160.1435 
L 389.252641 144.2848 
L 384.269038 128.816593 
L 376.099494 114.119759 
L 364.94517 100.556182 
L 351.080722 88.459843 
L 334.847539 78.128593 
L 316.645337 69.816823 
L 296.922313 63.729195 
L 276.164114 60.015607 
L 254.881875 58.7675 
L 233.599636 60.015607 
L 212.841437 63.729195 
L 193.118413 69.816823 
L 174.916211 78.128593 
L 158.683028 88.459843 
L 144.81858 100.556182 
L 133.664256 114.119759 
L 125.494712 128.816593 
L 120.511109 144.2848 
L 118.836161 160.1435 
L 120.511109 176.0022 
L 125.494712 191.470407 
L 133.664256 206.167241 
L 144.81858 219.730818 
L 158.683028 231.827157 
L 174.916211 242.158407 
L 193.118413 250.470177 
L 212.841437 256.557805 
L 233.599636 260.271393 
L 254.881875 261.5195 
L 276.164114 260.271393 
L 296.922313 256.557805 
L 316.645337 250.470177 
L 334.847539 242.158407 
L 351.080722 231.827157 
L 364.94517 219.730818 
L 376.099494 206.167241 
L 384.269038 191.470407 
L 389.252641 176.0022 
L 390.927589 160.1435 
" clip-path="url(#p9c8db4992a)" style="fill: none; stroke: #000000; stroke-linecap: square"/>
   </g>
   <g id="line2d_40">
    <path d="M 407.933304 160.1435 
L 406.048987 142.302462 
L 400.442433 124.90073 
L 391.251696 108.366791 
L 378.703082 93.107768 
L 363.105578 79.499386 
L 344.843248 67.87673 
L 324.36577 58.525988 
L 302.177367 51.677406 
L 278.824393 47.49962 
L 254.881875 46.0955 
L 230.939357 47.49962 
L 207.586383 51.677406 
L 185.39798 58.525988 
L 164.920502 67.87673 
L 146.658172 79.499386 
L 131.060668 93.107768 
L 118.512054 108.366791 
L 109.321317 124.90073 
L 103.714763 142.302462 
L 101.830446 160.1435 
L 103.714763 177.984538 
L 109.321317 195.38627 
L 118.512054 211.920209 
L 131.060668 227.179232 
L 146.658172 240.787614 
L 164.920502 252.41027 
L 185.39798 261.761012 
L 207.586383 268.609594 
L 230.939357 272.78738 
L 254.881875 274.1915 
L 278.824393 272.78738 
L 302.177367 268.609594 
L 324.36577 261.761012 
L 344.843248 252.41027 
L 363.105578 240.787614 
L 378.703082 227.179232 
L 391.251696 211.920209 
L 400.442433 195.38627 
L 406.048987 177.984538 
L 407.933304 160.1435 
" clip-path="url(#p9c8db4992a)" style="fill: none; stroke: #000000; stroke-linecap: square"/>
   </g>
   <g id="line2d_41">
    <path d="M 424.939018 160.1435 
L 422.845332 140.320125 
L 416.615829 120.984866 
L 406.403899 102.613824 
L 392.460994 85.659353 
L 375.130434 70.538929 
L 354.838956 57.624866 
L 332.086202 47.235153 
L 307.432422 39.625618 
L 281.484673 34.983633 
L 254.881875 33.4235 
L 228.279077 34.983633 
L 202.331328 39.625618 
L 177.677548 47.235153 
L 154.924794 57.624866 
L 134.633316 70.538929 
L 117.302756 85.659353 
L 103.359851 102.613824 
L 93.147921 120.984866 
L 86.918418 140.320125 
L 84.824732 160.1435 
L 86.918418 179.966875 
L 93.147921 199.302134 
L 103.359851 217.673176 
L 117.302756 234.627647 
L 134.633316 249.748071 
L 154.924794 262.662134 
L 177.677548 273.051847 
L 202.331328 280.661382 
L 228.279077 285.303367 
L 254.881875 286.8635 
L 281.484673 285.303367 
L 307.432422 280.661382 
L 332.086202 273.051847 
L 354.838956 262.662134 
L 375.130434 249.748071 
L 392.460994 234.627647 
L 406.403899 217.673176 
L 416.615829 199.302134 
L 422.845332 179.966875 
L 424.939018 160.1435 
" clip-path="url(#p9c8db4992a)" style="fill: none; stroke: #000000; stroke-linecap: square"/>
   </g>
   <g id="line2d_42">
    <path d="M 254.881875 160.1435 
L 424.939018 160.1435 
" clip-path="url(#p9c8db4992a)" style="fill: none; stroke: #000000; stroke-linecap: square"/>
   </g>
   <g id="line2d_43">
    <path d="M 254.881875 160.1435 
L 416.615829 120.984866 
" clip-path="url(#p9c8db4992a)" style="fill: none; stroke: #000000; stroke-linecap: square"/>
   </g>
   <g id="line2d_44">
    <path d="M 254.881875 160.1435 
L 392.460994 85.659353 
" clip-path="url(#p9c8db4992a)" style="fill: none; stroke: #000000; stroke-linecap: square"/>
   </g>
   <g id="line2d_45">
    <path d="M 254.881875 160.1435 
L 354.838956 57.624866 
" clip-path="url(#p9c8db4992a)" style="fill: none; stroke: #000000; stroke-linecap: square"/>
   </g>
   <g id="line2d_46">
    <path d="M 254.881875 160.1435 
L 307.432422 39.625618 
" clip-path="url(#p9c8db4992a)" style="fill: none; stroke: #000000; stroke-linecap: square"/>
   </g>
   <g id="line2d_47">
    <path d="M 254.881875 160.1435 
L 254.881875 33.4235 
" clip-path="url(#p9c8db4992a)" style="fill: none; stroke: #000000; stroke-linecap: square"/>
   </g>
   <g id="line2d_48">
    <path d="M 254.881875 160.1435 
L 202.331328 39.625618 
" clip-path="url(#p9c8db4992a)" style="fill: none; stroke: #000000; stroke-linecap: square"/>
   </g>
   <g id="line2d_49">
    <path d="M 254.881875 160.1435 
L 154.924794 57.624866 
" clip-path="url(#p9c8db4992a)" style="fill: none; stroke: #000000; stroke-linecap: square"/>
   </g>
   <g id="line2d_50">
    <path d="M 254.881875 160.1435 
L 117.302756 85.659353 
" clip-path="url(#p9c8db4992a)" style="fill: none; stroke: #000000; stroke-linecap: square"/>
   </g>
   <g id="line2d_51">
    <path d="M 254.881875 160.1435 
L 93.147921 120.984866 
" clip-path="url(#p9c8db4992a)" style="fill: none; stroke: #000000; stroke-linecap: square"/>
   </g>
   <g id="line2d_52">
    <path d="M 254.881875 160.1435 
L 84.824732 160.1435 
" clip-path="url(#p9c8db4992a)" style="fill: none; stroke: #000000; stroke-linecap: square"/>
   </g>
   <g id="line2d_53">
    <path d="M 254.881875 160.1435 
L 93.147921 199.302134 
" clip-path="url(#p9c8db4992a)" style="fill: none; stroke: #000000; stroke-linecap: square"/>
   </g>
   <g id="line2d_54">
    <path d="M 254.881875 160.1435 
L 117.302756 234.627647 
" clip-path="url(#p9c8db4992a)" style="fill: none; stroke: #000000; stroke-linecap: square"/>
   </g>
   <g id="line2d_55">
    <path d="M 254.881875 160.1435 
L 154.924794 262.662134 
" clip-path="url(#p9c8db4992a)" style="fill: none; stroke: #000000; stroke-linecap: square"/>
   </g>
   <g id="line2d_56">
    <path d="M 254.881875 160.1435 
L 202.331328 280.661382 
" clip-path="url(#p9c8db4992a)" style="fill: none; stroke: #000000; stroke-linecap: square"/>
   </g>
   <g id="line2d_57">
    <path d="M 254.881875 160.1435 
L 254.881875 286.8635 
" clip-path="url(#p9c8db4992a)" style="fill: none; stroke: #000000; stroke-linecap: square"/>
   </g>
   <g id="line2d_58">
    <path d="M 254.881875 160.1435 
L 307.432422 280.661382 
" clip-path="url(#p9c8db4992a)" style="fill: none; stroke: #000000; stroke-linecap: square"/>
   </g>
   <g id="line2d_59">
    <path d="M 254.881875 160.1435 
L 354.838956 262.662134 
" clip-path="url(#p9c8db4992a)" style="fill: none; stroke: #000000; stroke-linecap: square"/>
   </g>
   <g id="line2d_60">
    <path d="M 254.881875 160.1435 
L 392.460994 234.627647 
" clip-path="url(#p9c8db4992a)" style="fill: none; stroke: #000000; stroke-linecap: square"/>
   </g>
   <g id="line2d_61">
    <path d="M 254.881875 160.1435 
L 416.615829 199.302134 
" clip-path="url(#p9c8db4992a)" style="fill: none; stroke: #000000; stroke-linecap: square"/>
   </g>
   <g id="line2d_62">
    <path d="M 254.881875 160.1435 
L 424.939018 160.1435 
" clip-path="url(#p9c8db4992a)" style="fill: none; stroke: #000000; stroke-linecap: square"/>
   </g>
   <g id="patch_61">
    <path d="M 76.321875 293.1995 
L 76.321875 27.0875 
" style="fill: none; stroke: #000000; stroke-width: 0.8; stroke-linejoin: miter; stroke-linecap: square"/>
   </g>
   <g id="patch_62">
    <path d="M 433.441875 293.1995 
L 433.441875 27.0875 
" style="fill: none; stroke: #000000; stroke-width: 0.8; stroke-linejoin: miter; stroke-linecap: square"/>
   </g>
   <g id="patch_63">
    <path d="M 76.321875 293.1995 
L 433.441875 293.1995 
" style="fill: none; stroke: #000000; stroke-width: 0.8; stroke-linejoin: miter; stroke-linecap: square"/>
   </g>
   <g id="patch_64">
    <path d="M 76.321875 27.0875 
L 433.441875 27.0875 
" style="fill: none; stroke: #000000; stroke-width: 0.8; stroke-linejoin: miter; stroke-linecap: square"/>
   </g>
   <g id="text_9">
    <!-- Pier Section - sec1 -->
    <g transform="translate(180.17875 21.0875) scale(0.2 -0.2)">
     <defs>
      <path id="TimesNewRomanPSMT-50" d="M 1313 1984 
L 1313 750 
Q 1313 350 1400 253 
Q 1519 116 1759 116 
L 1922 116 
L 1922 0 
L 106 0 
L 106 116 
L 266 116 
Q 534 116 650 291 
Q 713 388 713 750 
L 713 3488 
Q 713 3888 628 3984 
Q 506 4122 266 4122 
L 106 4122 
L 106 4238 
L 1659 4238 
Q 2228 4238 2556 4120 
Q 2884 4003 3109 3725 
Q 3334 3447 3334 3066 
Q 3334 2547 2992 2222 
Q 2650 1897 2025 1897 
Q 1872 1897 1694 1919 
Q 1516 1941 1313 1984 
z
M 1313 2163 
Q 1478 2131 1606 2115 
Q 1734 2100 1825 2100 
Q 2150 2100 2386 2351 
Q 2622 2603 2622 3003 
Q 2622 3278 2509 3514 
Q 2397 3750 2190 3867 
Q 1984 3984 1722 3984 
Q 1563 3984 1313 3925 
L 1313 2163 
z
" transform="scale(0.015625)"/>
      <path id="TimesNewRomanPSMT-69" d="M 928 4444 
Q 1059 4444 1151 4351 
Q 1244 4259 1244 4128 
Q 1244 3997 1151 3903 
Q 1059 3809 928 3809 
Q 797 3809 703 3903 
Q 609 3997 609 4128 
Q 609 4259 701 4351 
Q 794 4444 928 4444 
z
M 1188 2947 
L 1188 647 
Q 1188 378 1227 289 
Q 1266 200 1342 156 
Q 1419 113 1622 113 
L 1622 0 
L 231 0 
L 231 113 
Q 441 113 512 153 
Q 584 194 626 287 
Q 669 381 669 647 
L 669 1750 
Q 669 2216 641 2353 
Q 619 2453 572 2492 
Q 525 2531 444 2531 
Q 356 2531 231 2484 
L 188 2597 
L 1050 2947 
L 1188 2947 
z
" transform="scale(0.015625)"/>
      <path id="TimesNewRomanPSMT-65" d="M 681 1784 
Q 678 1147 991 784 
Q 1303 422 1725 422 
Q 2006 422 2214 576 
Q 2422 731 2563 1106 
L 2659 1044 
Q 2594 616 2278 264 
Q 1963 -88 1488 -88 
Q 972 -88 605 314 
Q 238 716 238 1394 
Q 238 2128 614 2539 
Q 991 2950 1559 2950 
Q 2041 2950 2350 2633 
Q 2659 2316 2659 1784 
L 681 1784 
z
M 681 1966 
L 2006 1966 
Q 1991 2241 1941 2353 
Q 1863 2528 1708 2628 
Q 1553 2728 1384 2728 
Q 1125 2728 920 2526 
Q 716 2325 681 1966 
z
" transform="scale(0.015625)"/>
      <path id="TimesNewRomanPSMT-53" d="M 2934 4334 
L 2934 2869 
L 2819 2869 
Q 2763 3291 2617 3541 
Q 2472 3791 2203 3937 
Q 1934 4084 1647 4084 
Q 1322 4084 1109 3886 
Q 897 3688 897 3434 
Q 897 3241 1031 3081 
Q 1225 2847 1953 2456 
Q 2547 2138 2764 1967 
Q 2981 1797 3098 1565 
Q 3216 1334 3216 1081 
Q 3216 600 2842 251 
Q 2469 -97 1881 -97 
Q 1697 -97 1534 -69 
Q 1438 -53 1133 45 
Q 828 144 747 144 
Q 669 144 623 97 
Q 578 50 556 -97 
L 441 -97 
L 441 1356 
L 556 1356 
Q 638 900 775 673 
Q 913 447 1195 297 
Q 1478 147 1816 147 
Q 2206 147 2432 353 
Q 2659 559 2659 841 
Q 2659 997 2573 1156 
Q 2488 1316 2306 1453 
Q 2184 1547 1640 1851 
Q 1097 2156 867 2337 
Q 638 2519 519 2737 
Q 400 2956 400 3219 
Q 400 3675 750 4004 
Q 1100 4334 1641 4334 
Q 1978 4334 2356 4169 
Q 2531 4091 2603 4091 
Q 2684 4091 2736 4139 
Q 2788 4188 2819 4334 
L 2934 4334 
z
" transform="scale(0.015625)"/>
      <path id="TimesNewRomanPSMT-74" d="M 1031 3803 
L 1031 2863 
L 1700 2863 
L 1700 2644 
L 1031 2644 
L 1031 788 
Q 1031 509 1111 412 
Q 1191 316 1316 316 
Q 1419 316 1516 380 
Q 1613 444 1666 569 
L 1788 569 
Q 1678 263 1478 108 
Q 1278 -47 1066 -47 
Q 922 -47 784 33 
Q 647 113 581 261 
Q 516 409 516 719 
L 516 2644 
L 63 2644 
L 63 2747 
Q 234 2816 414 2980 
Q 594 3144 734 3369 
Q 806 3488 934 3803 
L 1031 3803 
z
" transform="scale(0.015625)"/>
      <path id="TimesNewRomanPSMT-6e" d="M 1034 2341 
Q 1538 2947 1994 2947 
Q 2228 2947 2397 2830 
Q 2566 2713 2666 2444 
Q 2734 2256 2734 1869 
L 2734 647 
Q 2734 375 2778 278 
Q 2813 200 2889 156 
Q 2966 113 3172 113 
L 3172 0 
L 1756 0 
L 1756 113 
L 1816 113 
Q 2016 113 2095 173 
Q 2175 234 2206 353 
Q 2219 400 2219 647 
L 2219 1819 
Q 2219 2209 2117 2386 
Q 2016 2563 1775 2563 
Q 1403 2563 1034 2156 
L 1034 647 
Q 1034 356 1069 288 
Q 1113 197 1189 155 
Q 1266 113 1500 113 
L 1500 0 
L 84 0 
L 84 113 
L 147 113 
Q 366 113 442 223 
Q 519 334 519 647 
L 519 1709 
Q 519 2225 495 2337 
Q 472 2450 423 2490 
Q 375 2531 294 2531 
Q 206 2531 84 2484 
L 38 2597 
L 900 2947 
L 1034 2947 
L 1034 2341 
z
" transform="scale(0.015625)"/>
      <path id="TimesNewRomanPSMT-73" d="M 2050 2947 
L 2050 1972 
L 1947 1972 
Q 1828 2431 1642 2597 
Q 1456 2763 1169 2763 
Q 950 2763 815 2647 
Q 681 2531 681 2391 
Q 681 2216 781 2091 
Q 878 1963 1175 1819 
L 1631 1597 
Q 2266 1288 2266 781 
Q 2266 391 1970 151 
Q 1675 -88 1309 -88 
Q 1047 -88 709 6 
Q 606 38 541 38 
Q 469 38 428 -44 
L 325 -44 
L 325 978 
L 428 978 
Q 516 541 762 319 
Q 1009 97 1316 97 
Q 1531 97 1667 223 
Q 1803 350 1803 528 
Q 1803 744 1651 891 
Q 1500 1038 1047 1263 
Q 594 1488 453 1669 
Q 313 1847 313 2119 
Q 313 2472 555 2709 
Q 797 2947 1181 2947 
Q 1350 2947 1591 2875 
Q 1750 2828 1803 2828 
Q 1853 2828 1881 2850 
Q 1909 2872 1947 2947 
L 2050 2947 
z
" transform="scale(0.015625)"/>
      <path id="TimesNewRomanPSMT-31" d="M 750 3822 
L 1781 4325 
L 1884 4325 
L 1884 747 
Q 1884 391 1914 303 
Q 1944 216 2037 169 
Q 2131 122 2419 116 
L 2419 0 
L 825 0 
L 825 116 
Q 1125 122 1212 167 
Q 1300 213 1334 289 
Q 1369 366 1369 747 
L 1369 3034 
Q 1369 3497 1338 3628 
Q 1316 3728 1258 3775 
Q 1200 3822 1119 3822 
Q 1003 3822 797 3725 
L 750 3822 
z
" transform="scale(0.015625)"/>
     </defs>
     <use xlink:href="#TimesNewRomanPSMT-50"/>
     <use xlink:href="#TimesNewRomanPSMT-69" x="55.615234"/>
     <use xlink:href="#TimesNewRomanPSMT-65" x="83.398438"/>
     <use xlink:href="#TimesNewRomanPSMT-72" x="127.783203"/>
     <use xlink:href="#TimesNewRomanPSMT-20" x="161.083984"/>
     <use xlink:href="#TimesNewRomanPSMT-53" x="186.083984"/>
     <use xlink:href="#TimesNewRomanPSMT-65" x="241.699219"/>
     <use xlink:href="#TimesNewRomanPSMT-63" x="286.083984"/>
     <use xlink:href="#TimesNewRomanPSMT-74" x="330.46875"/>
     <use xlink:href="#TimesNewRomanPSMT-69" x="358.251953"/>
     <use xlink:href="#TimesNewRomanPSMT-6f" x="386.035156"/>
     <use xlink:href="#TimesNewRomanPSMT-6e" x="436.035156"/>
     <use xlink:href="#TimesNewRomanPSMT-20" x="486.035156"/>
     <use xlink:href="#TimesNewRomanPSMT-2d" x="511.035156"/>
     <use xlink:href="#TimesNewRomanPSMT-20" x="544.335938"/>
     <use xlink:href="#TimesNewRomanPSMT-73" x="569.335938"/>
     <use xlink:href="#TimesNewRomanPSMT-65" x="608.251953"/>
     <use xlink:href="#TimesNewRomanPSMT-63" x="652.636719"/>
     <use xlink:href="#TimesNewRomanPSMT-31" x="697.021484"/>
    </g>
   </g>
  </g>
 </g>
 <defs>
  <clipPath id="p9c8db4992a">
   <rect x="76.321875" y="27.0875" width="357.12" height="266.112"/>
  </clipPath>
 </defs>
</svg>
